<svg id="Layer_1" data-name="Layer 1" xmlns="http://www.w3.org/2000/svg" viewBox="0 0 84.04 84.43"><defs><style>.cls-1{fill:#ff7171;}</style></defs><path class="cls-1" d="M42.12,0C19.18-.47.29,19-.19,41.07-.72,65.2,19.09,83.93,40.94,84.42,65.29,85,84.35,64.79,84.21,43,85.16,19.47,65-.47,42.12,0Zm18.32,63.1a47.05,47.05,0,0,1-7.85-.88,40.41,40.41,0,0,1-11.5-4.39,39.2,39.2,0,0,1-9-7.07A40.11,40.11,0,0,1,21.72,30.72a36.37,36.37,0,0,1-.66-7.51,2.28,2.28,0,0,1,2.27-2.29q4.19,0,8.37,0a2.3,2.3,0,0,1,2.23,2.36,26.6,26.6,0,0,0,1.31,8.31,2.34,2.34,0,0,1-.67,2.52C33,35.65,31.5,37.22,30,38.75a.66.66,0,0,0-.17.94,35.62,35.62,0,0,0,7.09,9.23,35.26,35.26,0,0,0,7.62,5.44.6.6,0,0,0,.85-.14c1.52-1.54,3.06-3,4.58-4.59a2.44,2.44,0,0,1,2.71-.73A29,29,0,0,0,59,50.16c.78.08,1.57-.06,2.35.09a2.31,2.31,0,0,1,1.9,2.28c0,1.38,0,2.75,0,4.13s-.06,2.52,0,3.77A2.49,2.49,0,0,1,60.44,63.11Z"/></svg>