<?xml version="1.0" encoding="UTF-8"?>
<svg xmlns="http://www.w3.org/2000/svg" width="43.75992202758789" height="43.69575741371136" viewBox="649.4136789508775 7731.479578154796 43.75992202758789 43.69575741371136" preserveAspectRatio="none">
  <g>
    <defs>
      <path id="s-Path_20-d1224" d="M693.173602012227 7753.000049726599 C693.173602012227 7741.113351628589 683.378899961602 7731.479578154796 671.2936404815523 7731.479578154796 C659.2083810015025 7731.479578154796 649.4136789508775 7741.113351628589 649.4136789508775 7753.000049726599 C649.4136789508775 7763.743472900629 657.4135397551157 7772.645886213533 667.8748964923843 7774.259921324874 L667.8748964923843 7759.2208110403235 L662.3194375099864 7759.2208110403235 L662.3194375099864 7753.000049726599 L667.8748964923843 7753.000049726599 L667.8748964923843 7748.258821346524 C667.8748964923843 7742.8660930326305 671.1397967412103 7739.886012362532 676.1397111295156 7739.886012362532 C678.5328319219332 7739.886012362532 681.0370618287914 7740.306334072919 681.0370618287914 7740.306334072919 L681.0370618287914 7745.602387623792 L678.2764261227456 7745.602387623792 C675.5585247165644 7745.602387623792 674.7123854488307 7747.26265837982 674.7123854488307 7748.964961306886 L674.7123854488307 7753.000049726599 L680.7806560296037 7753.000049726599 L679.8105873900737 7759.2208110403235 L674.7123844707202 7759.2208110403235 L674.7123844707202 7774.259921324874 C685.1737405559151 7772.645887496253 693.173602012227 7763.743471617909 693.173602012227 7753.000049726599 Z "></path>
      <path id="s-Path_21-d1224" d="M680.7237504358043 7759.8756280207135 L681.6938195643895 7753.654866706989 L675.6255489836167 7753.654866706989 L675.6255489836167 7749.619778287276 C675.6255489836167 7747.91747536021 676.471688088332 7746.257204604182 679.1895896575314 7746.257204604182 L681.9502253635771 7746.257204604182 L681.9502253635771 7740.961151053309 C681.9502253635771 7740.961151053309 679.445995456719 7740.540829342922 677.0528746643017 7740.540829342922 C672.0529615801436 7740.540829342922 668.7880613313179 7743.5209103337 668.7880613313179 7748.913637685554 L668.7880613313179 7753.654866706989 L663.2326020228832 7753.654866706989 L663.2326020228832 7759.8756280207135 L668.7880610052811 7759.8756280207135 L668.7880610052811 7774.914738305264 C669.9034262480488 7775.087070202514 671.044432005528 7775.175337757687 672.2068049944488 7775.175337757687 C673.3691779833696 7775.175337757687 674.5101838223579 7775.087070202514 675.6255489836167 7774.914738305264 L675.6255489836167 7759.8756280207135 L680.7237504358043 7759.8756280207135 Z "></path>
    </defs>
    <g style="mix-blend-mode:normal">
      <use xmlns:xlink="http://www.w3.org/1999/xlink" xlink:href="#s-Path_20-d1224" fill="#FF7171" fill-opacity="1.0"></use>
    </g>
    <g style="mix-blend-mode:normal">
      <use xmlns:xlink="http://www.w3.org/1999/xlink" xlink:href="#s-Path_21-d1224" fill="#49263D" fill-opacity="1.0"></use>
    </g>
  </g>
</svg>
