<svg id="Layer_1" data-name="Layer 1" xmlns="http://www.w3.org/2000/svg" viewBox="0 0 214.34 214.9"><defs><style>.cls-1{fill:#ff7171;}</style></defs><path class="cls-1" d="M89.17,14.53a6.23,6.23,0,0,0-2.29.42c-.21,0-.46.16-.29.45s0,.51-.23.55-.61,0-.62-.35-.26-.39-.52-.36c-.53,0-1,.13-1.58.21s-.57.48-.8.75c-.63.75-.71.8-1.53.34a1,1,0,0,0-.89-.11,7.06,7.06,0,0,1-2.3.7c-.12,0-.25.06-.26.21s.15.25.3.29a1.21,1.21,0,0,0,.38,0c.17,0,.4-.15.48.11s-.21.41-.41.52a.47.47,0,0,1-.37,0,4.05,4.05,0,0,0-3.15.47c-.45.24-.67-.15-1-.27.18-.4.64-.42.74-.78-.17-.25-.35-.12-.5,0a8.45,8.45,0,0,1-1.14.82c-.22.11-.25.3-.28.54-.11.8-.58,1-1.23.53-.14-.1-.21-.33-.45-.27-.24,1.11-.24,1.11-1,.53-.26.69-.92,1-1.36,1.51a.5.5,0,0,1-.42.18,4.4,4.4,0,0,0-2.72,1,.6.6,0,0,1-.53.08c-1-.39-1.6.24-2.27.72-.25.18-.13.38.13.49s.25.1.23.26-.2.24-.34.25c-.55,0-1.09.46-1.64-.09-.18-.17-.55,0-.66.32s0,.38-.27.54c-.6-.57-1.11,0-1.64.22-.3.13-.24.38.11.54.1,0,.28,0,.26.2s-.2.31-.37.39a.26.26,0,0,1-.33,0c-.65-.52-.72-.53-1.2,0-.16.17-.27.32-.54.21a.38.38,0,0,0-.5.13c-.29.52-.86.64-1.32.85a3.56,3.56,0,0,0-1.21,1c-.39.45-.78,1-1.55.76a.36.36,0,0,0-.44.27c-.15.43-.55.59-.85.86a19,19,0,0,1-3.12,2.14,22.88,22.88,0,0,0-3.26,2.61c-.14.12-.22.34-.41.38-.72.13-1.07.71-1.52,1.19-.08.09-.15.22-.26.27-1.48.76-2.44,2.19-3.91,3a.93.93,0,0,0-.57.7c0,.11-.1.28-.2.3a4.34,4.34,0,0,0-1.84,1.49c-.57.62-1.11,1.3-1.73,1.85s-1,1.55-1.87,1.88c-.06,0-.14.08-.14.12.07.85-.9,1.06-1.07,1.78a.83.83,0,0,1-.74.52.84.84,0,0,0-.69.44,8,8,0,0,1-1.12,1.65c-.36.37-.83.65-1,1.18a3.13,3.13,0,0,1-.83,1.43s0,.15-.08.17c-1.08.41-1.07,1.51-1.43,2.35-.16.35-.65.47-.58.9s.41.6.47,1a28.9,28.9,0,0,1,.1,3.08c0,.11-.07.16-.17.17s-.23,0-.21-.13c.21-.87-.45-1.26-.95-1.74,0,0,0-.06,0-.09.15-.15.27,0,.41.05.36,0,.55-.13.51-.49a5,5,0,0,0-.14-.93.28.28,0,0,0-.54-.09c-.38.82-1.26,1.3-1.41,2.26-.06.34-.37.58-.6.84s-.28.53.16.58.51.21.47.55c-.08.63.22,1.32-.35,1.88-.21.21-.09.51.08.77s.4.43.22.76c-.26.06-.29-.16-.38-.31-.29-.48-.57-1-.87-1.45s-.52-.38-.68,0-.17.66-.51.85c-.12.07-.18.27-.06.32.68.31,0,1.09.53,1.46.1.07,0,.18,0,.24-.52.63-.68,1.46-1.2,2.09-.15.19-.26.34-.52.19a.32.32,0,0,0-.47.15c-.13.21-.19.41,0,.59.44.38.31.76,0,1.15a4.83,4.83,0,0,1-.65,1,.62.62,0,0,0-.19.69.59.59,0,0,1-.21.67.94.94,0,0,0-.21,1.35c-.14.18-.26.17-.37.1s-.29-.18-.4,0a.36.36,0,0,0,0,.44,5.1,5.1,0,0,0,.47.46c.26.27.25.51-.12.64a1.4,1.4,0,0,0-.59.28c-.55.55-1.18,1.07-.61,2a.5.5,0,0,1,0,.54A5.38,5.38,0,0,0,15,80.75a10.09,10.09,0,0,1-.69,2.88c-.26.46-.11.64.46.77s.72.41.22.87a1,1,0,0,0-.36,1.06.94.94,0,0,1-.29,1c-.35.29-.19.51.06.78.43.47.41.49-.11.93-.27.24-.3.86,0,1,.55.31.63.55.19,1.07-.27.33.06.79.31,1.09a1,1,0,0,1,.22,1,1.27,1.27,0,0,0,.07,1.15c.13.2,0,.49-.14.71a5.22,5.22,0,0,0-.56,2.36.63.63,0,0,1-.18.51.36.36,0,0,0-.08.43c.49,1,0,1.77-.45,2.58-.07.13-.19.34-.14.42.51.79-.37,1.61.07,2.4,0,.09-.12.28-.19.42a1.43,1.43,0,0,0-.15.92,7.53,7.53,0,0,1-.06,3.34.67.67,0,0,0,0,.54,1,1,0,0,1,.07.8,3.18,3.18,0,0,0,.06,1.3,15.5,15.5,0,0,0,.6,2.32,2.68,2.68,0,0,1-.18,1.47c-.1.46-.35,1.12-.11,1.35.54.53.06.9,0,1.33a1.48,1.48,0,0,1-.67,1.27c-.38.22-.26.48,0,.77s.61.25,1,.3l-.33.7c0,.08-.15.22-.13.24.51.45.23,1.18.57,1.63s.41.52.23.89a.41.41,0,0,0,.22.62c.6.25.49.56.14.93s-.47.56.14.69c.05,0,.08.16.1.25.09.48.35.51.75.31.18-.09.32-.33.63-.18,0,.46-.47.51-.76.67-.74.4-.88.65-.69,1.49,0,.09.1.22.07.25-.33.36-.45.65-.07,1.11s-.16.78-.09,1.25a3.18,3.18,0,0,0,.51,1.43,3.61,3.61,0,0,1,.62,1.22c.11.46.58.3.87.49-.3.45-.66.88-.16,1.41a.24.24,0,0,1-.08.4c-.64.14-.31.5-.25.85s0,1,.59,1.11a.19.19,0,0,1,.12.13,1,1,0,0,0,.43,1.06c.28.19.29.78.41,1.19a25.93,25.93,0,0,0,.75,2.59c.42,1.06.37,2.25,1,3.26.31.48.07,1.27.26,1.91.07.23.05.51.3.65a.88.88,0,0,1,.43.88c0,.12,0,.3.11.35.94.61,1.11,1.74,1.72,2.58.26.34.5.76.76,1,.77.75.91,1.83,1.6,2.6,0,.69.56,1.21.54,1.9,0,.49.34.86.54,1.26.49,1,1,1.93,1.42,2.92a10.42,10.42,0,0,0,.74,1.09,18,18,0,0,0,1.76,2.51,12.55,12.55,0,0,0,1.64,2.16c.1.08.07.31.15.43.31.5.39,1.12.93,1.49a1.62,1.62,0,0,1,.46.7,2.38,2.38,0,0,0,.88,1.39.93.93,0,0,1,.29.48,1.53,1.53,0,0,0,.69,1,.67.67,0,0,1,.3.36c.43,1.27,1.7,1.85,2.38,2.92a27.66,27.66,0,0,1,1.9,2.39c.1.18.22.4.45.46s.32.24.27.49a.63.63,0,0,0,.15.62c.65.49.92,1.28,1.56,1.8a8.43,8.43,0,0,1,.85,1.22s0,.12,0,.18c.16.51.79.41,1.05.86s.17,1,.86,1c.21,0,.34.24.5.4A17.34,17.34,0,0,0,48,188.4c.37.24.71.61,1.11.88a.55.55,0,0,1,.26.47c0,.4.14.6.56.55s.55.21.81.39c.42.29.57.9,1.2,1,.19,0,.1.33.15.51.09.36.21.66.7.49s.51.06.54.42a.76.76,0,0,0,.64.72,4.61,4.61,0,0,1,1.25.64.83.83,0,0,0,.77.17c.37-.12.61,0,.8.41s.44.88,1.08.64c.07,0,.22,0,.25.07.43.66,1.17.67,1.81.85a3.37,3.37,0,0,1,1.43.86c.9.86,2.13,1.24,3,2.08,1,.08,1.45,1.32,2.54,1.29.08,0,.22.15.25.25.13.41.47.41.79.55a13.93,13.93,0,0,1,1.77,1,4.9,4.9,0,0,0,1.38.72c.54.15,1,.6,1.57.71a11.64,11.64,0,0,1,3,1,2.33,2.33,0,0,0,1.13.19,3.12,3.12,0,0,1,1.24.56,1.3,1.3,0,0,0,.6.23,6.14,6.14,0,0,1,3.43,1.38,7.79,7.79,0,0,0,5.88,1.51,3.8,3.8,0,0,1,1.5,0,5.08,5.08,0,0,0,1.78.11,12.53,12.53,0,0,1,3.46,0c.38.06.83-.16,1.1.3.44-.19,1.08.44,1.39-.35.08-.19.31-.13.4,0,.71.75,1.62.48,2.46.5a4.39,4.39,0,0,1,2.54.35c.41.27,1,.09,1.44,0a.55.55,0,0,1,.55.2.82.82,0,0,0,1.18.12c.38-.33.6-.16,1-.08s.89.42,1.35.07c1,.37,2.1,0,3.14.11.15,0,.38.09.45,0,.51-.47,1.1-.27,1.66-.26.1,0,.23,0,.28,0,.57-.54,1.18-.21,1.77-.08a4.13,4.13,0,0,0,1.31,0c.48-.07,1-.27,1.44,0a.35.35,0,0,0,.27,0c.69-.87,1.82,0,2.58-.7.15-.13.43,0,.63.11a2.35,2.35,0,0,0,2-.09,4.21,4.21,0,0,1,2.83-.23,2,2,0,0,0,1.84-.53c.27-.22.47-.41.79-.09a.87.87,0,0,0,1,.14,6,6,0,0,1,2.59-.18c.25,0,.54.1.73-.07a2.34,2.34,0,0,1,1.65-.48,2.84,2.84,0,0,0,1.09-.25,3.09,3.09,0,0,1,1.45-.21,2.29,2.29,0,0,0,1.55-.46c.21-.14.39-.36.63-.37s.41-.17.47-.45c.1-.45.34-.53.76-.28a5.83,5.83,0,0,0,1.3.5c.33.09.74.25.76-.43,0-.37.51-.23.79-.31s.34.05.36-.19a.36.36,0,0,0-.2-.39c-.2-.08-.48-.12-.4-.41a.77.77,0,0,1,.65-.6,1.07,1.07,0,0,1,.9.18,1.85,1.85,0,0,0,1.08.26c.14,0,.33,0,.41-.13.27-.52.82-.52,1.26-.69,0-.32-.25-.27-.38-.38a.23.23,0,1,1,.24-.4l.07.07c.36.33.64-.34,1-.06a3.38,3.38,0,0,0,1,.44c.22.07.51-.05.52-.28,0-.45.25-.59.63-.68a.61.61,0,0,0,.37-.27,1.91,1.91,0,0,1,2.34-.86.87.87,0,0,0,1-.35,1.83,1.83,0,0,1,1.51-.82,1.22,1.22,0,0,0,1.19-.75,1.6,1.6,0,0,1,1.6-.86h.19c1,0,1,0,.79-1-.08-.36,0-.57.39-.54a2.94,2.94,0,0,0,.93-.12c.71-.16.72-.24.22-.89.48-.49.85-.14,1.18.18s.57.37.9.07a.53.53,0,0,0,.22-.55c-.1-.66.1-.86.74-.74.36.06.73.33.88-.27a1.43,1.43,0,0,0-.49-1.49,1.25,1.25,0,0,0-.19,0c-.29-.09-.53-.23-.51-.58s.36-.27.58-.34.62,0,.71.37a1.18,1.18,0,0,0,.41.81c.32.25.79.34,1,.12s.07-.52-.07-.76l-.23-.45a3.82,3.82,0,0,1,1.25.29.65.65,0,0,0,.87-.26c.1-.38-.15-.53-.47-.68s-.74,0-1.19-.15c.37-.38.59-.74.22-1.22-.2-.25.06-.43.29-.41.87.08,1.36-.17,1.3-1.15,0-.18.29-.39.46-.57s.51-.3.53.11.41.66.53,1.06.61.37,1,.38.38-.27.47-.5c.19-.54.09-.67-.56-.78s-.92-.31-.85-1c0-.44.19-.56.61-.43a12.93,12.93,0,0,1,1.23.46c.24.1.49.22.67,0s0-.47-.22-.59-.45-.3-.29-.59a.56.56,0,0,1,.62-.34,7.65,7.65,0,0,0,2.08-.19c.52,0,1.06.3,1.56-.08,0-.3-.22-.38-.4-.43a2,2,0,0,1-1.2-1.1.38.38,0,0,1,0-.5.37.37,0,0,1,.5-.1c.35.2.78.25,1,.62a.37.37,0,0,0,.58.07c.19-.17.57-.29.34-.66s0-.38.23-.43a2.22,2.22,0,0,1,.37,0c.67,0,.7-.09.41-.68-.12-.24-.38-.49,0-.72s.7-.22,1,.23c.07.12.14.2.28.19s.24-.07.26-.22,0-.32.1-.45.43-.47.8-.25a2.78,2.78,0,0,0,.42.22c.51.21.73.13.75-.42a.71.71,0,0,1,.61-.79,3.33,3.33,0,0,0,.74-.4c.13-.07.3-.15.23-.35s-.23-.19-.39-.21a3.17,3.17,0,0,0-1.09.23c-.17,0-.46.1-.51-.08s-.13-.55.13-.69c.46-.26.77-.49.17-.94,0,0,0-.19,0-.25a.28.28,0,0,1,.42,0,2.54,2.54,0,0,0,1.31.57l.46,0c.66,0,.87-.28.67-.87-.15-.41-.46-.47-.77-.14a.61.61,0,0,1-1,0c-.13-.17-.14-.4.12-.43a1,1,0,0,0,.86-.44c.09-.16.27-.06.43,0a4.44,4.44,0,0,0,1.12.42c0-.84.61-1,1.28-1a.73.73,0,0,0,.5-.21.33.33,0,0,0-.15-.61c-.09,0-.19,0-.28,0s-.31-.14-.27-.32.15-.35.39-.29.3.1.45.12.34,0,.35-.22c.06-.94.88-1.35,1.38-2a18.83,18.83,0,0,0,1.7-1.85,5.71,5.71,0,0,1,1.28-1.1c.56-.48,1.09-1,1.66-1.48a2,2,0,0,1,.55-.34.33.33,0,0,1,.41.15c.1.17-.08.21-.15.3l-.76,1s0,.07,0,.08c-.88.21-1,1.14-1.65,1.63-.22.17-.36.37-.26.64s.36.17.57.21.17.07.28.11a5.33,5.33,0,0,1-1.31,1.94c-.91.77-1.45,1.88-2.33,2.71a14.29,14.29,0,0,0-1.64,2.16A30.85,30.85,0,0,1,185,181c-1.27,1.35-2.57,2.66-3.83,4-.67.71-1.47,1.27-2.2,1.91-1.77,1.56-3.51,3.14-5.32,4.64-1.21,1-2.52,1.86-3.8,2.77a16.66,16.66,0,0,0-1.69,1.35,16,16,0,0,1-2.1,1.4c-1.29.88-2.65,1.66-4,2.48s-2.79,1.69-4.23,2.45a10.2,10.2,0,0,1-2.89,1.31,1.81,1.81,0,0,0-.52.22c-1.48.81-3,1.5-4.55,2.22s-3.28,1.35-4.93,2c-1.11.43-2.21.88-3.31,1.33a36.84,36.84,0,0,1-4.57,1.47c-2.39.62-4.81,1.14-7.22,1.72s-4.68.85-7,1.35a47,47,0,0,1-6.22.85c-1.75.13-3.51.18-5.26.26a53.57,53.57,0,0,1-6.46.11c-1.75-.13-3.5-.3-5.25-.39a37.69,37.69,0,0,0-3.83-.25,16.78,16.78,0,0,1-2.42-.28c-2.36-.27-4.68-.84-7-1.2a17.23,17.23,0,0,1-2.87-.5c-2.12-.71-4.29-1.21-6.44-1.75s-4-1.16-5.91-1.84c-1.59-.57-3.14-1.26-4.7-1.91-.72-.3-1.47-.55-2.19-.84-1.1-.46-2.15-1-3.22-1.54a68.39,68.39,0,0,1-8.66-4.51c-1.56-1.06-3.24-1.89-4.79-3-1.23-.86-2.49-1.7-3.69-2.6a78,78,0,0,1-6.75-5.41c-1.86-1.77-3.9-3.35-5.69-5.21-.68-.7-1.25-1.49-1.94-2.18a59.35,59.35,0,0,1-5.09-5.54c-.62-.79-1.13-1.67-1.81-2.41A51.49,51.49,0,0,1,18,167.22a68.44,68.44,0,0,1-3.82-6.15c-1-2-2-4-3.06-5.94-1.34-2.59-2.37-5.31-3.57-8A49.14,49.14,0,0,1,5.29,141a17.47,17.47,0,0,1-.76-3.29,5.44,5.44,0,0,1,0-1.21,8.69,8.69,0,0,0-1.26-6.05A12.67,12.67,0,0,1,1.52,126c-.27-1.64-.6-3.27-.72-4.92S.52,118,.41,116.42A65.74,65.74,0,0,1,0,109c.09-2.5.06-5,.33-7.5.09-.79-.07-1.6,0-2.42.15-1.44.18-2.89.47-4.29.33-1.63.5-3.28.82-4.91.25-1.26.25-2.56.53-3.81.46-2,1-4.08,1.54-6.1.48-1.65.82-3.35,1.42-5A12.76,12.76,0,0,0,6,72.42c.07-.48.5-.91.58-1.45.16-1.15,1-2.06,1.11-3.24,0-.28.36-.53.42-.82A4.54,4.54,0,0,1,9.15,64.5a7,7,0,0,0,1.32-2.38A22.25,22.25,0,0,1,12.31,58c1.29-2.51,2.91-4.83,4.34-7.27A89.11,89.11,0,0,1,22.84,42c1.7-2.25,3.62-4.32,5.44-6.47a85.43,85.43,0,0,1,6.25-6.23c.38-.38.77-.75,1.11-1.16a16.48,16.48,0,0,1,2.24-1.84,108.86,108.86,0,0,1,11.57-8.58c.77-.49,1.48-1.05,2.25-1.53,1.39-.87,2.94-1.44,4.3-2.34a46.31,46.31,0,0,1,6.25-3.25C63.53,10,64.86,9.52,66.17,9c.82-.32,1.54-.83,2.39-1.1,2.32-.74,4.66-1.46,7-2.3A42.68,42.68,0,0,1,81,4c2.54-.56,5.13-.93,7.65-1.55,2.18-.54,4.43-.47,6.6-1a3.48,3.48,0,0,1,1.5.09,8.06,8.06,0,0,0,5-.42,1.46,1.46,0,0,1,.63-.2c1.37.15,2.72-.22,4.1-.07a15.65,15.65,0,0,0,2.26-.09.94.94,0,0,0,.67-.29c.23-.24.56-.27.84-.42.08,0,.3,0,.25.15-.2.64.3.56.55.46a2.29,2.29,0,0,1,1.55.14,3,3,0,0,0,.73.17c2.76.13,5.49.57,8.23.87,2.25.25,4.45.81,6.68,1.12a48.42,48.42,0,0,1,5.88,1.27c2.2.6,4.37,1.36,6.55,2,1.83.57,3.66,1.12,5.43,1.84a23,23,0,0,0,2.13,1,29.65,29.65,0,0,1,5.25,2.25c2,1,4,2.19,6.05,3.25,2.86,1.51,5.51,3.37,8.2,5.15.47.31,1,.54,1.44.88,1.81,1.35,3.51,2.83,5.32,4.19,1.05.79,2.09,1.59,3.07,2.46s2.09,2,3.15,3,2.27,2,3.35,3.13c.64.66,1.18,1.38,1.76,2.08,1.39,1.65,3,3.08,4.32,4.83s2.69,3.71,4.08,5.52c2,2.64,3.65,5.56,5.49,8.33,1.24,1.87,2.08,3.93,3.17,5.88a27.78,27.78,0,0,1,1.83,3.61,4.25,4.25,0,0,1,.28,1.17A7,7,0,0,0,206.5,69a10.74,10.74,0,0,1,1.87,3.75c.8,2.48,1.45,5,2.25,7.48a48.09,48.09,0,0,1,1.55,6.48c.39,2.22.71,4.45,1.07,6.67.2,1.23.45,2.46.58,3.7.2,1.78.17,3.57.25,5.35.06,1.48,0,3,.15,4.43a34.72,34.72,0,0,1-.09,6.53c-.17,2.15-.52,4.3-.62,6.45a58.84,58.84,0,0,1-1.09,7.61,27.71,27.71,0,0,1-.93,3.72,12.22,12.22,0,0,0-.45,2.29,39.69,39.69,0,0,1-1,4.17c-.15.63-.44.63-1.23.13a1.09,1.09,0,0,1,.28-.08c.7,0,.7,0,.4-.58s-.24-.73.31-.92c.28-.1.3-.19.29-.45a3.1,3.1,0,0,1,.31-1.94,1.86,1.86,0,0,0,.16-1.33c-.22-.74,0-1.07.73-1.21-.19-.51-.64-.91-.48-1.36.25-.72.1-1.47.36-2.18a9.75,9.75,0,0,0,.59-4.45,3.2,3.2,0,0,0-.18-.91c-.18-.43-.39-.87-.07-1.34.05-.08,0-.24,0-.36s-.13-.26-.1-.36c.22-.73.38-1.47.54-2.22.08-.34.31-.55,0-.85a.6.6,0,0,1-.06-1c.11-.12.25-.24.19-.41-.27-.7.13-1.52-.4-2.19a.69.69,0,0,1-.05-.64,4.58,4.58,0,0,0,.05-2,2.36,2.36,0,0,1,.28-1.72c.11-.16.17-.43,0-.53-.81-.64-.25-1.47-.29-2.2,0-.43.11-.86-.21-1.24a.38.38,0,0,1-.06-.35c.35-.47.05-.79-.19-1.17s-.68-.86-.26-1.43c0-.06,0-.24,0-.26-.67-.38-.2-.85-.11-1.29.06-.27.15-.58-.09-.8a.44.44,0,0,1-.11-.65c.08-.14.13-.36,0-.43-.51-.29-.38-.64-.18-1a.47.47,0,0,0,.05-.36c-.65-1.29-.37-2.82-1.08-4.09a.45.45,0,0,1,0-.53c.36-.42.15-.74,0-1.18A2.21,2.21,0,0,1,209,90c.13-.4-.34-1-.42-1.47a25.57,25.57,0,0,0-.61-2.89c0-.1.08-.24.12-.36a1,1,0,0,0-.29-1.11,2,2,0,0,1-.57-1.16c0-.12-.08-.23,0-.36s.47-.42.3-.63c-.33-.41-.38-1-.81-1.32a1,1,0,0,1-.5-1.1.8.8,0,0,0-.35-1c-.07,0-.18-.16-.16-.21.21-.75-.47-1.13-.73-1.67a6.93,6.93,0,0,0-.83-1.71c-.05-.07-.14-.16-.13-.24.13-1.08-.74-1.89-.82-2.92a4.67,4.67,0,0,0-.5-1.41,16,16,0,0,0-.51-1.76c-.12-.22-.17-.52-.34-.66a1.69,1.69,0,0,1-.45-1.82c.08-.4.12-.69-.39-.74-.29,0-.42-.18-.51-.46-.21-.67-.86-1.18-.69-2-.61-.55-.42-1.68-1.47-1.95a.91.91,0,0,1-.54-.93.71.71,0,0,0-.38-.82,4.8,4.8,0,0,1-1.06-1.42c-.86-1.29-1.58-2.66-2.5-3.91a1.31,1.31,0,0,1-.27-.77c0-.46-.05-1-.74-.91a.21.21,0,0,1-.24-.23,4.27,4.27,0,0,0-1.55-2.87,2.7,2.7,0,0,1-.53-1c-.16-.44-.21-.91-.79-1.05-.21,0-.3-.3-.29-.55a.87.87,0,0,0-.68-.9,1.42,1.42,0,0,1-.93-.87c-.25-.56-.85-.79-1.26-1.19a9.23,9.23,0,0,0-2.44-1.75c-.06,0-.14,0-.16-.09-.57-1.19-1.84-1.58-2.78-2.33s-1.55-1.69-2.4-2.47c-.53-.48-.94-1.1-1.74-1.17a.32.32,0,0,1-.22-.15c-.41-.95-1.31-1.27-2.14-1.66a9.7,9.7,0,0,0-1.61-.89c-.87-.21-1.58-.79-2.45-1a4.8,4.8,0,0,1-2.14-1.47,3.73,3.73,0,0,0-1.05-.73,6.83,6.83,0,0,1-2.36-1.43c-.27-.29-.74-.36-1.11-.61a13.9,13.9,0,0,0-2.9-1.71,7.16,7.16,0,0,1-2.37-1.77c-.11-.11-.18-.3-.35-.27-.39.07-.57-.09-.67-.46,0-.18-.27-.26-.46-.29a8.07,8.07,0,0,1-2.48-1,13.84,13.84,0,0,1-3.12-1.8c-.07-.06-.19-.14-.25-.12-1,.42-1.46-.58-2.21-.81-.11,0-.21-.19-.33-.14-.64.33-1-.12-1.5-.43a8.85,8.85,0,0,1-2.1-1.22c-.11-.11-.35-.11-.54-.14-.95-.17-1.86-.5-2.79-.74a27.63,27.63,0,0,0-3.76-1.15c-.61-.08-1.14-.48-1.78-.57-1.66-.26-3.25-.83-4.89-1.18a18.78,18.78,0,0,0-4.09-.29c-.48,0-.92-.15-1.38-.18a3,3,0,0,0-1.37,0,.42.42,0,0,1-.52-.09.67.67,0,0,0-.61-.17,1.67,1.67,0,0,1-1.23-.39,2.62,2.62,0,0,0-.5-.26c-.36-.17-.57.72-.93.18a.8.8,0,0,0-.85-.4.63.63,0,0,1-.51-.2c-.07-.06-.2-.16-.23-.14-.62.44-1.35,0-2,.24-.33.15-.52.14-.72-.09a1.22,1.22,0,0,0-1.74-.18c-.28.17-.54.25-.76,0a.93.93,0,0,0-1.12-.2c-.54.3-1-.24-1.52.07a4.13,4.13,0,0,1-1.45.31c-.44.1-.61,0-.69-.43s-.43-.53-.65-.24c-.41.56-1.22.5-1.57,1.12-.11.18-.39.14-.62.07-.68-.21-1.38-.37-2-.61a1.1,1.1,0,0,0-1.21.25,3.78,3.78,0,0,1-2.16,1.21c-.32,0-.61.13-.87-.14s-.39-.18-.6-.26-.59-.09-.72.32-.33.66-.75.59a.78.78,0,0,1-.71-.74c0-.21-.07-.38-.3-.4s-.35.14-.43.38c-.21.62-.23.61-1,.22-.2.31,0,1-.79.8-.62-.14-.63-.48-.54-.91a.59.59,0,0,0-.59-.06,3.77,3.77,0,0,1-2.19.37c-.54,0-.59.15-.29.6,0,.06.1.09.13.14s.18.26,0,.4a.24.24,0,0,1-.33,0,2.81,2.81,0,0,0-.91-.47.86.86,0,0,0-.89.09C89.3,14.62,89.24,14.62,89.17,14.53Z"/><path class="cls-1" d="M165.3,138.55a21.94,21.94,0,0,0,2.26-4.74,4.08,4.08,0,0,1,.61-1.17,12.81,12.81,0,0,0,1.78-3.59c.91-3.11,2-6.19,2.62-9.38a36.79,36.79,0,0,0,1-5.43c.08-1.36.16-2.72.23-4.08.08-1.78.32-3.55.34-5.64a18.22,18.22,0,0,0-.17-2.89,28.81,28.81,0,0,0-.23-3.09c-.35-2.1-.48-4.22-.67-6.33a11.66,11.66,0,0,0-1.16-4.59,14.54,14.54,0,0,1-1.6-4.87,8.41,8.41,0,0,0-1.69-4.32,5.07,5.07,0,0,1-1-1.79,12.12,12.12,0,0,0-2.3-4.59,4.85,4.85,0,0,1-.61-1.15,15.42,15.42,0,0,0-.85-1.67A32.27,32.27,0,0,1,161.78,66a6.61,6.61,0,0,0-1.18-1.68L159.43,63a61.67,61.67,0,0,0-4.89-5.46,23.32,23.32,0,0,1-1.84-1.88,8.76,8.76,0,0,0-1.3-1.21c-1.41-1.09-2.85-2.15-4.23-3.28a14.33,14.33,0,0,0-2.55-1.9A16.25,16.25,0,0,1,142,47.59a11.6,11.6,0,0,0-2.29-1.44,17.71,17.71,0,0,1-2.85-1.61,6.74,6.74,0,0,0-1.79-.81,13.68,13.68,0,0,1-2.88-1.13,16.46,16.46,0,0,0-3.95-1.46q-2.78-.72-5.52-1.48c-1.72-.47-3.44-.91-5.21-1.22a36.47,36.47,0,0,0-6.09-.33,7,7,0,0,1-1,0,20.15,20.15,0,0,0-3.38-.12c-1.12,0-2.26.08-3.38.13a33.13,33.13,0,0,0-6.66,1c-2.36.6-4.72,1.17-7.1,1.68a8.05,8.05,0,0,0-3.56,1.37A6.78,6.78,0,0,1,83,43.4a5.87,5.87,0,0,0-2.74,1.1,11.74,11.74,0,0,1-3.34,1.85,5.75,5.75,0,0,0-2,1.19,9.17,9.17,0,0,1-2.52,1.79,7.66,7.66,0,0,0-2.15,1.49A11.45,11.45,0,0,1,68,52.47a5.21,5.21,0,0,0-.91.65c-1.58,1.47-3.22,2.88-4.7,4.45-.58.62-1.15,1.25-1.77,1.82a7.7,7.7,0,0,0-1.45,1.72,15,15,0,0,1-3,3.71,3.25,3.25,0,0,0-.81,1,47.15,47.15,0,0,1-3.58,6.05,27.86,27.86,0,0,0-3.59,7.3,30.78,30.78,0,0,1-1.68,4.17,9.15,9.15,0,0,0-.71,1.93c-.29,1.28-.49,2.58-.79,3.86-.53,2.28-1.16,4.52-1.51,6.85a51.06,51.06,0,0,0-.8,9.07c0,1.19.17,2.37.24,3.56s.07,2.45.24,3.65c.45,3.09,1.1,6.15,1.77,9.2a32.32,32.32,0,0,0,1.74,5.73,29.84,29.84,0,0,1,1,3.12,6.92,6.92,0,0,0,1,2.3A24.17,24.17,0,0,1,51.87,139a4,4,0,0,0,1,1.47,4.65,4.65,0,0,1,1.08,1.18c.7,1.41.34,2-1.13,2.17a8.14,8.14,0,0,1-2.14-.16,11,11,0,0,0-5.74.43,2.47,2.47,0,0,0-1.83,2,4.15,4.15,0,0,0,.89,3.26,2.37,2.37,0,0,0,1.14.77,6.31,6.31,0,0,0,2.79.23,12.79,12.79,0,0,1,3.66.09,13.22,13.22,0,0,0,5.5-.21,12,12,0,0,1,4.19-.06,16.41,16.41,0,0,0,2.33.22c2.64,0,5.28,0,7.91,0a17.19,17.19,0,0,0,1.77.09,21.21,21.21,0,0,1,4.14,0,39.3,39.3,0,0,0,5.09,0c1.49-.06,3-.32,4.49-.3,2.79,0,5.59,0,8.38.09,5.57.15,11.14.09,16.7.11a20,20,0,0,0,2.45-.09,38.3,38.3,0,0,1,4.79-.21c1.5,0,3,.09,4.49.08,2.77,0,5.54,0,8.3-.09a9.49,9.49,0,0,1,1.77.18,17.33,17.33,0,0,0,5.61.26,16.94,16.94,0,0,1,4.21,0,9.24,9.24,0,0,0,3.19,0,9,9,0,0,1,2.2-.07c.54,0,1.1,0,1.65,0a22.16,22.16,0,0,0,4.31,0,27.22,27.22,0,0,1,3.92-.29c2.35.11,4.7.22,7.06.2l.37,0A13.25,13.25,0,0,0,171,150a3.72,3.72,0,0,0,2.67-2.19,2.17,2.17,0,0,0-.78-3.17,5.76,5.76,0,0,0-3.63-1.06c-1.57,0-3.14,0-4.71.1a3.49,3.49,0,0,1-1.2-.22.9.9,0,0,1-.62-.84,1.81,1.81,0,0,1,.69-1.67A8.44,8.44,0,0,0,165.3,138.55Zm-28.51-2.65a5,5,0,0,1-1.52,1.52c-1.05.74-2.13,1.44-3.13,2.26a4.24,4.24,0,0,1-1.76.88,8.13,8.13,0,0,1-1.28.28,15.55,15.55,0,0,0-4.35,1.16,19.55,19.55,0,0,1-5.71,1.12c-2.51.14-5,.23-7.53.39a57.21,57.21,0,0,1-8.28,0c-2-.16-3.94-.31-5.91-.49A21.1,21.1,0,0,1,92,141.8a41.58,41.58,0,0,0-4.64-1.2,6.19,6.19,0,0,1-2.23-1A22.23,22.23,0,0,0,82.39,138a7.13,7.13,0,0,1-2.94-3.09,2.33,2.33,0,0,1-.17-1.83c.2-.62.34-1.27.51-1.9A3.93,3.93,0,0,1,81,129.12a26.71,26.71,0,0,0,2.68-2.64,11.28,11.28,0,0,1,4.41-2.79c1.7-.65,3.47-1.1,5.2-1.66a26.26,26.26,0,0,1,8-1c2.41.13,5.13.26,7.85.53a72.81,72.81,0,0,1,9.84,1.59,23.67,23.67,0,0,1,4.59,1.63,19.6,19.6,0,0,0,5.27,2,7.52,7.52,0,0,1,2.8,1.29c1.52,1,2.93,2.16,4.35,3.3C137.73,132.74,137.81,134.13,136.79,135.9ZM102.61,88.42a5.62,5.62,0,0,1,2,.08,37.37,37.37,0,0,0,6.23,1,17.52,17.52,0,0,1,2.49.43c1.52.3,3.07.16,4.59.36a6,6,0,0,1,2.84.88,2.6,2.6,0,0,1,.69.63,1.2,1.2,0,0,1-.35,1.92,10.27,10.27,0,0,1-4.94,1.65,62.82,62.82,0,0,0-6.28.54,6,6,0,0,1-1.12,0,8.86,8.86,0,0,1-3.17-.39,16.36,16.36,0,0,0-3.27-.35,14.44,14.44,0,0,1-6.19-1.73A1.87,1.87,0,0,1,95,91.68,1.83,1.83,0,0,1,96.15,90a4.79,4.79,0,0,1,1.13-.46A54.31,54.31,0,0,1,102.61,88.42Zm-7.53,15.82a16.37,16.37,0,0,1,4.23-.84,16.53,16.53,0,0,0,3.63-.5,15.9,15.9,0,0,1,6.33-.38,5,5,0,0,0,2.23-.25,5.86,5.86,0,0,1,4,0,15.05,15.05,0,0,0,4.71.83A12.38,12.38,0,0,1,124,104c2.07.7,3.73,2,5.55,3.13,1.65,1,1.17,4.12-.52,4.81a19,19,0,0,1-4.22,1.27c-2.14.35-4.23.93-6.37,1.24-2.71.39-5.44.45-7.19.54-3.56.05-6.12-.22-8.7-.3-1.54,0-3.06-.19-4.59-.39-1.21-.15-2.42-.34-3.63-.48A14.27,14.27,0,0,1,90,112.4c-.54-.25-1.07-.52-1.6-.8-1.45-.8-1.6-3.34-.1-4C90.57,106.55,92.65,105,95.08,104.24Zm66.82,26.37c-.91,2-1.92,3.95-2.87,5.93a8.82,8.82,0,0,1-1.49,2.05,7.34,7.34,0,0,0-1.38,2.11,4.44,4.44,0,0,1-3.19,2.69,6.36,6.36,0,0,1-2.42.21c-.52-.07-1.06.08-1.59.06-1.39,0-2.76-.16-4.15-.2-1,0-1.95,0-2.92,0a9.3,9.3,0,0,1-1.59-.11c-.57-.08-.68-.24-.64-.83a2.34,2.34,0,0,1,.73-1.38,17.25,17.25,0,0,1,2.39-2.13,3.87,3.87,0,0,0,1.39-2.17,10.17,10.17,0,0,0,.23-4.46,4.82,4.82,0,0,0-1.23-2.39,23.49,23.49,0,0,1-2.31-2.86,9.6,9.6,0,0,0-2.71-2.45c-1-.67-2.07-1.31-3.09-2a17.71,17.71,0,0,0-4.32-1.83c-.35-.12-.71-.24-1.05-.39a1.07,1.07,0,0,1-.68-1.12c0-.56.36-.76.77-.95a5.33,5.33,0,0,1,1-.35,8,8,0,0,0,4.45-3c.28-.34.56-.67.86-1a4.67,4.67,0,0,0,1.3-3.24,16.15,16.15,0,0,0-.61-4.93,3.53,3.53,0,0,0-1-1.69,26.33,26.33,0,0,0-4.23-3.43c-.8-.43-1.59-.89-2.37-1.36-.35-.21-.65-.49-1-.7-.84-.52-1-1.22-.29-2.25a5.09,5.09,0,0,1,.67-.79,4.64,4.64,0,0,0,.73-5.33,6.51,6.51,0,0,0-2.73-2.91c-.63-.35-1.23-.75-1.88-1.07a7.33,7.33,0,0,1-1.25-.83c-1.07-.83-1.36-1.63-.73-2.79a4.07,4.07,0,0,0,0-3.78,8.42,8.42,0,0,0-3.1-3.94,27.86,27.86,0,0,0-4.23-2.62,14.92,14.92,0,0,0-7.17-1.13,5.51,5.51,0,0,1-1.4-.1,8.87,8.87,0,0,0-5,.8,25.26,25.26,0,0,0-5,2.81,5.6,5.6,0,0,0-2.39,4.29,31.93,31.93,0,0,0-.32,3.38,2,2,0,0,1-1.06,1.87c-.65.37-1.31.75-1.93,1.17a7.39,7.39,0,0,0-3.41,5.77,7.73,7.73,0,0,0,.56,3.32A2.94,2.94,0,0,0,89.41,96a15.35,15.35,0,0,1,1.46,1.18c.85.79.79,1.47-.22,2s-2.31,1.11-3.47,1.67a16.46,16.46,0,0,0-2.1,1.05,13.09,13.09,0,0,0-3.86,4c-.27.43-.5.87-.76,1.3a4.44,4.44,0,0,0-.22,4.48,10.51,10.51,0,0,0,2.88,3.66c.49.39,1,.81,1.43,1.23a1.08,1.08,0,0,1-.15,1.91,3.59,3.59,0,0,1-.73.43,19.86,19.86,0,0,0-5.58,4,21.5,21.5,0,0,0-4.16,5.21,6.49,6.49,0,0,0-.69,2,11.68,11.68,0,0,0-.49,4.74,17.05,17.05,0,0,0,1.06,3.41,5.43,5.43,0,0,0,1.72,2.09,9.39,9.39,0,0,1,1.83,1.61c.26.33.66.68.46,1.16s-.74.56-1.21.58a16.36,16.36,0,0,1-2,0,78.16,78.16,0,0,0-8.1,0,11,11,0,0,1-2.62-.25,3.35,3.35,0,0,1-2.37-1.71,14.88,14.88,0,0,0-2.32-3.3,4,4,0,0,1-.74-1.3A12.6,12.6,0,0,0,57,134.38c-.78-1.13-1.06-2.49-1.74-3.66a29,29,0,0,1-2.65-7.22,31.06,31.06,0,0,0-1.05-3.31,22.19,22.19,0,0,1-1.08-5A32.94,32.94,0,0,1,50,111c-.07-2.89-.37-5.77-.19-8.67s.67-5.67.74-8.53a8.81,8.81,0,0,1,.68-2.92A30.58,30.58,0,0,0,53,85.08a12.55,12.55,0,0,1,1.63-4.29,9.23,9.23,0,0,0,1-2.24c.14-.48.36-.94.48-1.42a4.13,4.13,0,0,1,1.59-2.38A3,3,0,0,0,58.8,73a4.9,4.9,0,0,1,1.57-2.72,5.92,5.92,0,0,0,1.23-1.77,5.29,5.29,0,0,1,1.53-1.89,4.11,4.11,0,0,0,1.19-1.45,5.21,5.21,0,0,1,1.91-2,4.8,4.8,0,0,0,1.62-1.67A6.76,6.76,0,0,1,70,59.12a20.63,20.63,0,0,0,3-2.47,20.83,20.83,0,0,1,6.9-4.34,20.24,20.24,0,0,0,3.19-1.6,23.46,23.46,0,0,1,4.71-2.33,19.27,19.27,0,0,1,2.48-.55,4.4,4.4,0,0,0,1.66-.63,9.15,9.15,0,0,1,3.87-1.38c1.28-.16,2.56-.29,3.84-.41a61.56,61.56,0,0,1,7-.51h2.45V45h4.42a48.3,48.3,0,0,1,5.52.63c1.06.12,2.12.3,3.17.47a6.89,6.89,0,0,1,2.31.75,14.18,14.18,0,0,0,5.06,1.67,5.14,5.14,0,0,1,2.79,1.26c1,.91,2.34,1.19,3.51,1.79.22.11.46.2.68.32,1.47.85,3,1.57,4.42,2.49a23.32,23.32,0,0,1,5.32,4.33,11,11,0,0,0,2,1.85A10.59,10.59,0,0,1,150.81,63a8.68,8.68,0,0,0,1.81,1.77,10.46,10.46,0,0,1,1.4,1.5A62.82,62.82,0,0,1,158,72a.22.22,0,0,1,0,.08c.93,2.58,2.69,4.73,3.79,7.23a64.46,64.46,0,0,1,2.69,6.22c.49,1.56.74,3.18,1.14,4.76.57,2.25.64,4.59,1.13,6.86a35.72,35.72,0,0,1,.78,4.92,37,37,0,0,1-.16,6.49c-.11,1.16-.12,2.32-.26,3.48a19.8,19.8,0,0,1-.68,3.41,30.86,30.86,0,0,0-1.25,5.78,13.57,13.57,0,0,1-1.38,4.76C163.07,127.48,162.59,129.1,161.9,130.61Z"/><path class="cls-1" d="M123.65,162.42c-1.92,0-3.84.06-5.76,0-2.2-.09-4.4,0-6.6-.06-1.22,0-2.45.08-3.67.07-2.46,0-4.91-.08-7.36-.06a28.34,28.34,0,0,1-4.42,0,5.12,5.12,0,0,1-3.3-1.41c-.09-.09-.21-.16-.26-.27-.27-.48-.71-1-.53-1.54a3,3,0,0,1,1.41-2,10.57,10.57,0,0,1,3.52-.94,110.47,110.47,0,0,1,12.34-.2c2.51,0,5,0,7.53,0,2.84,0,5.69-.33,8.54-.17s5.54,0,8.29.14c2.9.18,5.77-.29,8.66-.16a10,10,0,0,1,1.21.09,19.5,19.5,0,0,0,4.32,0,28.26,28.26,0,0,1,4.78,0,5.55,5.55,0,0,0,1.22,0,7.34,7.34,0,0,1,3,0,5.47,5.47,0,0,1,3,2.57,2.33,2.33,0,0,1-1,3.31,4.77,4.77,0,0,1-3.39.68,21.22,21.22,0,0,0-4.58-.15c-2.23.14-4.47,0-6.7,0-1.6,0-3.2.12-4.79.15a17.69,17.69,0,0,1-3.56-.2,11.23,11.23,0,0,0-3.92-.08,22.48,22.48,0,0,1-3.28.2Z"/><path class="cls-1" d="M114.37,174.62c-1.16,0-2.32,0-3.48,0-1.94.05-3.88.19-5.83.19s-3.63-.19-5.44-.18c-1.6,0-3.21.11-4.81.05s-3.2-.1-4.8-.06c-3,.08-5.91,0-8.87.1-.9,0-1.81.14-2.71.16a14.16,14.16,0,0,1-5-.52,3.11,3.11,0,0,1-2.11-3,3.19,3.19,0,0,1,2.08-3A8.16,8.16,0,0,1,77,168.1a42.71,42.71,0,0,0,4.8.07c.93,0,1.86.11,2.79.11,2.8,0,5.6.11,8.39-.11,2.23-.17,4.44.1,6.66.1,1.22,0,2.45,0,3.67-.08,1.67-.07,3.32.32,5,.2,2.09-.14,4.19-.12,6.28-.29,1.88-.16,3.34.21,4.26,2.17a2.76,2.76,0,0,1-1.69,4.12A5.86,5.86,0,0,1,114.37,174.62Z"/><path class="cls-1" d="M141.1,174.94c-1.28,0-2.29-.25-3.33-.24-1.72,0-3.45,0-5.17,0a5.59,5.59,0,0,1-2.51-.67,3,3,0,0,1-1.61-3.3,3.07,3.07,0,0,1,2.63-2.46,7.15,7.15,0,0,1,1-.08c2.42,0,4.84,0,7.26,0a18,18,0,0,1,4.73.58,3,3,0,0,1,2,1.39,1.91,1.91,0,0,1,.16,1.53,4.41,4.41,0,0,1-3.15,3A11.89,11.89,0,0,1,141.1,174.94Z"/><path class="cls-1" d="M65.16,155.78a24.48,24.48,0,0,1,5.78.37,5.79,5.79,0,0,1,2.2.78,2.73,2.73,0,0,1,.93,3.43A2.85,2.85,0,0,1,72.32,162a12.37,12.37,0,0,1-3.62.46c-1.35.08-2.7.08-4,.1a15,15,0,0,1-5.82-.88,4,4,0,0,1-1.18-.75,2.08,2.08,0,0,1-.36-2.94A4.09,4.09,0,0,1,60,156.12,29.94,29.94,0,0,1,65.16,155.78Z"/></svg>