<svg id="Layer_1" data-name="Layer 1" xmlns="http://www.w3.org/2000/svg" viewBox="0 0 214.37 214.91"><defs><style>.cls-1{fill:#ff7171;}</style></defs><path class="cls-1" d="M208.83,137.79c.21-.18.36,0,.51-.07s.43-.18.25-.52c-.37-.66-.36-.68.28-1.06.16-.1.26-.22.19-.37-.19-.4.14-.81,0-1.2a.32.32,0,0,1,0-.27,2.92,2.92,0,0,0,.38-2.37c-.08-.5.41-.54.73-.7.13-.26-.11-.4-.19-.58a1.26,1.26,0,0,1-.2-.91c.31-.91.2-1.89.57-2.8a9.05,9.05,0,0,0,.38-4,2.79,2.79,0,0,0-.22-.71c-.13-.39-.32-.77-.05-1.17a.48.48,0,0,0,0-.45,2.47,2.47,0,0,1-.11-.36c-.11-.52.46-.76.5-1.17s-.35-.76.1-1.12c.28-.23.23-.48,0-.71a.65.65,0,0,1-.09-1c.08-.09.2-.24.17-.31-.27-.69.12-1.47-.32-2.12a.9.9,0,0,1-.12-.81,4.43,4.43,0,0,0,0-2,2.53,2.53,0,0,1,.29-1.82c.11-.19.17-.46-.06-.6-.39-.23-.31-.58-.3-.91a11.16,11.16,0,0,1,.11-1.41,1,1,0,0,0-.15-.89c-.12-.16-.24-.35-.12-.51.37-.49,0-.8-.22-1.17s-.68-.79-.26-1.35a.3.3,0,0,0-.07-.42c-.53-.27-.23-.59-.12-.94s.31-.78-.1-1.13a.34.34,0,0,1,0-.5c0-.08.11-.23.08-.26-.57-.5-.11-1.16-.25-1.65s-.2-1.23-.4-1.8c-.28-.79-.12-1.69-.68-2.39a.29.29,0,0,1,0-.27c.5-.54.16-1-.07-1.52a2.18,2.18,0,0,1-.2-1.53c.11-.39-.25-.92-.4-1.39,0,0-.06-.05-.06-.08.07-1.17-.74-2.23-.42-3.44a.8.8,0,0,0-.28-.84A1.81,1.81,0,0,1,207.3,83c0-.13-.1-.28-.05-.36.23-.37.58-.68,0-1.11-.33-.26-.19-.84-.7-1s-.4-.6-.33-1,.06-.68-.31-.9c-.07,0-.19-.15-.18-.2.21-.79-.49-1.2-.76-1.76a7.26,7.26,0,0,0-.91-1.8.59.59,0,0,1-.07-.45,1.22,1.22,0,0,0-.37-1.11,1,1,0,0,1-.18-.53,15.68,15.68,0,0,0-.76-2.41c-.21-.56-.26-1.19-.52-1.75-.1-.2-.14-.46-.29-.59a1.72,1.72,0,0,1-.46-1.89c.11-.44,0-.66-.45-.72-.12,0-.31-.06-.33-.13-.14-.57-.74-1-.73-1.49,0-.8-.59-1.3-.7-2a.84.84,0,0,0-.58-.58,1.17,1.17,0,0,1-.79-1.32.4.4,0,0,0-.21-.47c-.7-.35-.92-1.09-1.3-1.67-.21-.33-.45-.66-.68-1a23.92,23.92,0,0,0-1.86-2.91.81.81,0,0,1-.19-.6c0-.47,0-1-.72-.95-.17,0-.27-.14-.27-.32a3.94,3.94,0,0,0-1.39-2.65,3.3,3.3,0,0,1-.68-1.11c-.16-.47-.22-1-.84-1.12-.16,0-.26-.26-.25-.47,0-.58-.35-.84-.82-1a1,1,0,0,1-.54-.36,11.38,11.38,0,0,0-3.9-3.36c-.11-.06-.31-.12-.31-.19,0-.9-1-.89-1.42-1.34a20.08,20.08,0,0,0-1.63-1.25,4.46,4.46,0,0,1-.92-.92,15.52,15.52,0,0,0-2.2-2.24c-.13-.12-.3-.07-.45-.1s-.42-.07-.46-.27c-.12-.65-.72-.88-1.15-1.12a16.24,16.24,0,0,0-2.7-1.42c-.83-.26-1.53-.77-2.38-1a4.44,4.44,0,0,1-2.06-1.43,3.3,3.3,0,0,0-1-.75,7.2,7.2,0,0,1-2.37-1.42c-.26-.28-.74-.37-1.1-.62a15.44,15.44,0,0,0-3-1.74,5.64,5.64,0,0,1-2.26-1.76c-.3-.34-.7-.07-.88-.36s-.26-.59-.61-.64a7.53,7.53,0,0,1-2.4-1l-2.22-1.14a3.12,3.12,0,0,1-.78-.52c-.11-.1-.29-.29-.37-.25-.74.29-1.2-.29-1.76-.55a2.09,2.09,0,0,0-1.55-.39.22.22,0,0,1-.18,0c-.66-.72-1.71-.76-2.4-1.42a1.59,1.59,0,0,0-.91-.44,22.59,22.59,0,0,1-2.72-.7c-1.34-.33-2.61-.86-3.93-1.25-1.13-.34-2.29-.52-3.42-.87a32.77,32.77,0,0,0-3.83-.89,23.78,23.78,0,0,0-3.76-.17,9.7,9.7,0,0,1-1.29-.23c-.12,0-.25-.11-.36-.09a3,3,0,0,1-1.67-.09,5.73,5.73,0,0,1-1.65-.55.4.4,0,0,0-.26-.11c-.4.06-.78.59-1.21-.12-.17-.27-.9-.06-1.28-.42a.27.27,0,0,0-.35,0,1,1,0,0,1-1.07.08.5.5,0,0,0-.53.07.5.5,0,0,1-.8-.09c-.49-.7-1.11-.47-1.65-.18-.37.2-.64.24-.91-.07s-.5-.15-.78-.15l-.45,0a15.42,15.42,0,0,0-3,.46c-.29,0-.34-.18-.41-.4-.2-.64-.31-.69-.77-.22s-1.17.43-1.53,1c-.1.17-.37.07-.6,0a7.26,7.26,0,0,1-1.52-.48,1.73,1.73,0,0,0-2.12.49,2.9,2.9,0,0,1-1.62.82c-.38.1-.73.19-1-.15-.11-.13-.29-.11-.43-.17-.39-.17-.71-.22-.86.32a.65.65,0,0,1-.76.55.75.75,0,0,1-.67-.77.36.36,0,0,0-.31-.4c-.19,0-.32.13-.41.32-.29.64-.3.64-.94.38-.27.76-.54.93-1.09.65-.18-.09-.4-.2-.3-.49s-.14-.41-.41-.41a.57.57,0,0,0-.27.06,3.26,3.26,0,0,1-2,.34c-.18,0-.39-.06-.5.14s.08.34.19.48l.13.14a.23.23,0,0,1,0,.33.24.24,0,0,1-.34,0A2.38,2.38,0,0,0,90,14.37a.52.52,0,0,0-.6.16c-.19.29.22.3.29.49s0,.11.09.27a3.1,3.1,0,0,0-1.33.42,1.22,1.22,0,0,1-.92,0,.18.18,0,0,1-.05-.25,1,1,0,0,1,.87-.45h.1c.28,0,.74.25.72-.25,0-.34-.47-.17-.72-.17a8,8,0,0,0-1.72.43.24.24,0,0,0-.16.37c.18.29.12.5-.19.56s-.63.06-.66-.32-.36-.42-.67-.38c-.12,0-.24.1-.36.09a2.07,2.07,0,0,0-2.07,1.17.72.72,0,0,1-1.13.18,1.32,1.32,0,0,0-1.44-.08,3.71,3.71,0,0,1-1.88.51.28.28,0,0,0-.32.27c0,.19.18.25.34.26h.38c.17,0,.41-.12.44.17s-.19.3-.33.42-.41.06-.62,0a4.09,4.09,0,0,0-2.73.4.91.91,0,0,1-1.18-.16c.06-.4.55-.4.67-.74-.2-.26-.42-.14-.56,0a6.11,6.11,0,0,1-1.07.76c-.22.13-.25.31-.28.55-.1.79-.54,1-1.21.53a1.66,1.66,0,0,1-.14-.13c-.27-.2-.43-.19-.46.21,0,.6,0,.61-.62.3-.18-.09-.31-.09-.37.09-.2.58-.81.77-1.15,1.22a.72.72,0,0,1-.67.28,4.32,4.32,0,0,0-2.46.91.87.87,0,0,1-.68.13,2.34,2.34,0,0,0-2.35.93c.08.32.43.3.52.49a.25.25,0,0,1-.15.26c-.34.16-.76.05-1.07.31-.11.08-.22,0-.34-.05-.87-.46-.88-.45-1.21.44,0,.06-.08.1-.13.17-.24-.09-.4-.42-.71-.27a4.29,4.29,0,0,0-1.06.56c-.2.16-.11.41.2.45.13,0,.28,0,.27.19s-.26.34-.45.43-.21,0-.29-.14c-.35-.47-.72-.49-1.12,0-.2.25-.32.42-.66.22a.29.29,0,0,0-.4.14c-.27.54-.85.68-1.3.86a3.15,3.15,0,0,0-1.22,1c-.41.48-.81,1-1.56.81a.39.39,0,0,0-.46.24c-.27.54-.85.73-1.22,1.12-1,1.13-2.5,1.59-3.66,2.52-.85.68-1.58,1.5-2.47,2.08S42.93,36.56,42.17,37c-1,.57-1.59,1.5-2.54,2.05-.22.13-.42.34-.66.49-.49.3-1.08.54-1.22,1.21,0,.08-.08.2-.15.22a5.08,5.08,0,0,0-1.87,1.47A15.24,15.24,0,0,1,34,44.32c-.75.53-1,1.57-1.89,1.86,0,0-.14.09-.14.12.09.85-.9,1.06-1.07,1.79a.81.81,0,0,1-.73.52.86.86,0,0,0-.69.43,5,5,0,0,1-1.14,1.64c-.95.67-1,1.89-1.8,2.65,0,0-.05.14-.1.16-1.08.45-.93,1.66-1.49,2.4s-.31,1.09-.11,1.76A8,8,0,0,1,25,61c-.28,0-.34-.17-.32-.33A1.07,1.07,0,0,0,24,59.41a.54.54,0,0,1-.29-.35c.14-.16.29,0,.43,0,.36.06.53-.12.51-.47a4.64,4.64,0,0,0-.13-.92c-.07-.27-.48-.34-.58-.09-.35.83-1.26,1.3-1.4,2.27-.05.34-.38.56-.6.83s-.29.55.19.56.49.23.45.55c-.07.63.23,1.31-.34,1.87-.22.22-.09.53.07.79s.39.41.27.73c-.29.11-.33-.11-.42-.26-.3-.52-.6-1-.91-1.54-.2-.32-.46-.32-.62,0s-.18.73-.56.92a.19.19,0,0,0,0,.32c.69.32,0,1.1.51,1.47,0,0,0,.14,0,.17-.54.66-.72,1.52-1.25,2.18-.15.18-.29.15-.48.16-.58,0-.78.32-.43.71a.76.76,0,0,1,0,1.09c-.26.35-.33.82-.71,1.1a.36.36,0,0,0-.13.24,2.17,2.17,0,0,1-.65,1.67c-.25.3.31.54.09.91s-.53-.34-.69,0,.18.55.39.77c.43.46.44.58-.15.76s-.8.78-1.25,1.11c-.18.13,0,.34,0,.52.11.51.56,1-.08,1.52a18.42,18.42,0,0,1-.4,2.56,3.81,3.81,0,0,1-.5,1.88c-.3.53-.17.72.49.91s.63.43.23.77a1.13,1.13,0,0,0-.44,1.23.88.88,0,0,1-.29.94c-.34.27-.21.5,0,.77.46.51.44.52-.08.92a.74.74,0,0,0,0,1.1c.48.28.62.52.18,1s0,.77.2,1a1.36,1.36,0,0,1,.23,1.4c0,.11-.11.28-.07.35.47.64,0,1.18-.15,1.76a4.57,4.57,0,0,0-.33,1.55,1,1,0,0,1-.19.8.38.38,0,0,0,0,.51c.46.84,0,1.57-.36,2.27-.16.36-.4.62-.13,1,0,0,.11.14.09.16-.49.68,0,1.5-.32,2.21a2.8,2.8,0,0,0-.08,1.44,5.84,5.84,0,0,1,0,2,2.19,2.19,0,0,0,0,1.72c.09.15,0,.3,0,.45a4.07,4.07,0,0,0,.07,1.39,14.11,14.11,0,0,0,.6,2.32c.14.44-.11.91-.17,1.37-.07.62-.5,1.27.16,1.82a.1.1,0,0,1,0,.09c-.41.59-.14,1.45-.78,2-.19.15-.51.27-.42.57a.91.91,0,0,0,.77.62c.14,0,.3-.13.44.07-.1.21-.2.44-.31.66s-.15.22-.14.23c.57.44.19,1.26.64,1.71.25.25.33.45.19.73a.5.5,0,0,0,.19.71c.52.4.51.42.14.92-.2.26-.47.5.07.69a.27.27,0,0,1,.16.2c.1.68.49.5.88.3l.39-.22c.26.22.09.35-.06.46a3.38,3.38,0,0,1-.41.24c-1,.51-1,.51-.8,1.66a.38.38,0,0,1-.15.4c-.13.1-.28.29-.18.38.69.61,0,1.37.24,2,.09.23.17.48.26.73.21.58.77,1,.84,1.63.05.47.54.3.88.4-.27.48-.76.93-.19,1.5.09.09.07.32,0,.34-.7.2-.3.64-.29,1s.09.79.55.94c0,0,.05.05.07.07.35.24-.18.6.12.84s.52.2.54.58a26.23,26.23,0,0,0,.76,2.58,13.55,13.55,0,0,1,.65,2.58.63.63,0,0,0,.06.27,7.14,7.14,0,0,1,.72,2.58,1.69,1.69,0,0,0,.72,1.63c.13.08.11.29.11.45s0,.34.1.44c.91.68,1.12,1.82,1.8,2.64.34.42.51,1,1,1.29a.62.62,0,0,1,.31.46,3.93,3.93,0,0,0,.65,1.35,8.4,8.4,0,0,1,.87,2.46,4.93,4.93,0,0,0,.5,1.18,28.78,28.78,0,0,1,1.48,3,11.45,11.45,0,0,0,.74,1.08,16.43,16.43,0,0,0,1.72,2.43c.58.68.87,1.61,1.66,2.16.06,0,.07.17.1.26a3.92,3.92,0,0,0,1,1.75.41.41,0,0,1,.17.22c.29,1,1.19,1.65,1.55,2.61a1,1,0,0,0,.4.51,1,1,0,0,1,.44.47c.44,1.27,1.72,1.85,2.39,2.92.54.87,1.45,1.44,1.89,2.38.06.14.16.32.28.36.45.15.51.45.48.87a.89.89,0,0,0,.35.64c.34.36.78.65.9,1.18.08.36.65.16.66.57s.08.54.41.65a.37.37,0,0,1,.23.38c0,.35.21.49.52.56a.58.58,0,0,1,.31.2c.47.5.72,1.13,1.42,1.51a9.26,9.26,0,0,1,1.56,1.47c.44.41,1,.75,1.39,1.17s1.52.59,1.45,1.61a.27.27,0,0,0,.33.26c.69-.13,1,.45,1.41.8.22.19.32.49.7.52s.19.41.26.62.25.59.66.46.56.05.58.46a.7.7,0,0,0,.59.65,3,3,0,0,1,1.25.63c.45.36,1,0,1.34.22s.43.75.78,1a.48.48,0,0,0,.45,0c.17,0,.36,0,.44.1a2.26,2.26,0,0,0,1.56.74,3,3,0,0,1,1.4.73,23.5,23.5,0,0,0,3.27,2.22c.38.26.83.33,1.17.78a2.23,2.23,0,0,0,1.34.56s.08,0,.09,0c.56.86,1.57,1,2.38,1.43.35.2.58.54,1,.71a11.91,11.91,0,0,0,3,1.21,17.33,17.33,0,0,1,2.49,1c.14,0,.29.26.41.17.59-.43,1,.1,1.41.31a6.68,6.68,0,0,0,1.6.48,6.11,6.11,0,0,1,2.47,1.06,8,8,0,0,0,6.37,1.72,3.51,3.51,0,0,1,1.12,0,8.08,8.08,0,0,0,3.1,0,13.92,13.92,0,0,1,3.09.19c.32,0,.7.22,1.1.22s.53.09.63-.32c.06-.21.39-.17.47,0,.29.53.8.4,1.24.46s.82,0,1.22,0a4.27,4.27,0,0,1,2.46.35c.4.25.91,0,1.38.06a.88.88,0,0,1,.66.21.9.9,0,0,0,1.26,0c.24-.21.36-.19.64-.08a2,2,0,0,0,1.53.19.31.31,0,0,1,.19,0c1.06.45,2.16-.17,3.22.13.78-.62,1.84.07,2.63-.55.2-.16.41,0,.62.05a4.14,4.14,0,0,0,2.58,0,.66.66,0,0,1,.46,0,.75.75,0,0,0,1.07-.23.5.5,0,0,1,.68-.1.65.65,0,0,0,.64.06,2.21,2.21,0,0,1,2-.11,2.06,2.06,0,0,0,1.38-.14,4.82,4.82,0,0,1,3.26-.24,1.66,1.66,0,0,0,1.51-.53c.28-.3.49-.44.84-.11a.86.86,0,0,0,.9.11,6.1,6.1,0,0,1,2.78-.18c.15,0,.36,0,.45,0,.73-.63,1.67-.36,2.47-.63a4.06,4.06,0,0,1,2.09-.32c.11,0,.24-.1.36-.1.74,0,1.13-.73,1.83-.81.07,0,.15-.12.17-.2.06-.24.07-.51.36-.61s.45.18.69.25.76.3,1.14.43.68.07.64-.16c-.11-.65.35-.49.65-.59s.5.07.54-.24-.13-.39-.38-.45-.26-.31-.15-.51a1,1,0,0,1,1.39-.28,2.84,2.84,0,0,0,1.08.28.55.55,0,0,0,.44-.07c.22-.18.36-.44.64-.53s.51,0,.67-.28c0-.11-.08-.15-.15-.2s-.42-.14-.3-.38.3-.14.46,0,.17.12.26.05c.39-.35.75-.09,1.12.06a1.56,1.56,0,0,0,.8.23c.41-.06.33-.39.42-.64s.29-.23.46-.28.46-.18.52-.37a1.33,1.33,0,0,1,1.53-.82,2.22,2.22,0,0,0,2.27-.73,1,1,0,0,1,1-.42,1.12,1.12,0,0,0,1.19-.71,1.57,1.57,0,0,1,1.57-.89,3.65,3.65,0,0,0,.47,0c.75,0,.8-.12.61-.85s-.15-.63.48-.69a4.16,4.16,0,0,0,1.11-.18c.28-.09.29-.27.19-.52s-.46-.12-.17-.37a.5.5,0,0,1,.61-.11,5.27,5.27,0,0,1,.58.48.48.48,0,0,0,.68,0,.57.57,0,0,0,.31-.61c-.1-.69.11-.84.84-.73s.85,0,.8-.68c0-.52,0-1.09-.8-1.17a.46.46,0,0,1-.4-.55c0-.3.3-.29.5-.33s.58-.13.73.22.11.75.48,1c.18.12.33.27.58.24.49-.05.63-.28.43-.76-.06-.14-.15-.27-.27-.49a1.71,1.71,0,0,1,1.19.18.6.6,0,0,0,.89-.32c.1-.44-.25-.51-.54-.63a4,4,0,0,0-1-.06c.38-.72.38-.72.08-1.55a.91.91,0,0,1,.78-.19c.56.14.82-.09.78-.59s.3-.81.57-1.14.52-.22.51.11c0,.48.4.68.51,1.08s.58.4,1,.42.43-.32.52-.57c.18-.48,0-.64-.61-.74s-1-.46-.81-1.15a.38.38,0,0,1,.55-.33c.41.14.82.31,1.22.47s.58.25.76,0-.05-.49-.29-.6-.36-.27-.27-.52a.54.54,0,0,1,.6-.37,10,10,0,0,0,2.11-.17c.41,0,.81.09,1.21.05.16,0,.33,0,.35-.24a.28.28,0,0,0-.23-.27A2.21,2.21,0,0,1,175.2,184a.33.33,0,0,1,0-.42c.11-.16.27-.3.47-.19s.74.2,1,.51.46.41.79.14.49-.51.14-.8c.08-.22.23-.2.34-.21,1-.09,1-.08.64-1-.09-.24-.1-.46.2-.5s.63-.46.89,0c.08.15,0,.41.29.41s.24-.28.3-.49c.17-.51.48-.6,1-.36a3.36,3.36,0,0,0,.43.2c.33.11.63,0,.61-.36,0-.6.27-.83.77-1a1.85,1.85,0,0,0,.4-.24c.17-.12.52-.15.43-.41a.54.54,0,0,0-.73-.25,3.55,3.55,0,0,1-1.37.3c.08-.43,0-.89.6-1.09.22-.08.16-.39,0-.55s-.28-.18-.17-.36a.34.34,0,0,1,.51,0,1.74,1.74,0,0,0,1.13.51l.65,0c.22,0,.48.06.57-.21a.84.84,0,0,0-.09-.81c-.18-.24-.4-.24-.64,0-.39.36-.73.38-1,.06s-.15-.47.13-.49a1,1,0,0,0,.86-.43c.1-.17.27-.06.41,0a7.08,7.08,0,0,0,.68.32c.29.11.58.16.55-.31,0-.32.15-.44.43-.49s.62-.12.93-.19a.54.54,0,0,0,.45-.53c0-.35-.25-.28-.46-.29s-.41,0-.38-.3.2-.36.47-.27c.44.13.86.24.67-.5,0-.06.16-.17.23-.27.66-.79,1.41-1.51,2.12-2.25a14.5,14.5,0,0,1,2-2c.69-.49,1.19-1.17,1.88-1.64.26-.17.49-.28.79,0-.32.47-.56,1.14-1,1.36-.79.38-1,1.17-1.61,1.68-.22.18-.37.36-.3.63s.43.13.64.21l.22.08a4.71,4.71,0,0,1-1.25,1.93c-.93.8-1.5,1.93-2.39,2.78s-1.26,1.8-2,2.6-1.76,1.79-2.64,2.69c-1.17,1.22-2.35,2.44-3.51,3.68-.62.67-1.36,1.2-2,1.81-1.72,1.51-3.43,3-5.16,4.53-1.34,1.15-2.85,2.06-4.26,3.1a12.86,12.86,0,0,0-1.54,1.24,14.21,14.21,0,0,1-2,1.35c-1.3.92-2.71,1.69-4,2.55-1.82,1.16-3.75,2.14-5.62,3.2a3.4,3.4,0,0,1-1.22.49,2.43,2.43,0,0,0-.88.31c-1.68,1-3.6,1.6-5.25,2.68a15.87,15.87,0,0,0-3.25,1.2c-1.93.72-3.85,1.5-5.79,2.2a97,97,0,0,1-9.82,2.57c-2.38.57-4.81.87-7.19,1.39-2.21.47-4.46.65-6.68.94-.69.09-1.43,0-2.15,0-1.56.06-3.14.05-4.69.24a32.16,32.16,0,0,1-6.36-.08c-2.06-.18-4.13-.34-6.19-.48a57.79,57.79,0,0,1-6.7-.81c-1.94-.36-3.9-.61-5.83-1s-4-1.06-6-1.57a67,67,0,0,1-8-2.45c-1.43-.56-2.84-1.17-4.26-1.76a11.87,11.87,0,0,0-1.94-.72,8.68,8.68,0,0,1-1.58-.8c-2-.91-3.9-1.89-5.85-2.81a45.92,45.92,0,0,1-4.78-2.61,97.62,97.62,0,0,1-8.3-5.49c-2.23-1.73-4.54-3.36-6.59-5.3s-4.11-3.51-6-5.47c-.58-.61-1.1-1.29-1.68-1.9a70.77,70.77,0,0,1-4.9-5.34c-.7-.89-1.3-1.86-2.06-2.69a53.23,53.23,0,0,1-4.57-6.2,73.85,73.85,0,0,1-4-6.46c-1-1.88-1.93-3.81-2.92-5.69-1.36-2.58-2.35-5.33-3.57-8A46.82,46.82,0,0,1,5.3,141a17.57,17.57,0,0,1-.76-3.3,5.14,5.14,0,0,1,0-1.3,8.62,8.62,0,0,0-1.27-6A13,13,0,0,1,1.53,126c-.28-1.6-.57-3.21-.71-4.83s-.27-3.19-.4-4.78A63,63,0,0,1,0,108.54c.1-2.34,0-4.69.32-7,.1-.83-.11-1.67,0-2.53.18-1.17.21-2.37.37-3.54.26-1.8.54-3.59.87-5.37.29-1.55.31-3.12.71-4.65S3,82.26,3.53,80.7,4.26,77.53,4.8,76a10.11,10.11,0,0,1,.63-1.66,2.55,2.55,0,0,0,.31-.89c.14-1,.78-1.77.91-2.71s1-1.86,1-3c0-.28.35-.53.42-.83a4.27,4.27,0,0,1,1.08-2.45,7.88,7.88,0,0,0,1.48-2.82,22.12,22.12,0,0,1,1.83-3.91c1.26-2.5,2.91-4.77,4.29-7.19a81.77,81.77,0,0,1,6-8.43c1.77-2.36,3.78-4.52,5.68-6.77s4-4,6-6a12.59,12.59,0,0,0,1.25-1.28,12.26,12.26,0,0,1,2.17-1.77,111.48,111.48,0,0,1,11.49-8.55c1-.68,2.06-1.41,3.14-2.06.81-.49,1.71-.79,2.51-1.29a56,56,0,0,1,7.31-3.86c1.32-.57,2.66-1.1,4-1.63.74-.29,1.38-.75,2.14-1,2.42-.78,4.84-1.54,7.23-2.4a41,41,0,0,1,5-1.5c2.45-.54,4.93-1,7.37-1.52,2-.45,4-.6,6-.91a9.15,9.15,0,0,1,3.34,0,7.15,7.15,0,0,0,4.25-.52,3.57,3.57,0,0,1,1.08-.21c1.87-.18,3.74,0,5.61-.13a5.22,5.22,0,0,0,1.54-.61c.26-.1.65-.37.5.29-.05.25.21.23.32.19,1.18-.39,2.23.47,3.39.37a18.25,18.25,0,0,1,3.36.35c3.69.31,7.33,1,11,1.61,1.92.34,3.81.74,5.68,1.26,2.17.61,4.31,1.34,6.46,2a52.76,52.76,0,0,1,5.6,1.91c2.84,1.24,5.78,2.28,8.5,3.78,1.61.9,3.22,1.81,4.85,2.68,2.8,1.5,5.4,3.31,8.05,5.06.5.32,1,.57,1.51.93,1.84,1.36,3.57,2.87,5.4,4.24,1,.75,2,1.52,2.93,2.35,1.13,1,2.16,2.09,3.29,3.09s2.25,2.07,3.35,3.14c.66.65,1.17,1.39,1.76,2.08,1.35,1.61,2.95,3,4.21,4.69s2.64,3.66,4,5.44c2.09,2.69,3.73,5.66,5.6,8.49C200.93,56,201.78,58,202.86,60a28.43,28.43,0,0,1,1.83,3.61,4.21,4.21,0,0,1,.3,1.27A7.09,7.09,0,0,0,206.55,69a10.46,10.46,0,0,1,1.8,3.59c.83,2.49,1.46,5.06,2.27,7.56a50.08,50.08,0,0,1,1.56,6.48c.39,2.22.67,4.46,1.07,6.67.36,2,.6,4,.78,6,.07.79,0,1.56,0,2.35.05,1.41.19,2.82.17,4.24,0,1,.12,2.11.16,3.16,0,.88-.1,1.75-.14,2.63-.1,2.53-.57,5-.68,7.57a56.23,56.23,0,0,1-1.09,8,31.73,31.73,0,0,1-.93,3.82,12.85,12.85,0,0,0-.47,2.38,42.34,42.34,0,0,1-1,4.17C209.88,138.2,209.67,138.21,208.83,137.79Z"/><path class="cls-1" d="M189.63,115.48a1.68,1.68,0,0,0-.25-.89c-.69-1-1.09-2.09-1.76-3.07a3.72,3.72,0,0,0-.48-.56,8,8,0,0,0-4-1.9,10.67,10.67,0,0,0-2.47-.43,9.33,9.33,0,0,0-3.14.49,4.66,4.66,0,0,1-1.83.33,1.93,1.93,0,0,0-1.42.39c-.24.2-.53.29-.76.07s0-.46,0-.69a1.53,1.53,0,0,1,.44-.72,1.71,1.71,0,0,0,.39-.63c.39-.81.8-1.61,1.23-2.41A7.72,7.72,0,0,0,177,102a1.5,1.5,0,0,1,.14-.44c.54-1.75,1.05-3.5,0-5.24a1.58,1.58,0,0,1-.12-.54,2.2,2.2,0,0,0-.53-1.17l-1.33-1.58a6.05,6.05,0,0,0-2.68-1.92c-.24-.08-.48-.15-.72-.24a10.5,10.5,0,0,0-3.54-.81,6.79,6.79,0,0,0-3,.63c-.77.36-1.68.6-2,1.54,0,.08-.12.14-.19.2A5.93,5.93,0,0,0,161.19,95,22,22,0,0,1,160,97.81a2.33,2.33,0,0,0-.26,1.27c0,.47-.08.94-.1,1.41-.05,1.4-.7,2.74-.39,4.18a.48.48,0,0,1-.33.6c-.32.08-.43-.19-.56-.39a17.27,17.27,0,0,0-2.51-3.37c-1.35-1.29-2.47-2.85-4.3-3.57a9,9,0,0,0-3.84-1,6.72,6.72,0,0,0-3.95,1.47,1,1,0,0,1-1.28,0c-.77-.59-1.52-1.2-2.32-1.75s-1.58-.85-2.33-1.37-.72-.56-.16-1a2,2,0,0,1,.51-.41c1.59-.65,2.53-2.13,3.94-3,.76-1.23,2.16-1.87,2.91-3.12a.29.29,0,0,1,.14-.13c1-.47,1.34-1.54,2-2.34.87-1.14,1.49-2.46,2.31-3.64a18.5,18.5,0,0,0,2-4,35.82,35.82,0,0,0,1.42-4c.44-1.7.86-3.4,1.13-5.13a2.6,2.6,0,0,0,0-.56,1.41,1.41,0,0,0-1.35-1.41,7.18,7.18,0,0,0-1,0,11,11,0,0,1-3.83,0,.94.94,0,0,0-.47,0,13.82,13.82,0,0,1-3.8.09c-8,0-16,.22-24.06-.11-1.29,0-2.55.29-3.83.23-2.55-.11-5.09.19-7.63.13-1.48,0-3,0-4.43-.11a22.35,22.35,0,0,0-3.56.09c-1.71.1-3.43-.17-5.15-.12a9.48,9.48,0,0,1-1.5-.12,12.37,12.37,0,0,0-3.1,0c-1,.1-2.06.16-3.09.16-1.34,0-2.67-.18-4-.06h-.29c-4.71-.1-9.42.19-14.13-.13a1.17,1.17,0,0,0-.37,0,25.88,25.88,0,0,1-4.74,0c-.65,0-.91,0-1.05.62a3.47,3.47,0,0,0-.13,1.37c.18,1.43.89,2.74.9,4.2a1.09,1.09,0,0,0,.17.44c.68,1.35.72,2.91,1.49,4.22a.41.41,0,0,1,0,.19,1.46,1.46,0,0,0,.26.69A9.7,9.7,0,0,1,66.61,81a1.56,1.56,0,0,0,.43.72,1.68,1.68,0,0,1,.46.59,15.3,15.3,0,0,0,2.3,3.4A19,19,0,0,1,72,88.52c.17.36.3.63.72.77a1,1,0,0,1,.69.81.67.67,0,0,0,.79.62,1.13,1.13,0,0,1,1,.49,11.61,11.61,0,0,0,2.66,2.33c.78.52,1.61,1,2.36,1.53s.82.73,0,1.37-1.84.9-2.6,1.62-1.51,1-2.21,1.55a24.31,24.31,0,0,1-2.11,1.55,17.78,17.78,0,0,0-2,1.65c-1.06,1-2,2-3,3-.55.56-1.12,1.08-1.64,1.66-.77.86-1.49,1.77-2.2,2.68a23.8,23.8,0,0,0-2.17,3c-.91,1.64-2,3.18-2.82,4.85-.68,1.34-1.39,2.66-2,4a32.57,32.57,0,0,0-1.48,4,20.78,20.78,0,0,0-1.08,3.77c0,.44-.1.87-.18,1.3-.15.87-.53,1.69-.62,2.55-.17,1.72-.31,3.43-.36,5.15-.06,2.08,0,4.15,0,6.23a5,5,0,0,0,.06.94,12.87,12.87,0,0,1,.25,3.45,2.77,2.77,0,0,0,.26,1.47,6.3,6.3,0,0,1,.54,2.37,19.92,19.92,0,0,0,1.1,4.14c.3,1.17.89,2.26,1.29,3.41.35,1,.89,1.85,1.26,2.82a15.38,15.38,0,0,0,1.35,2.65,5.52,5.52,0,0,1,.91,1.4,5.2,5.2,0,0,0,.92,1.62l1,1.47c.47.69.89,1.42,1.42,2.09.66.82,1.38,1.6,2,2.45a19.67,19.67,0,0,0,2.44,2.72,24.83,24.83,0,0,1,1.86,1.84,2.71,2.71,0,0,0,2.11,1.24c.63,0,1.24.05,1.86,0,1.28,0,2.57-.1,3.85-.11q32.16,0,64.3,0a6.56,6.56,0,0,0,1.4.11,9.42,9.42,0,0,1,2.43,0,3.14,3.14,0,0,0,2-.4,7.73,7.73,0,0,0,1.81-1.6c.82-1.08,1.88-1.93,2.71-3,.65-.83,1.51-1.53,2.06-2.39.84-1.32,1.89-2.48,2.69-3.83a15.56,15.56,0,0,1,1.42-2.2,19.25,19.25,0,0,0,1-1.81,21.76,21.76,0,0,0,1.63-3.05c.61-1.36.82-2.88,1.66-4.16a.25.25,0,0,0,.05-.17c0-1,.61-1.79.74-2.71.25-1.67.92-3.24,1.14-4.91a26.58,26.58,0,0,0,.61-4.16c0-.47.23-.74.69-.69.94.1,1.85-.29,2.81-.07a1.36,1.36,0,0,0,1.13-.34,1.57,1.57,0,0,1,.89-.48c1.29,0,2-1.07,3-1.59,1.64-1.93,2.82-4,2.65-6.7-.05-.66-.32-1.27-.41-1.92-.24-1.73-1.12-3.24-1.59-4.89-1-1.06-1.09-2.7-2.27-3.67a.58.58,0,0,1-.11-.25c-.06-.17-.19-.34,0-.52a.43.43,0,0,1,.6,0,2.29,2.29,0,0,0,1.08.53,3.68,3.68,0,0,1,1.23.43,4,4,0,0,0,2.7.51.86.86,0,0,1,.45,0,9.66,9.66,0,0,0,2.15.08c.57,0,1.13,0,1.7,0a5,5,0,0,0,2.19-.4,12.27,12.27,0,0,0,1.53-.9,8.52,8.52,0,0,0,2.15-2.21c.39-.63.49-1.42,1.09-1.94.13-.1.12-.29.12-.44C189.63,119.31,189.77,117.4,189.63,115.48ZM162.7,100.92a4.45,4.45,0,0,1,.46-1.72,2,2,0,0,0,.22-.71,7.36,7.36,0,0,1,1.37-3.07,4,4,0,0,1,3.74-1.73,8.31,8.31,0,0,1,4.41,1.69,2,2,0,0,1,.44.48,7.09,7.09,0,0,1,.85,4.29,20.61,20.61,0,0,1-1.05,3.4,3.92,3.92,0,0,1-.43.84,10.14,10.14,0,0,0-1.2,2.13,2.14,2.14,0,0,1-.49.68,31.23,31.23,0,0,0-2.09,2.76,2.4,2.4,0,0,1-.21.31c-.69.83-.85.91-1.64.16a4.44,4.44,0,0,0-3.63-1.16c-.67,0-.82-.1-.85-.81s0-1.19,0-1.79h-.09C162.57,104.75,162.6,102.84,162.7,100.92Zm-3.5,15.74a2.62,2.62,0,0,1,0-.28c.06-.62,0-1.3.42-1.79a5.68,5.68,0,0,1,1.93-1.61,4,4,0,0,1,4.55,1.08,4.48,4.48,0,0,1,0,5.78,4.29,4.29,0,0,1-4.57,1,.8.8,0,0,1-.24-.13C160.12,119.63,159,118.49,159.2,116.66Zm-.62,8.1a17.54,17.54,0,0,0-.93,1.63,21.24,21.24,0,0,1-2.79,4,16.12,16.12,0,0,1-4.57,4,16.31,16.31,0,0,0-2.3,1c-.22.16-.54,0-.81-.09a8.68,8.68,0,0,1-3.39-2.61,6.54,6.54,0,0,1-1.41-5.1,3.41,3.41,0,0,1,.88-1.53,5.86,5.86,0,0,1,2.57-2.28,1.69,1.69,0,0,0,.59-.45,2.12,2.12,0,0,1,1-.59A4.46,4.46,0,0,0,149,122a.33.33,0,0,1,.16-.09c1.64-.11,3-1.3,4.7-1.17a2,2,0,0,0,1.16-.34,1.68,1.68,0,0,1,.91-.24.76.76,0,0,1,.86.55,9.18,9.18,0,0,0,1.58,2.19C158.91,123.66,159.08,124,158.58,124.76Zm-15.19-21.15a7.31,7.31,0,0,1,3.16-3,3.15,3.15,0,0,1,2.73,0,14.82,14.82,0,0,1,6,5.13,12.19,12.19,0,0,1,1.95,3.42,3.63,3.63,0,0,0,.73,1c.43.56.38.73-.08,1.3a8,8,0,0,0-1.75,3.36c-.2,1-.25,1-1.22,1a2.61,2.61,0,0,1-.74-.13c-1.63-.57-3.28-1.09-4.86-1.75a15.16,15.16,0,0,1-4.33-2.58c-1.34-1.22-2.64-2.55-2.61-4.6A6.57,6.57,0,0,1,143.39,103.61Zm19.38,42.1a3.91,3.91,0,0,0-.11,1.13,2.38,2.38,0,0,1-.09.93,5.92,5.92,0,0,0-.42,2.49,5.43,5.43,0,0,1-.46,2.1,3.39,3.39,0,0,0-.23.81,9,9,0,0,1-.72,2.62c-.3.66-.46,1.41-.71,2.12a26.67,26.67,0,0,0-1.34,3.51,1.3,1.3,0,0,1-.17.44c-1.23,1.86-2,4-3.29,5.8a44,44,0,0,1-4.77,6.28c-1.12,1.12-2.05,2.43-3.28,3.45a1.62,1.62,0,0,1-1.27.5,23.06,23.06,0,0,0-3.11,0H78.31a32.93,32.93,0,0,0-4.33,0,1.76,1.76,0,0,1-1.61-.62A31.85,31.85,0,0,1,70,174.86a1.78,1.78,0,0,0-.64-.54.84.84,0,0,1-.43-.36c-.6-1.38-1.84-2.27-2.66-3.5a57,57,0,0,1-3.79-6,42.74,42.74,0,0,1-4-10,1.88,1.88,0,0,0-.2-.62,5.09,5.09,0,0,1-.57-2.65,5.22,5.22,0,0,0-.29-1.75,10.43,10.43,0,0,1-.52-2.77c-.17-3.5-.08-7,0-10.48a7,7,0,0,1,.43-2,3.43,3.43,0,0,0,.27-.9c0-1.67.72-3.18,1-4.79a3,3,0,0,1,.52-1.4,1.41,1.41,0,0,0,.22-.52A34.65,34.65,0,0,1,63,118.1a23.33,23.33,0,0,1,1.48-2.28c.49-.67.79-1.49,1.3-2.17a28,28,0,0,1,3-3.6c.59-.56,1.06-1.25,1.66-1.8a31.29,31.29,0,0,1,3.09-3.11c.76-.53,1.22-1.35,2-1.88.36-.25.68-.53,1.07-.75a5.89,5.89,0,0,0,1.51-1.11.79.79,0,0,1,.22-.19c1.43-.6,2.48-1.82,3.91-2.42s3-1.54,4.49-2.3c.33-.16.6-.33.62-.74s-.26-.68-.62-.85c-1.61-.76-3.21-1.56-4.85-2.26a12.89,12.89,0,0,1-1.43-.91,23.86,23.86,0,0,1-4.16-3.35A47.32,47.32,0,0,1,70.9,81.8a30.33,30.33,0,0,1-3.23-6.25c-.56-1.44-1-2.91-1.41-4.39-.19-.65,0-.92.62-.9,5,.12,10,0,15,0,5.69.08,11.38-.25,17.07-.18,5.25.07,10.51,0,15.77,0h5.75a20.45,20.45,0,0,1,2.35.15,41.88,41.88,0,0,0,4.62,0c5.89,0,11.77,0,17.66,0,1.47,0,2.94,0,4.41,0,.63,0,.85.24.76.87a4.73,4.73,0,0,1-.22.82c-.43,1.24-.82,2.5-1.31,3.72a25.06,25.06,0,0,1-2.25,4.63c-.42.65-.75,1.37-1.21,2a4.6,4.6,0,0,1-.4.64c-1.12,1.22-2,2.66-3.15,3.83a27.83,27.83,0,0,1-4.3,3.66c-.72.49-1.39,1.06-2.13,1.54a10.71,10.71,0,0,1-2.65,1.53A5,5,0,0,0,131,94.61c-.3.25-.19.64,0,1a1.09,1.09,0,0,0,.6.43,17.86,17.86,0,0,1,2.81,1.29,23.42,23.42,0,0,1,2.34,1.41,2.09,2.09,0,0,0,.64.37,7.68,7.68,0,0,1,3,1.8c.65.49.67.63.17,1.19a2.56,2.56,0,0,0-.54,1.08,1.12,1.12,0,0,1-.13.45c-.64.82-.56,1.84-.77,2.78a5.24,5.24,0,0,0,.46,3,9.23,9.23,0,0,0,1.59,2.75,14.6,14.6,0,0,0,2.53,2.37c.69.49,1.4,1,2.11,1.4a4.19,4.19,0,0,0,.87.36,2.78,2.78,0,0,1,.77.34,2.6,2.6,0,0,0,1.45.62,2,2,0,0,1,.55.14c.22.11.47.24.44.55a.52.52,0,0,1-.5.48c-1.2,0-2.06.91-3.16,1.16a6.08,6.08,0,0,0-1.46.84,15.33,15.33,0,0,0-3.94,3.24,7.72,7.72,0,0,0-1.71,3.7,4,4,0,0,0,.09,2.59.58.58,0,0,1,.07.28,5.19,5.19,0,0,0,.92,3,11.52,11.52,0,0,0,1.85,2.71,4.63,4.63,0,0,1,1,1.15.69.69,0,0,0,.42.35,9.93,9.93,0,0,1,1.78.82,5.9,5.9,0,0,0,4.93-.1c.5-.26,1.05-.41,1.56-.66a15.7,15.7,0,0,0,4.17-3.48,13,13,0,0,0,2-2.38,2.6,2.6,0,0,1,.32-.35c.13-.13.23-.33.45-.28s.24.34.24.55a11.56,11.56,0,0,1-.05,1.32,11.9,11.9,0,0,0,0,1.69,28.64,28.64,0,0,0,.94,5,8.83,8.83,0,0,0,1.23,2.62,10.42,10.42,0,0,0,1.27,1.75A1.68,1.68,0,0,1,162.77,145.71Zm10.15-12.36a15.28,15.28,0,0,1,1,4.11,4.3,4.3,0,0,1-1.44,3.23,8.6,8.6,0,0,1-4.45,1.95,4.78,4.78,0,0,1-4.57-3,1.39,1.39,0,0,0-.12-.36,7.27,7.27,0,0,1-.81-3.91,7.24,7.24,0,0,0-.17-1.39,8.24,8.24,0,0,1-.14-3.46,45.76,45.76,0,0,0,.49-5c.05-.86.09-.81.92-1a7.48,7.48,0,0,0,2.54-.6.79.79,0,0,1,1.08.27,24.81,24.81,0,0,1,3,3.93C171.17,129.9,172.4,131.48,172.92,133.35Zm13.75-14.71c-.17,1.06-.75,2-.9,3.07,0,.29-.33.44-.53.64a4.66,4.66,0,0,1-3.68,1.53c-.41,0-.82,0-1.23-.06v0c-.41,0-.82,0-1.22,0a2.64,2.64,0,0,1-2.13-.54,1.3,1.3,0,0,0-.89-.25,2,2,0,0,1-.75-.08c-1-.57-2.24-.76-3.25-1.39a3.44,3.44,0,0,0-.77-.33,3.63,3.63,0,0,1-.94-.43c-.77-.56-.8-.65-.36-1.5a4.46,4.46,0,0,0,.34-1.84,15.33,15.33,0,0,0-.09-1.79c-.05-.67.13-1,.75-1.13,1.16-.3,2.22-.87,3.41-1.06a1.39,1.39,0,0,0,.45-.14c1.43-.77,3.05-.71,4.57-.92a8.49,8.49,0,0,1,3.46.23,4.11,4.11,0,0,1,3.23,2.81A7.06,7.06,0,0,1,186.67,118.64Z"/><path class="cls-1" d="M60,89.13a2.4,2.4,0,0,0,1.22-.77c.22-.24.55-.35.73-.55.91-1,2.21-.81,3.31-1.13a2,2,0,0,1,2,.87,8.13,8.13,0,0,1,1.3,2.68A3.25,3.25,0,0,1,67,93.71c-.54.25-1.07.52-1.6.8a1.76,1.76,0,0,1-.82.15l-2.35.08c-.21,0-.46,0-.54.24s.12.37.27.45a13.79,13.79,0,0,1,2.4,2,4.34,4.34,0,0,1,1.38,2.75,3.34,3.34,0,0,1-1.11,3.11,4.08,4.08,0,0,1-2.95,1.41,1.43,1.43,0,0,1-1-.3A5.32,5.32,0,0,1,59,102.6a3.49,3.49,0,0,0-.51-.78,1.62,1.62,0,0,1-.43-1.11c0-.62-.42-1.1-.57-1.68-.05-.18-.2-.22-.37-.21s-.25.17-.26.33,0,.44,0,.66,0,.46-.11.64a8.35,8.35,0,0,0-1,1.87,4.82,4.82,0,0,1-2.26,2.05,2.06,2.06,0,0,1-2.38-.26,2.82,2.82,0,0,0-.62-.42,3,3,0,0,1-1.58-3.29c0-.25,0-.51,0-.76a2.27,2.27,0,0,1,.59-1.33,21.87,21.87,0,0,1,2-2c.17-.15.32-.31.47-.47s.34-.32.25-.57-.34-.22-.56-.22c-.73,0-1.45,0-2.17-.08a4.59,4.59,0,0,1-3.92-3.5.68.68,0,0,1,0-.28c.39-1.54.71-3.12,2.21-4.07a1.06,1.06,0,0,1,.62-.17H50c.15,0,.38,0,.45.08.56.72,1.59.76,2.13,1.5a1.11,1.11,0,0,0,.53.37c.65.23.75.14.89-.56a2.22,2.22,0,0,0-.14-1.28,24.88,24.88,0,0,1-.61-2.55.61.61,0,0,1,0-.53,13.82,13.82,0,0,1,1-2,3,3,0,0,1,2.48-1.21,5.85,5.85,0,0,1,2.65.83,2.11,2.11,0,0,1,1.09,2,20.35,20.35,0,0,0,.07,2.06,6.06,6.06,0,0,1-.47,2.47A1.09,1.09,0,0,0,60,89.13Z"/><path class="cls-1" d="M141.76,43a5.34,5.34,0,0,0,1.58-1.1,3.94,3.94,0,0,1,1.36-.81,2.46,2.46,0,0,0,.89-.51,1.92,1.92,0,0,1,2.28-.09,4.06,4.06,0,0,1,1.58,1.3,5.41,5.41,0,0,1,1.06,3.2,3.43,3.43,0,0,1-1.27,2.12,11.29,11.29,0,0,1-1,.76,2.25,2.25,0,0,1-1.56.54,3.44,3.44,0,0,0-1.49.14c-.41.16-.78-.19-1.19-.14-.23,0-.54-.13-.65.2s.14.54.4.65a7.09,7.09,0,0,1,3.74,5.44,4,4,0,0,1-2.29,3.17,5.35,5.35,0,0,1-2.14.27,2.37,2.37,0,0,1-1.84-1.17A11.32,11.32,0,0,1,139.72,54c-.1-.36-.15-.73-.25-1.09s-.12-.44-.41-.42-.3.19-.33.38A10.3,10.3,0,0,1,137,56.83a2,2,0,0,1-.28.37,3.74,3.74,0,0,1-4.43.16c-.1-.08-.17-.18-.27-.25-1.31-.89-1.4-2.2-1.23-3.59a5.19,5.19,0,0,1,2-3.16c.35-.32.69-.65,1-1,.1-.09.2-.15.17-.3s-.16-.17-.29-.18c-.62,0-1.25-.08-1.87-.14a6.42,6.42,0,0,1-3.7-1.62,1.81,1.81,0,0,1-.48-1.08,5.87,5.87,0,0,1,.28-3.05c.07-.21.17-.41.22-.62a1.71,1.71,0,0,1,1.35-1.3,8.2,8.2,0,0,1,3.52.1.94.94,0,0,1,.44.33,1.49,1.49,0,0,0,.94.59c.49.09.64.58,1,.79s.5.17.53-.27a2.1,2.1,0,0,0-.15-.92,10.78,10.78,0,0,1-.64-3,4.61,4.61,0,0,1,1.38-3.45,1.9,1.9,0,0,1,1.12-.42,10.32,10.32,0,0,1,2.72,0,.73.73,0,0,1,.36.11,3.21,3.21,0,0,1,1.61,2.37c0,.94,0,1.88.08,2.82a2.69,2.69,0,0,1-.51,1.59A1.36,1.36,0,0,0,141.76,43Z"/><path class="cls-1" d="M112.92,55.06a17.26,17.26,0,0,1-.25,2.69.4.4,0,0,1-.1.26c-.64.74-.79,1.76-1.47,2.5s-.84,1.52-1.49,2.15-.9.68-1.48-.12a3.41,3.41,0,0,0-.46-.47,1.35,1.35,0,0,1-.07-2.18,14.76,14.76,0,0,0,1.58-2.29c.93-1.5.56-3.11.54-4.67,0-.7-.64-1.33-1.14-1.87-.79-.85-1.6-1.67-2.42-2.49a5.55,5.55,0,0,1-1.64-2.78c-.11-.49-.34-.95-.43-1.42a4.62,4.62,0,0,1,.19-3.37,2.51,2.51,0,0,0,.35-1.07,3.35,3.35,0,0,1,.64-1.64c.69-1,1.39-2,2.09-3a.7.7,0,0,1,1.07-.18,7.46,7.46,0,0,1,1.19,1,1.18,1.18,0,0,1-.15,1.7,8.12,8.12,0,0,0-1.66,2.59,5.32,5.32,0,0,0-.38,2.94c.23,2.38.21,2.41,2,4,.7.64,1.32,1.33,2,2a19.59,19.59,0,0,0,1.24,1.64.86.86,0,0,1,.21.7C112.72,52.84,113,53.89,112.92,55.06Z"/><path class="cls-1" d="M100.55,36.88a1.82,1.82,0,0,1-.74,1.44A1.88,1.88,0,0,0,99,39.41c-.23.68-.69,1.26-.89,2a5,5,0,0,0,0,3.27,8.78,8.78,0,0,0,2.08,2.9,20.26,20.26,0,0,1,2,2.21,6.05,6.05,0,0,1,1.25,3.09,28.91,28.91,0,0,1,.05,3.95,2.91,2.91,0,0,1-.24.9,23.21,23.21,0,0,1-2.9,4.71,1.75,1.75,0,0,1-.62.56.57.57,0,0,1-.54,0,2.84,2.84,0,0,1-1.34-2.33,1.52,1.52,0,0,1,.52-1.06A5.35,5.35,0,0,0,100,56.82a8.23,8.23,0,0,0,.44-2.48A3.79,3.79,0,0,0,98.82,51c-.42-.26-.54-.74-.87-1.08a12.5,12.5,0,0,1-3.06-4.75,6.53,6.53,0,0,1-.25-2.7,10.91,10.91,0,0,1,2.94-6.52c.11-.11.2-.24.3-.36.59-.72.75-.73,1.55-.21C100,35.71,100.53,36.09,100.55,36.88Z"/><path class="cls-1" d="M117,61a1.4,1.4,0,0,1,.62-1.32,2.32,2.32,0,0,0,.67-.88c.44-.85.87-1.7,1.25-2.59a4.11,4.11,0,0,0,.08-3.19,7.36,7.36,0,0,0-2.07-3c-.73-.68-1.32-1.5-2.12-2.12a.59.59,0,0,1-.25-.27c-.54-1.72-1.71-3.29-1.21-5.25a3.78,3.78,0,0,0,.11-1.11,2.92,2.92,0,0,1,.19-1,34.62,34.62,0,0,1,1.91-3.74,6.34,6.34,0,0,1,.93-1.18c.47-.56,1-.52,1.47,0,.1.12.23.21.34.32s.73.2.74.64a2.32,2.32,0,0,1-.39,1.61,15.81,15.81,0,0,0-2.08,3.75,3,3,0,0,0-.11,2.12,5.58,5.58,0,0,0,1.87,3.05A11,11,0,0,1,122.58,52a9,9,0,0,1,.31,3.62,9.57,9.57,0,0,1-1.42,3.83c-.62,1.13-1.46,2.11-2.09,3.23-.19.34-.45.59-.83.35A3.35,3.35,0,0,1,117,61Z"/><path class="cls-1" d="M137.83,135.68a31.25,31.25,0,0,0-3-7.28c-.26-.47-.62-.87-.86-1.35a28.13,28.13,0,0,0-2.71-3.82,23.3,23.3,0,0,0-2.77-2.94,5.92,5.92,0,0,0-1.49-1.08,3.92,3.92,0,0,1-1.8-1.46,2,2,0,0,0-1.39-1,2.13,2.13,0,0,1-.69-.31,11.59,11.59,0,0,0-3.7-1.55,4.37,4.37,0,0,1-.87-.34,18.87,18.87,0,0,0-3.58-1.14,10.13,10.13,0,0,1-2.3-.48,4.7,4.7,0,0,0-1.17-.31c-1.19-.21-2.39-.11-3.58-.21a4.56,4.56,0,0,0-1.86.23,10.2,10.2,0,0,1-2.58.46,18.38,18.38,0,0,0-4.53,1.26c-.52.18-1,.41-1.56.61a10.5,10.5,0,0,0-2.5,1.27,13.85,13.85,0,0,1-2.08,1.41,15.39,15.39,0,0,0-3.59,2.67,31.41,31.41,0,0,0-3,3.1c-.45.56-.88,1.12-1.33,1.66a20.27,20.27,0,0,0-2.66,4.2c-.22.48-.38,1-.63,1.47a23.79,23.79,0,0,0-2.07,5.53A33.62,33.62,0,0,0,79,150.45a43.57,43.57,0,0,0,1.08,4.48c.36,1.17.85,2.29,1.3,3.41a26.12,26.12,0,0,0,2.33,4.4c.86,1.33,1.72,2.27,3.57,2.08s4,0,5.94,0c5.29,0,10.57,0,15.86,0,7.36.07,14.72,0,22.08.08a2,2,0,0,0,1.88-1c.47-.73.92-1.49,1.41-2.21a25.29,25.29,0,0,0,2.79-5.93,30.6,30.6,0,0,0,1-3.43,23.75,23.75,0,0,0,.57-3.14c.14-1.89.13-3.77.18-5.65A28.85,28.85,0,0,0,137.83,135.68ZM120,160.28c0,.91-.27,1.15-1.21,1.15H99.39c-.35,0-.69,0-1,0-.7,0-.89-.15-.9-.88,0-1.13,0-2.26,0-3.39,0-.47,0-.94,0-1.41,0-.65.15-.87.8-.87,1.76,0,3.52,0,5.28,0,1.56,0,3.13,0,4.69,0,2,0,4.08-.1,6.11,0,1.61.05,3.2,0,4.8,0,.81,0,.93.14.9.93a34.69,34.69,0,0,0,0,4A3.84,3.84,0,0,1,120,160.28Zm-13.63-12a6.16,6.16,0,0,0-.63-.82,5.24,5.24,0,0,1-1.43-3,23.13,23.13,0,0,1,.8-7c.41-1.79,1.2-3.43,1.74-5.17a24.59,24.59,0,0,1,1.26-2.84c.08-.17.17-.35.39-.35a.36.36,0,0,1,.38.35,7.77,7.77,0,0,0,.8,1.79l1.47,3.47a1.15,1.15,0,0,1,.06.17c.3,1.74,1.07,3.36,1.19,5.14a4.29,4.29,0,0,0,.26,1.1,6.38,6.38,0,0,1,.26,1.16,16.4,16.4,0,0,1-.68,4,3.46,3.46,0,0,1-.82,1.14,2.31,2.31,0,0,0-.57,2.59,3.6,3.6,0,0,0,.6.83c.33.41.21.72-.29.78a2.43,2.43,0,0,1-.66,0,.56.56,0,0,1-.56-.63c.16-1.19-.08-2.39.06-3.57a2.47,2.47,0,0,0-.31-1.46,1,1,0,0,0-1.8-.18,1.81,1.81,0,0,0-.43,1.92,2.86,2.86,0,0,1,.07,1.76,2.42,2.42,0,0,0,0,.93c.14,1.14-.56,1.36-1.46,1.21-.43-.07-.58-.36-.3-.66.5-.52.43-1.23.75-1.81A1,1,0,0,0,106.4,148.32Zm29.18-.28a10,10,0,0,0-.47,2.88,5,5,0,0,1-.49,2,3.73,3.73,0,0,0-.31,1,5.57,5.57,0,0,1-.75,2.11,14,14,0,0,0-.79,1.81,28.48,28.48,0,0,1-1.62,3,1.26,1.26,0,0,1-1.3.67,40.1,40.1,0,0,0-5.37,0c-.82.08-1-.11-1-.92,0-1.82,0-3.64,0-5.46a3,3,0,0,1,.07-.74,4.89,4.89,0,0,0,.08-1.32c-.08-1.37-.31-1.55-1.69-1.42-1.6.15-3.21,0-4.81.08-1.19.06-2.38-.12-3.57,0a2.35,2.35,0,0,1-.75-.05c-.38-.11-.45-.43-.17-.72a3.12,3.12,0,0,1,.45-.34,8.32,8.32,0,0,0,2.4-3.28,12.13,12.13,0,0,0,.73-2.7,4.86,4.86,0,0,0,0-1.32,39.05,39.05,0,0,0-.8-5.49,24.39,24.39,0,0,0-1.06-3.9,16.75,16.75,0,0,0-1.29-3.11c-.42-.71-.56-1.59-1-2.35a8.65,8.65,0,0,0-1.64-2.61.35.35,0,0,1-.12-.15c-.46-1.34-1.56-1-2.53-1a1,1,0,0,0-.8.46,13.28,13.28,0,0,0-1.24,1.88c-.31.75-.74,1.45-1.09,2.19-.67,1.41-1.26,2.85-1.79,4.33-.39,1.11-.55,2.26-.93,3.34a19.83,19.83,0,0,0-.91,5.55,11.1,11.1,0,0,0,1.18,6.2,4.69,4.69,0,0,0,1.87,1.93c.33.17.92.28.8.77s-.74.29-1.14.29c-1.16,0-2.33,0-3.49,0v0H96.29a2.11,2.11,0,0,1-.56-.09,1.59,1.59,0,0,0-1.6.55.63.63,0,0,0-.18.77,3,3,0,0,1,.16,1.4,43.25,43.25,0,0,1-.17,4.69,6.4,6.4,0,0,0,.11,1.5c0,.79-.19,1-1,1-1.85,0-3.7-.06-5.55-.06a1.12,1.12,0,0,1-1.08-.58,7.9,7.9,0,0,1-1.57-3.06.71.71,0,0,0-.32-.45,1,1,0,0,1-.39-.62c-.16-.58-.49-1.1-.64-1.66-.5-1.88-1.37-3.67-1.34-5.66a.93.93,0,0,0,0-.29,22.68,22.68,0,0,1-.42-6.37,4.87,4.87,0,0,1,0-.66,65.15,65.15,0,0,1,1.43-6.91,15.77,15.77,0,0,1,.62-1.47c.39-.93.75-1.88,1.21-2.75a27.16,27.16,0,0,1,1.78-3.09c.93-1.34,2.15-2.45,3.09-3.76a10.36,10.36,0,0,1,2.34-2.25c1-.74,1.8-1.85,3.14-2.16a4,4,0,0,0,1.11-.7,20.83,20.83,0,0,1,3.65-1.44,4.67,4.67,0,0,1,1.28-.29,2.37,2.37,0,0,0,1.39-.51,1.83,1.83,0,0,1,1.24-.35c2,0,3.89-.3,5.84-.3s3.91-.13,5.72.8a.81.81,0,0,0,.35.12c1.4,0,2.47.8,3.63,1.39s2.29,1.27,3.42,2a25.31,25.31,0,0,1,4.12,3.38,22.73,22.73,0,0,1,4.38,5.49,41.85,41.85,0,0,1,2.1,4.18c.6,1.43.78,3,1.39,4.38a2.92,2.92,0,0,1,.11,1,4.91,4.91,0,0,0,.37,1.93,8.53,8.53,0,0,1,.27,2.42c.09.81.07,1.64.11,2.45A6.39,6.39,0,0,1,135.58,148Z"/><path class="cls-1" d="M116.67,148.83c0,.26-.17.37-.41.39a.31.31,0,0,1-.36-.32.39.39,0,0,1,.77-.07Z"/><path class="cls-1" d="M105.08,125.26c.16,0,.2.09.21.2s0,.25-.17.25a.22.22,0,0,1-.24-.21A.21.21,0,0,1,105.08,125.26Z"/></svg>