<svg id="Layer_1" data-name="Layer 1" xmlns="http://www.w3.org/2000/svg" viewBox="0 0 214.37 214.8"><defs><style>.cls-1{fill:#ff7171;}</style></defs><path class="cls-1" d="M147.84,203.48c0-.12-.08-.16-.15-.21s-.41-.13-.3-.38.29-.15.46,0,.17.12.25,0c.4-.35.75-.1,1.12.05a1.41,1.41,0,0,0,.8.23c.41,0,.34-.38.43-.63s.28-.22.46-.28a.85.85,0,0,0,.57-.45c.25-.68.86-.64,1.39-.76s1,.22,1.45.08.59-.7,1.05-.91c.28-.14.53-.36.86-.3a1.12,1.12,0,0,0,1.19-.7,1.55,1.55,0,0,1,1.57-.9h.47c.75-.05.8-.12.61-.85s-.15-.63.48-.69a4.66,4.66,0,0,0,1.11-.17c.27-.1.29-.27.2-.52s-.47-.12-.18-.38a.49.49,0,0,1,.6-.11,5.29,5.29,0,0,1,.59.47.47.47,0,0,0,.67,0c.2-.15.37-.27.32-.6-.09-.66.11-.84.74-.77.83.09,1-.12.88-.92-.08-.38-.11-.84-.68-.88a.48.48,0,0,1-.49-.57c0-.35.36-.29.58-.34s.59,0,.67.32a1.46,1.46,0,0,0,.52,1,.77.77,0,0,0,.42.19c.51,0,.72-.28.52-.77-.06-.14-.15-.27-.27-.49a1.33,1.33,0,0,1,1.17.2c.27.21.48.07.69-.06s.32-.58-.06-.8a3.27,3.27,0,0,0-1.42-.19c.64-.5.48-1,.14-1.5a1.1,1.1,0,0,1,.93-.21c.56.14.69-.19.69-.6a1.23,1.23,0,0,1,.39-.92c.47-.48.37-.45.74.16s.41,1.22,1.23,1.22a.72.72,0,0,0,.79-.73c.05-.43-.25-.51-.58-.57-.84-.15-1.06-.44-.91-1.15.06-.3.24-.43.54-.33s.82.3,1.23.47.58.25.76-.05-.05-.49-.29-.6-.36-.27-.27-.52a.54.54,0,0,1,.6-.37,10,10,0,0,0,2.11-.17c.41,0,.8.09,1.21.05.15,0,.33,0,.35-.24a.28.28,0,0,0-.22-.27,2.24,2.24,0,0,1-1.37-1.17.38.38,0,0,1,0-.43c.12-.16.28-.3.48-.19s.74.2,1,.51.46.41.79.14.5-.5.1-.82c.35-.34.71-.14,1-.21s.45-.24.26-.55c0,0-.08-.09-.11-.15-.12-.23-.4-.48,0-.73a.62.62,0,0,1,1,.21c.07.12.13.23.26.23s.24-.12.3-.3c.29-.8.37-.83,1.09-.51s.88.29,1-.48a.58.58,0,0,1,.48-.58,5.12,5.12,0,0,0,1.14-.64c-.27-.26-.27-.26-2.15-.07.09-.43,0-.9.61-1.08.19-.06.16-.33,0-.49s-.46-.25-.17-.49a.45.45,0,0,1,.59.12c.45.53,1.06.43,1.63.45s.73-.23.6-.76c0-.18-.11-.36-.33-.41a.37.37,0,0,0-.47.21c-.08.17-.14.37-.4.28a1.2,1.2,0,0,1-.64-.38c-.13-.19,0-.41.17-.41a.91.91,0,0,0,.86-.43c.11-.17.27,0,.41,0,.39.1.69.48,1.2.36-.11-.7.37-.85.93-1,.24,0,.51,0,.71-.18a.51.51,0,0,0,.21-.5c0-.21-.21-.19-.36-.2h-.09c-.21,0-.42,0-.39-.29s.19-.37.46-.29c.44.14.86.25.68-.49,0-.06.15-.17.23-.27.66-.79,1.4-1.51,2.12-2.25a15.05,15.05,0,0,1,2-2c.68-.48,1.19-1.17,1.88-1.64a.57.57,0,0,1,.8,0c-.33.46-.57,1.13-1,1.36-.79.38-1,1.17-1.61,1.67-.21.18-.37.36-.3.64s.42.14.64.21l.22.07a4.71,4.71,0,0,1-1.25,1.93c-.93.8-1.5,1.94-2.39,2.78a15.45,15.45,0,0,0-1.59,2.1,32.29,32.29,0,0,1-2.86,3c-1.25,1.33-2.53,2.62-3.77,3.95a25.14,25.14,0,0,1-2,1.74c-1.71,1.52-3.43,3-5.16,4.53-1.33,1.15-2.84,2.07-4.26,3.11a11.94,11.94,0,0,0-1.53,1.23,14,14,0,0,1-2,1.36c-1.31.91-2.71,1.68-4.05,2.54-1.83,1.17-3.75,2.15-5.63,3.21a4.05,4.05,0,0,1-1.3.51,2.14,2.14,0,0,0-.71.25c-1.71,1-3.66,1.62-5.34,2.72a15.57,15.57,0,0,0-3.24,1.2c-1.94.71-3.85,1.49-5.8,2.19a90.21,90.21,0,0,1-9.72,2.56c-2.41.58-4.87.89-7.29,1.41-2.21.46-4.45.67-6.68.94a24.69,24.69,0,0,1-3,.1c-1.07,0-2.13.08-3.19.18a37.51,37.51,0,0,1-7.11-.07c-2.06-.2-4.13-.35-6.19-.49a56.51,56.51,0,0,1-6.61-.8c-1.94-.36-3.9-.61-5.82-1s-4-1.06-6-1.57a61.48,61.48,0,0,1-8-2.46c-1.31-.52-2.6-1.09-3.9-1.61-.82-.32-1.64-.62-2.47-.93-1.1-.42-2.12-1.06-3.2-1.57a64,64,0,0,1-8.58-4.45c-1.53-1-3.19-1.86-4.7-2.92-1.26-.88-2.55-1.74-3.77-2.66a74.59,74.59,0,0,1-6.75-5.4c-1.79-1.71-3.76-3.23-5.5-5-.72-.74-1.35-1.57-2.07-2.31a63.26,63.26,0,0,1-4.91-5.32c-.69-.9-1.3-1.87-2.05-2.7A52.27,52.27,0,0,1,18,167.1a72.13,72.13,0,0,1-4-6.38c-1-1.88-1.93-3.8-2.92-5.69-1.35-2.58-2.35-5.32-3.57-8a49,49,0,0,1-2.28-6.16,17.47,17.47,0,0,1-.76-3.29,5.22,5.22,0,0,1,0-1.31,8.63,8.63,0,0,0-1.26-5.95,12.89,12.89,0,0,1-1.77-4.52c-.27-1.64-.59-3.27-.72-4.92s-.26-3.06-.38-4.59A63.17,63.17,0,0,1,0,108.44c.1-2.35.05-4.69.32-7,.1-.86-.09-1.74,0-2.62.15-1.11.17-2.24.33-3.36q.39-2.75.9-5.46c.29-1.54.31-3.12.71-4.64S3,82.15,3.53,80.6,4.24,77.48,4.78,76a13.47,13.47,0,0,1,.69-1.83,2.61,2.61,0,0,0,.27-.8c.13-1,.78-1.78.91-2.72s1-1.86,1-3c0-.16.2-.31.27-.48s.38-.48,0-.74a.14.14,0,0,1,0-.23c.62-.4.59-1.19,1.09-1.7a6.74,6.74,0,0,0,1.62-3,22.76,22.76,0,0,1,1.82-3.91c1.27-2.5,2.91-4.76,4.3-7.19a85.54,85.54,0,0,1,6-8.43c1.77-2.36,3.79-4.52,5.69-6.77s4-4,6-6A11.64,11.64,0,0,0,35.67,28a12.42,12.42,0,0,1,2.17-1.77,112.82,112.82,0,0,1,11.48-8.55c1.08-.7,2.1-1.48,3.23-2.09.8-.44,1.64-.8,2.42-1.27a60.74,60.74,0,0,1,7.32-3.85c1.32-.57,2.67-1.07,4-1.64a21.1,21.1,0,0,1,2.84-1.25c2.21-.6,4.36-1.42,6.53-2.15a49.33,49.33,0,0,1,5-1.49c2.45-.54,4.92-1,7.37-1.52,2-.45,4-.6,6-.91a9,9,0,0,1,3.35,0A7.15,7.15,0,0,0,101.7,1a3.91,3.91,0,0,1,1.08-.22c1.83-.18,3.68.06,5.51-.13a2.28,2.28,0,0,0,1.3-.44c.38-.31.5-.24.83.22a.44.44,0,0,0,.51.1,2.71,2.71,0,0,1,1.9.21,3.34,3.34,0,0,0,.83.13c3,.16,6,.6,9.07,1,2,.25,3.88.77,5.84,1a41,41,0,0,1,5.59,1.23c2.2.62,4.36,1.37,6.54,2A51.25,51.25,0,0,1,146.22,8c2.84,1.23,5.78,2.27,8.49,3.78,1.62.89,3.23,1.81,4.86,2.68,2.8,1.5,5.4,3.31,8.05,5.05.49.33,1,.58,1.51.93,1.83,1.37,3.57,2.87,5.39,4.24,1,.78,2,1.57,3,2.42s2.11,2.05,3.22,3,2.25,2.07,3.35,3.14a26.39,26.39,0,0,1,1.75,2.08c1.36,1.6,3,3,4.21,4.68s2.65,3.66,4,5.45c2.08,2.69,3.73,5.66,5.6,8.48,1.24,1.88,2.09,3.93,3.17,5.87a28.43,28.43,0,0,1,1.83,3.61,4.28,4.28,0,0,1,.3,1.27,7.08,7.08,0,0,0,1.55,4.18,10.2,10.2,0,0,1,1.8,3.59c.83,2.5,1.47,5.06,2.28,7.57a49.94,49.94,0,0,1,1.56,6.47c.39,2.22.67,4.46,1.07,6.68.36,2,.6,4,.78,5.94.07.79,0,1.57,0,2.35.05,1.42.19,2.82.17,4.24,0,1.06.12,2.11.16,3.17,0,.87-.1,1.75-.14,2.62-.1,2.54-.57,5-.68,7.58a56.43,56.43,0,0,1-1.09,8,32.19,32.19,0,0,1-.93,3.82,12.85,12.85,0,0,0-.47,2.38c-.16,1.44-.74,2.76-1,4.17-.13.61-.34.62-1.14.22.11-.28.32,0,.47-.08s.43-.19.25-.53c-.37-.67-.36-.69.28-1.06.16-.1.26-.22.19-.37-.19-.4.14-.8,0-1.2a.36.36,0,0,1,0-.27,2.88,2.88,0,0,0,.39-2.37c-.08-.5.41-.54.73-.7.13-.26-.11-.4-.19-.58a1.3,1.3,0,0,1-.21-.9c.31-.92.21-1.9.58-2.81a9.2,9.2,0,0,0,.38-4,3.44,3.44,0,0,0-.22-.71c-.13-.39-.32-.76-.05-1.17a.55.55,0,0,0,0-.54.9.9,0,0,1,.19-1,.65.65,0,0,0,.12-.85c-.23-.44.36-.62.38-1s-.55-.52-.53-1a.36.36,0,0,1,0-.18,3.06,3.06,0,0,0,0-2.91,1,1,0,0,1,0-.56,5.24,5.24,0,0,0,.05-2.23,2.39,2.39,0,0,1,.25-1.55c.13-.21.26-.51,0-.67s-.31-.59-.3-.92a10.86,10.86,0,0,1,.11-1.4,1.05,1.05,0,0,0-.15-.9c-.12-.16-.24-.35-.12-.51.36-.49,0-.8-.22-1.17s-.68-.79-.26-1.34a.31.31,0,0,0-.07-.43c-.53-.27-.24-.59-.12-.94s.31-.78-.1-1.13a.35.35,0,0,1,0-.5c.08-.14.16-.36,0-.44-.52-.35-.41-.76-.18-1.21a.39.39,0,0,0,0-.28c-.54-1.17-.47-2.49-.87-3.69-.15-.48-.35-.81,0-1.25.13-.16,0-.35-.07-.53a2.7,2.7,0,0,1-.46-2c.11-.41-.25-.93-.4-1.4,0,0-.06-.05-.06-.08.07-1.17-.74-2.23-.42-3.43a.81.81,0,0,0-.28-.85,1.81,1.81,0,0,1-.59-1.15c0-.12-.1-.28-.05-.36.22-.36.59-.68,0-1.11-.33-.25-.18-.84-.7-1s-.4-.6-.33-1,.06-.69-.3-.91c-.08,0-.2-.15-.18-.2.21-.79-.5-1.2-.77-1.76a7.22,7.22,0,0,0-.9-1.8.55.55,0,0,1-.08-.45,1.2,1.2,0,0,0-.37-1.11c-.17-.14-.15-.4-.2-.62a16,16,0,0,0-.74-2.32c-.21-.56-.25-1.19-.52-1.75-.1-.2-.14-.46-.29-.59a1.7,1.7,0,0,1-.46-1.89c.11-.44,0-.66-.45-.72-.11,0-.31-.06-.33-.13-.14-.56-.74-1-.73-1.49,0-.8-.58-1.3-.7-2a.83.83,0,0,0-.57-.58,1.15,1.15,0,0,1-.8-1.32.4.4,0,0,0-.21-.47c-.7-.35-.92-1.09-1.3-1.67-.21-.32-.45-.66-.67-1a26.61,26.61,0,0,0-1.86-2.91.81.81,0,0,1-.2-.6c0-.47,0-1-.72-.95-.17,0-.27-.14-.27-.32a4,4,0,0,0-1.39-2.65,3.3,3.3,0,0,1-.68-1.11c-.16-.47-.22-1-.83-1.12a.44.44,0,0,1-.26-.47c0-.58-.35-.84-.82-1a1,1,0,0,1-.54-.36,11.38,11.38,0,0,0-3.9-3.36c-.11-.06-.31-.12-.31-.19,0-.9-.95-.89-1.42-1.34A19.91,19.91,0,0,0,180.87,39a4.27,4.27,0,0,1-.93-.92,15.52,15.52,0,0,0-2.2-2.24c-.13-.12-.3-.08-.45-.1s-.42-.07-.46-.27c-.12-.64-.72-.88-1.15-1.12A15.86,15.86,0,0,0,173,33c-.83-.26-1.52-.78-2.38-1a4.3,4.3,0,0,1-2-1.36,4,4,0,0,0-1.21-.85,5.28,5.28,0,0,1-2.25-1.41c-1.49-.59-2.62-1.81-4.12-2.34a8.46,8.46,0,0,1-2.12-1.52c-.28-.21-.4-.64-.88-.49,0,0-.06,0-.07-.05-.34-1-1.34-.75-2-1.1-.28-.15-.52-.34-.8-.48a13.61,13.61,0,0,1-3.46-2c-.05,0-.13-.09-.17-.08-.74.31-1.2-.26-1.75-.53a2.1,2.1,0,0,0-1.55-.39.21.21,0,0,1-.19,0c-.66-.71-1.71-.76-2.4-1.41a1.66,1.66,0,0,0-.91-.44,23.09,23.09,0,0,1-2.72-.7c-1.34-.33-2.61-.86-3.92-1.25-1.13-.34-2.3-.53-3.43-.87a32.3,32.3,0,0,0-3.83-.89,25,25,0,0,0-3.76-.18,8.29,8.29,0,0,1-1.29-.22c-.15,0-.32-.13-.45-.08a2.89,2.89,0,0,1-1.57-.11,4.23,4.23,0,0,1-1.65-.54.42.42,0,0,0-.26-.11c-.41.05-.79.6-1.22-.12-.17-.28-.9-.06-1.27-.42a.29.29,0,0,0-.36,0,1,1,0,0,1-1.07.08.5.5,0,0,0-.53.06.48.48,0,0,1-.79-.08c-.5-.7-1.11-.47-1.66-.18-.37.19-.62.23-.91-.06-.11-.12-.24-.25-.4-.2-.81.25-1.68-.13-2.48.29-.42.22-.92,0-1.37.22-.26.12-.34-.15-.41-.38-.2-.64-.31-.69-.77-.22s-1.17.42-1.52,1c-.1.17-.38.1-.61,0-.65-.22-1.31-.39-2-.58a1.24,1.24,0,0,0-1.31.3,3.48,3.48,0,0,1-2,1.13c-.39,0-.74.18-1-.16-.16-.19-.42-.12-.61-.22-.34-.18-.51,0-.63.28s-.36.74-.81.64a.78.78,0,0,1-.68-.86.29.29,0,0,0-.29-.31c-.21,0-.33.12-.42.31-.29.65-.3.65-.94.39-.27.75-.54.92-1.08.65-.19-.09-.41-.2-.31-.49s-.14-.41-.41-.41a.49.49,0,0,0-.27,0,3.17,3.17,0,0,1-2,.35c-.18,0-.4-.06-.51.14s.07.34.19.47l.13.14c.08.11.12.22,0,.34a.24.24,0,0,1-.34,0A2.38,2.38,0,0,0,90,14.26a.64.64,0,0,0-.63.17c-.11.35.5.37.35.79a1.18,1.18,0,0,0-1,.26.69.69,0,0,1-.62.16c-.23,0-.58.14-.62-.23s.3-.38.51-.48.62,0,.93,0a.3.3,0,0,0,.29-.31c0-.15-.15-.17-.28-.18a6.11,6.11,0,0,0-2.19.44.23.23,0,0,0-.16.36c.18.29.13.51-.19.57s-.63.06-.66-.32-.36-.42-.67-.38c-.12,0-.24.09-.36.09a2.08,2.08,0,0,0-2.07,1.16.72.72,0,0,1-1.12.19,1.33,1.33,0,0,0-1.45-.08,3.78,3.78,0,0,1-1.88.51.28.28,0,0,0-.32.27c0,.18.17.25.34.26h.38c.17,0,.41-.12.44.17s-.19.3-.33.42-.4.06-.62,0a4.1,4.1,0,0,0-2.73.4.91.91,0,0,1-1.18-.16c0-.41.56-.39.66-.76-.18-.24-.41-.12-.55,0a6.17,6.17,0,0,1-1.07.77.63.63,0,0,0-.28.54c-.1.8-.54,1-1.21.54a1.66,1.66,0,0,1-.14-.13c-.27-.2-.43-.2-.46.21,0,.6-.06.61-.62.31-.18-.1-.31-.11-.37.08-.2.58-.81.77-1.15,1.22a.71.71,0,0,1-.67.28,4.32,4.32,0,0,0-2.46.91.87.87,0,0,1-.68.13,2.3,2.3,0,0,0-2.34.92c.06.34.44.28.51.53a.24.24,0,0,1-.15.23c-.34.15-.75.05-1.07.3-.11.09-.22,0-.34,0-.88-.45-.88-.45-1.21.44,0,.06-.08.1-.13.17-.24-.08-.4-.42-.71-.28a7.26,7.26,0,0,0-1.07.56c-.16.12-.12.36.12.45s.32,0,.38.28c-.28.12-.46.82-.85-.05-.17-.36-.67-.07-.91.12s-.38.66-.87.34c-.1-.06-.26,0-.31.16-.26.54-.85.67-1.3.86a3.22,3.22,0,0,0-1.22,1c-.4.48-.81,1-1.56.8a.41.41,0,0,0-.46.25c-.26.53-.85.72-1.21,1.12-1,1.13-2.5,1.59-3.67,2.52-.85.68-1.58,1.5-2.47,2.08s-1.39,1.26-2.15,1.73c-1,.62-1.71,1.54-2.65,2.19-.18.13-.38.22-.55.34-.48.33-1.08.54-1.22,1.21,0,.09-.08.21-.15.23a4.43,4.43,0,0,0-1.86,1.47A16,16,0,0,1,34,44.19c-.7.58-.94,1.58-1.88,1.88,0,0-.14.08-.13.12.09.83-.86,1-1,1.7a.85.85,0,0,1-.77.6.9.9,0,0,0-.69.44,4.88,4.88,0,0,1-1.14,1.63c-.95.68-1,1.9-1.8,2.65,0,0-.05.14-.1.16-1.07.46-.93,1.66-1.49,2.41s-.33,1.09-.11,1.76A8.78,8.78,0,0,1,25,60.89c-.21,0-.33,0-.32-.12a1.58,1.58,0,0,0-.9-1.66c-.05,0-.06-.11-.09-.16.14-.16.28,0,.42,0,.37.06.54-.11.52-.47a4.81,4.81,0,0,0-.1-.84c0-.14-.08-.32-.28-.31s-.36,0-.37.22c0,.41-.4.54-.6.8a2.72,2.72,0,0,0-.62,1,2.61,2.61,0,0,1-.73,1.18c-.22.25-.32.55.18.56s.48.22.46.54c-.06.67.19,1.38-.39,2-.17.17,0,.47.11.7s.39.41.27.72c-.28.12-.33-.09-.42-.25-.3-.52-.6-1-.91-1.54-.2-.33-.46-.32-.62,0s-.18.73-.56.93c-.19.1-.09.34,0,.39.57.26.05.79.28,1.06.38.45-.05.63-.16,1a6.19,6.19,0,0,1-.79,1.48c-.18.27-.27.48-.71.41s-.66.36-.34.72a.75.75,0,0,1,0,1.09c-.26.35-.33.82-.7,1.1a.32.32,0,0,0-.14.24,2.18,2.18,0,0,1-.65,1.67c-.25.29.3.54.12.88s-.56-.31-.72.06.17.55.38.77c.44.46.45.58-.13.76s-.81.77-1.26,1.1c-.21.17,0,.41,0,.62.12.49.49,1-.11,1.43a20.61,20.61,0,0,1-.4,2.56,4.08,4.08,0,0,1-.49,1.88c-.31.53-.18.72.47.91s.65.43.24.77a1.18,1.18,0,0,0-.43,1.32.71.71,0,0,1-.24.77c-.42.34-.27.6,0,.92s.39.45-.14.84a.75.75,0,0,0,0,1.11c.48.28.62.52.18,1s0,.77.2,1a1.37,1.37,0,0,1,.23,1.4c0,.12-.11.29-.07.35.49.68,0,1.24-.19,1.85a4.53,4.53,0,0,0-.3,1.47,1,1,0,0,1-.18.79.39.39,0,0,0,0,.52c.47.84,0,1.56-.36,2.26-.16.36-.41.63-.13,1,0,.06.11.14.09.16-.49.69,0,1.51-.32,2.22a2.7,2.7,0,0,0-.08,1.44,5.79,5.79,0,0,1,0,2,2.19,2.19,0,0,0,0,1.72c.09.16,0,.31,0,.46a4.33,4.33,0,0,0,.06,1.39,14.14,14.14,0,0,0,.61,2.32c.14.44-.11.91-.17,1.37-.07.62-.49,1.26.16,1.82,0,0,0,.07,0,.08-.4.57-.16,1.38-.71,1.9-.2.2-.65.3-.45.7a.83.83,0,0,0,1,.51c.08,0,.13,0,.15.14s-.18.4-.29.62-.15.23-.14.23c.56.45.19,1.27.64,1.72.24.24.33.45.2.72a.49.49,0,0,0,.18.72c.52.4.51.42.14.91-.19.27-.47.5.07.69a.23.23,0,0,1,.16.2c.09.69.48.51.88.31l.39-.22c.26.22.1.35-.06.45a6.06,6.06,0,0,1-.66.36,1,1,0,0,0-.64,1.38c.09.28.14.45-.13.63-.1.06-.2.25-.11.32.68.61,0,1.37.24,2,.09.23.16.48.25.73.22.58.77,1,.85,1.62.05.48.53.31.88.41-.26.48-.76.93-.19,1.5.09.09.07.31,0,.34-.7.19-.31.63-.3,1s.08.8.55.95c0,0,0,.05.07.06.35.24-.18.6.12.85s.52.2.54.57a26.42,26.42,0,0,0,.76,2.59,13.36,13.36,0,0,1,.65,2.58.66.66,0,0,0,.06.27,7,7,0,0,1,.72,2.57,1.69,1.69,0,0,0,.72,1.64c.13.07.11.28.11.44s0,.34.1.45c.9.68,1.13,1.81,1.8,2.64.34.42.51,1,1,1.29a.65.65,0,0,1,.31.46,3.63,3.63,0,0,0,.65,1.34,8.36,8.36,0,0,1,.87,2.47,4.93,4.93,0,0,0,.5,1.18,28.62,28.62,0,0,1,1.48,3,10.42,10.42,0,0,0,.74,1.09,16.74,16.74,0,0,0,1.72,2.43c.57.68.87,1.6,1.65,2.16.11.07.08.3.16.43.28.51.37,1.13.9,1.5a.55.55,0,0,1,.23.29c.29,1,1.18,1.66,1.55,2.62a.94.94,0,0,0,.4.51,1,1,0,0,1,.44.47c.48,1.28,1.77,1.88,2.45,3,.52.85,1.43,1.38,1.83,2.32.06.14.16.32.28.36.44.15.52.44.48.87a.79.79,0,0,0,.23.5c.37.45.72,1,1.09,1.37.52.57.82,1.28,1.33,1.78a5,5,0,0,1,1.42,1.63c1.32.54,2,1.89,3.11,2.61.53.33.89.89,1.49,1.12a.87.87,0,0,1,.22.17c.4.32.15,1.17,1.11,1.1.47,0,.79.83,1.23,1a1.18,1.18,0,0,1,.74,1,.35.35,0,0,0,.49.3c.4-.1.67-.09.68.44a.71.71,0,0,0,.59.66,3,3,0,0,1,1.25.63c.45.36,1,0,1.33.22s.44.74.79,1a.48.48,0,0,0,.45,0,.42.42,0,0,1,.44.09,2.27,2.27,0,0,0,1.55.75,2.92,2.92,0,0,1,1.4.73,13.77,13.77,0,0,0,3.29,2.19c.84.44,1.45,1.32,2.5,1.37a.14.14,0,0,1,.09,0c.58.89,1.63,1,2.46,1.49a7.55,7.55,0,0,0,.89.65,11.19,11.19,0,0,0,3,1.22,17.46,17.46,0,0,1,2.5,1c.13,0,.28.26.4.17.59-.43,1,.1,1.42.31a6.11,6.11,0,0,0,1.6.47,6,6,0,0,1,2.47,1.07,8,8,0,0,0,6.37,1.72,3.24,3.24,0,0,1,1.12,0,7.66,7.66,0,0,0,3.09,0,14.06,14.06,0,0,1,3.1.2c.31,0,.69.22,1.1.22s.52.09.63-.31c.06-.22.38-.18.46,0,.29.54.81.41,1.25.47a9.93,9.93,0,0,0,1.22,0,3.86,3.86,0,0,1,2.45.36c.13.1.29.06.45.07.62,0,1.25-.19,1.83.34a.82.82,0,0,0,1-.14c.2-.24.35-.2.63-.09a2,2,0,0,0,1.53.19.28.28,0,0,1,.18,0c1.06.45,2.16-.17,3.23.13.78-.63,1.84.07,2.62-.55.21-.16.41,0,.62,0a4.17,4.17,0,0,0,2.59.06.59.59,0,0,1,.45,0,.77.77,0,0,0,1.08-.22.48.48,0,0,1,.68-.11.63.63,0,0,0,.63.06,2.26,2.26,0,0,1,2-.11,2.07,2.07,0,0,0,1.38-.14,4.81,4.81,0,0,1,3.26-.24,1.64,1.64,0,0,0,1.5-.53c.29-.3.49-.45.85-.12a.83.83,0,0,0,.9.12,6.2,6.2,0,0,1,2.77-.19c.16,0,.37.05.46,0,.72-.64,1.65-.39,2.46-.62a4.2,4.2,0,0,1,1.54-.38,6.46,6.46,0,0,0,1.18-.13c.68,0,1-.78,1.65-.77,0,0,.05,0,.06-.06.11-.28,0-.72.48-.7a3,3,0,0,1,.87.3,7.25,7.25,0,0,0,.87.36c.35.1.73.14.66-.43,0-.15,0-.23.16-.25a2.42,2.42,0,0,0,.47-.06c.19-.06.49.06.54-.24s-.13-.38-.38-.46-.25-.37-.1-.58a.94.94,0,0,1,1.34-.2,3,3,0,0,0,1.07.28.63.63,0,0,0,.45-.07c.21-.17.35-.44.64-.53S147.68,203.71,147.84,203.48Z"/><path class="cls-1" d="M104.86,159.69c-.2,0-.28.12-.32.28a.15.15,0,0,0,.16.17.28.28,0,0,0,.32-.24C105,159.78,105,159.7,104.86,159.69Zm0,0c-.2,0-.28.12-.32.28a.15.15,0,0,0,.16.17.28.28,0,0,0,.32-.24C105,159.78,105,159.7,104.86,159.69Zm-33.09-97c-.14,0-.18.13-.2.25a.29.29,0,0,0,.32.24A.18.18,0,0,0,72,63C72,62.85,72,62.7,71.77,62.71Zm33.09,97c-.2,0-.28.12-.32.28a.15.15,0,0,0,.16.17.28.28,0,0,0,.32-.24C105,159.78,105,159.7,104.86,159.69Zm0,0c-.2,0-.28.12-.32.28a.15.15,0,0,0,.16.17.28.28,0,0,0,.32-.24C105,159.78,105,159.7,104.86,159.69Zm-33.09-97c-.14,0-.18.13-.2.25a.29.29,0,0,0,.32.24A.18.18,0,0,0,72,63C72,62.85,72,62.7,71.77,62.71Zm125.34,32a2.85,2.85,0,0,0-1.2-.18,26.71,26.71,0,0,1-3-.08,10.23,10.23,0,0,0-2.34-.11c-1,.11-2,.07-3,.16-1.59.15-3.2.12-4.8.13a9.2,9.2,0,0,0-2.22.29c-.64.16-1.29.3-1.93.4a14.78,14.78,0,0,0-2.78.35c-1.89.67-3.93.73-5.77,1.56-.87.4-1.21.06-1.13-.9a49.78,49.78,0,0,0-.08-8.46c-.16-1.87-.66-3.7-.77-5.57-.05-.77-.42-1.43-.53-2.18a13.43,13.43,0,0,0-1.07-4.63,1.22,1.22,0,0,1-.09-.27,10.58,10.58,0,0,0-.81-3.23,24.26,24.26,0,0,1-.83-2.66c-.39-1.23-.9-2.41-1.35-3.61-.29-.75-.52-1.54-.87-2.26-.5-1-.91-2.07-1.35-3.1-.61-1.4-1.38-2.73-2-4.14-.85-2-2.2-3.77-3.17-5.74-.37-.76-.94-.84-1.71-.41-.53.29-.94.73-1.44,1.05-1.17.74-2,2-3.46,2.31-.1,0-.18.15-.27.24a9.3,9.3,0,0,1-3.14,2.6c-.13.06-.22.21-.35.3-.91.72-1.72,1.54-2.56,2.34a34.53,34.53,0,0,0-2.75,2.66A12.8,12.8,0,0,1,139.1,63a21.48,21.48,0,0,0-1.78,1.79c-.5.54-.88.52-1.22-.14s-.73-1.6-1.19-2.35c-.56-.91-.81-2-1.36-2.86-.81-1.33-1.65-2.65-2.35-4a20.89,20.89,0,0,0-1.15-1.93c-1.13-1.72-2.26-3.44-3.43-5.13A20.78,20.78,0,0,0,125.13,46c-.88-1-1.75-1.93-2.59-2.93a17.46,17.46,0,0,1-1.65-1.92c-.55-.89-1.3-1.59-1.89-2.42s-1.22-1.2-1.64-1.91c-.58-1-1.53-1.57-2.1-2.51a1.54,1.54,0,0,0-.51-.39,8.34,8.34,0,0,1-2-1.79,10.33,10.33,0,0,0-1.81-1.75.64.64,0,0,0-1.05.09c-.65.77-1.52,1.3-2.09,2.13a19.51,19.51,0,0,1-2.2,2.16c-1.16,1.23-2.17,2.59-3.36,3.79a10.75,10.75,0,0,0-1.06,1.19,16.18,16.18,0,0,1-2.28,2.47.53.53,0,0,0-.23.28,4.63,4.63,0,0,1-1.26,1.83,27.54,27.54,0,0,0-3.09,4.36A3.37,3.37,0,0,1,93,50.15a.76.76,0,0,0-.51.72,1.86,1.86,0,0,1-.58,1.25,3.87,3.87,0,0,0-1.08,1.94,1.2,1.2,0,0,1-.58.8,1.52,1.52,0,0,0-.88,1.44,1,1,0,0,1-.3.67,8.82,8.82,0,0,0-1.14,1.82,44.39,44.39,0,0,0-2.72,5.43c-.37.83-.79.93-1.47.26l-1.85-1.87c-.62-.62-1.2-1.28-1.8-1.92-.79-.83-1.66-1.6-2.52-2.37S75.88,56.84,75,56.16c-.37-.28-.81-.46-1.18-.76-.94-.78-1.58-1.93-2.83-2.34L70.9,53c-1.1-1-2.47-1.56-3.47-2.65a2.64,2.64,0,0,0-.8-.5c-.52-.23-1.25,0-1.36.46a8.88,8.88,0,0,1-1,2,46.53,46.53,0,0,0-3.07,6.11,3.06,3.06,0,0,1-.35.67,16.92,16.92,0,0,0-1.19,2.32c-.47,1.12-.91,2.26-1.41,3.36a33.44,33.44,0,0,1-1.39,3.65.25.25,0,0,0,0,.09A3.7,3.7,0,0,1,56.34,70a28.66,28.66,0,0,0-1.2,3.82c-.2.59-.29,1.22-.52,1.8A4.86,4.86,0,0,0,54.27,77,3.52,3.52,0,0,1,54,78.15a10.65,10.65,0,0,0-.68,3.94,6.06,6.06,0,0,1-.51,2.46,3.35,3.35,0,0,0-.28,1.28c-.07,1.16-.1,2.32-.14,3.48l0,.94a29.34,29.34,0,0,0,.14,6.07c.11.66-.11,1.24-1,1s-1.79-.57-2.69-.82a19.94,19.94,0,0,0-4.75-1,21.68,21.68,0,0,1-3.7-.64,7.88,7.88,0,0,0-1.66-.22c-3,0-6-.3-9.19-.25-1.48-.09-3.11.1-4.73.14a2.14,2.14,0,0,0-.56.11.64.64,0,0,0-.51.69c.05.87.09,1.74.19,2.6.15,1.29,1,2.45.85,3.81a1.07,1.07,0,0,0,.24.61,5,5,0,0,1,.67,2,7.58,7.58,0,0,0,.45,1.71,23.65,23.65,0,0,1,1,3.2,10.15,10.15,0,0,0,.62,1.86A27,27,0,0,1,29,114.36c.27.83.56,1.66.89,2.47a46.45,46.45,0,0,0,2.95,6.06c.8,1.34,1.56,2.7,2.35,4,.47.8,1,1.54,1.52,2.35s1,1.5,1.52,2.23a12.64,12.64,0,0,0,1,1.56,3.53,3.53,0,0,1,.88,1.3.88.88,0,0,0,.31.46,11.84,11.84,0,0,1,2,2.24,26,26,0,0,0,4.14,4.12,3.36,3.36,0,0,1,.57.62,2.26,2.26,0,0,0,.54.53c1.59,1,3,2.28,4.56,3.3.43.27.91.43,1.31.74.89.7,2.06.89,2.93,1.63a.49.49,0,0,0,.25.1,1.49,1.49,0,0,1,1.11.64,1.35,1.35,0,0,0,.86.53c.27,0,.61-.06.63.37a.86.86,0,0,1-.2.79,3.65,3.65,0,0,0-.64,1.14,25.32,25.32,0,0,0-1,2.41c-.62,1.59-1.39,3.11-1.91,4.74-.79,2.5-2,4.85-2.32,7.5,0,.11-.11.22-.15.34a2.27,2.27,0,0,0,2.07,3,5.09,5.09,0,0,1,2,.41,6.09,6.09,0,0,0,1.25.34c1.2.23,2.47,0,3.62.47a10.23,10.23,0,0,0,2.56.53c.84.09,1.69.1,2.52.25a49.64,49.64,0,0,0,6.43.63c1.9.09,3.82,0,5.72,0a32.36,32.36,0,0,0,6.28-.91,26.84,26.84,0,0,0,4.82-1.49,18.77,18.77,0,0,0,4.51-2.39,20.57,20.57,0,0,0,3.37-3.61c.44-.6.67-.63,1.2-.05.69.76,1.38,1.52,2.11,2.25a6.57,6.57,0,0,0,1.63,1.39c.7.36,1.36.77,2,1.15a10,10,0,0,0,2.43.91,15.75,15.75,0,0,0,3.16.31,24.52,24.52,0,0,0,2.72-.18c.52,0,1.14.09,1.56-.23.91-.7,2.07-.8,3-1.47a16.72,16.72,0,0,0,2.66-1.86c.43-.45.9-.87,1.37-1.28s.63-.37,1,0a3.34,3.34,0,0,1,.78.81,4.58,4.58,0,0,0,1,1.09,15.81,15.81,0,0,0,3.38,2.31c1.25.6,2.57,1.07,3.86,1.59.26.1.56.12.81.23a7.57,7.57,0,0,0,3.18.71,4.06,4.06,0,0,1,1.3.14,20.21,20.21,0,0,0,5.3.61,51.76,51.76,0,0,0,5.84-.08c1.28-.1,2.55-.27,3.82-.4,1.62-.16,3.23-.36,4.84-.53a4.42,4.42,0,0,0,2.34-.52,2,2,0,0,1,.92-.17,5,5,0,0,0,2.2-.32,6.23,6.23,0,0,1,2.42-.59,9.94,9.94,0,0,1,1.21-.13,1,1,0,0,0,.84-.55,3.22,3.22,0,0,0,.39-2.17,11.2,11.2,0,0,1-.46-2.29,2,2,0,0,0-.34-.86,2.38,2.38,0,0,1-.49-1.21c0-1.47-.8-2.67-1.23-4-.31-.94-.8-1.82-1.17-2.75a38.1,38.1,0,0,0-2-4.55,2.22,2.22,0,0,1-.31-1c0-.38.05-.68.47-.8.93-.28,1.62-1.06,2.58-1.29a.89.89,0,0,0,.38-.26,2.37,2.37,0,0,1,1.31-.7.82.82,0,0,0,.5-.24c.54-.75,1.44-1,2.16-1.43a34,34,0,0,0,3.87-2.76,17.83,17.83,0,0,0,2.54-2.45,1.9,1.9,0,0,1,.21-.19,19.69,19.69,0,0,0,2.54-2.46,42.87,42.87,0,0,0,4.73-5.93c.33-.57.93-.94,1.14-1.59a6.37,6.37,0,0,1,.71-1.31c.41-.67.86-1.3,1.26-2,.53-.91,1-1.86,1.59-2.75a19.38,19.38,0,0,0,1.77-3.3,13.29,13.29,0,0,0,1.24-3.11,1,1,0,0,1,.14-.35,40.18,40.18,0,0,0,2.19-5,35.35,35.35,0,0,0,1.68-4.54c.37-1.3.67-2.63,1.07-3.94a9.75,9.75,0,0,1,.56-2.34,2.67,2.67,0,0,0,.36-1.34,7.13,7.13,0,0,1,.6-3.11,6.31,6.31,0,0,0,.33-1.17C197.77,95.17,197.5,94.9,197.11,94.72Zm-58.6-26.38a19.63,19.63,0,0,0,1.66-1.9,10.74,10.74,0,0,1,2.16-2.2c1.49-1.13,2.66-2.57,4-3.8.7-.62,1.44-1.19,2.09-1.88a15.53,15.53,0,0,1,1.4-.94,12.7,12.7,0,0,0,1.43-1.21,23.28,23.28,0,0,1,2.17-1.64.53.53,0,0,1,.77-.06c.41.46,1,.85,1,1.54,0,.34.27.52.41.78A13.14,13.14,0,0,1,157,59.26c.31.94.86,1.8,1.22,2.74.79,2,2,3.93,2.44,6.1.92,1.07.64,2.61,1.44,3.73a.14.14,0,0,1,0,.09c.2,1.49.82,2.88,1.13,4.35a6.24,6.24,0,0,0,.34,1.37,13.3,13.3,0,0,1,.71,2.91,43.22,43.22,0,0,1,.9,5.86c.16,2.19.71,4.36.39,6.57a19.42,19.42,0,0,1-.12,4.88,42,42,0,0,1-1.28,7.7,7.59,7.59,0,0,1-.84,2.48.81.81,0,0,0-.09.45,10.46,10.46,0,0,1-.65,3c-.34,1.21-.8,2.38-1.25,3.53a40.86,40.86,0,0,1-2.14,5c-.45.8-.69,1.68-1.11,2.49-.63,1.23-1.38,2.39-2.09,3.57-.81,1.37-1.65,2.72-2.54,4-.6.88-1.32,1.67-2,2.51a5.61,5.61,0,0,0-.72,1c-.32.71-.85.78-1.55.28-.49-.34-1.06-.55-1.53-.89-.82-.59-1.88-.69-2.66-1.35a2,2,0,0,0-.72-.22,5.74,5.74,0,0,1-.82-.19,10.54,10.54,0,0,0-4-.66,14.17,14.17,0,0,0-5.95.72,4.22,4.22,0,0,1-1,.21,1.64,1.64,0,0,0-1.26.5.33.33,0,0,1-.5.05.29.29,0,0,1,.08-.48c.42-.26.46-.71.65-1.1.32-.67.83-1.24,1.17-1.92,1-2.08,2.28-4,3.25-6.14.83-1.79,1.51-3.65,2.34-5.44a.49.49,0,0,0,.06-.17c.14-1.43.92-2.65,1.33-4s.75-2.85,1.31-4.22a3.82,3.82,0,0,0,.24-1.2,8.23,8.23,0,0,1,.45-2.31,11.67,11.67,0,0,0,.55-3.61,12.17,12.17,0,0,1,.44-2.88,7,7,0,0,0,.16-1A61.21,61.21,0,0,0,143,90a12.39,12.39,0,0,0-.48-2.88c-.34-1.25-.12-2.57-.37-3.84-.12-.55-.21-1.1-.36-1.65-.22-.78-.37-1.59-.52-2.39-.32-1.7-.9-3.33-1.36-5-.35-1.24-1-2.38-1.21-3.66a2.73,2.73,0,0,0-.32-.67C138,69.26,138,68.9,138.51,68.34ZM83.45,78.71a6.11,6.11,0,0,0,.65-2.44,2.39,2.39,0,0,1,.19-.83c.52-1.14.74-2.39,1.36-3.5a19.07,19.07,0,0,0,.87-2.78,4.78,4.78,0,0,1,.84-1.67,2.1,2.1,0,0,0,.52-1,2.17,2.17,0,0,1,.54-1.08.69.69,0,0,0,.2-.31c.3-1.34,1.24-2.4,1.63-3.69a1.89,1.89,0,0,1,.49-.79,2.44,2.44,0,0,0,.61-1.05,11.29,11.29,0,0,1,2.34-3.79,11.12,11.12,0,0,0,1.64-2.59,9.73,9.73,0,0,1,1.41-2.31,3,3,0,0,0,.62-1,1.22,1.22,0,0,1,.34-.55,35,35,0,0,0,2.8-3.41c1.11-1.23,1.91-2.71,3-3.93s2.36-2.51,3.59-3.72c.8-.78,1.48-1.7,2.21-2.56a5.08,5.08,0,0,1,.41-.51,1,1,0,0,1,1.57,0c.5.52,1,1.09,1.43,1.63a37.3,37.3,0,0,1,3.59,4c.84,1.26,2.06,2.17,2.86,3.46a14.45,14.45,0,0,0,1.65,2,38,38,0,0,1,2.35,3.16,6.46,6.46,0,0,1,1.36,2.13c0,.05.06.13.11.15.71.33.9,1.08,1.33,1.63a23.41,23.41,0,0,1,1.37,2.23,61.41,61.41,0,0,1,3.28,5.59,54.05,54.05,0,0,1,2.46,5.08c.67,1.75,1.48,3.45,2.2,5.18a23.45,23.45,0,0,1,.8,2.41c.41,1.42.94,2.79,1.32,4.21a37.88,37.88,0,0,1,.92,4.7,4.91,4.91,0,0,0,.25.8A7.84,7.84,0,0,1,139,86c0,2.33.19,4.65.33,7a32,32,0,0,1-.14,3.38c-.09,1.7-.19,3.39-.28,5.09a2.76,2.76,0,0,1-.07.65,43.18,43.18,0,0,0-.93,4.32c-.58,2.47-1.39,4.88-2.15,7.31-.51,1.61-1.25,3.12-1.88,4.68s-1.33,3.11-2.08,4.62a31.72,31.72,0,0,1-2.05,3.69,12.22,12.22,0,0,0-.59,1.07q-1.48,2.65-3.11,5.23c-.79,1.25-1.73,2.37-2.55,3.59a21.23,21.23,0,0,1-2.13,2.74c-.66.7-1.15,1.56-1.76,2.31s-1,.89-1.89.24a3,3,0,0,0-1.72-.67,2.1,2.1,0,0,1-1.14-.38,2.89,2.89,0,0,0-1.7-.48l-3.69,0a4.67,4.67,0,0,0-1.38.25,8.67,8.67,0,0,1-2.18.58.61.61,0,0,0-.36.11c-.59.63-1.47.81-2.12,1.37s-1,.42-1.31-.29a3.22,3.22,0,0,0-.66-.9,35.23,35.23,0,0,1-3.69-4.49c-.93-1.28-1.88-2.57-2.74-3.91s-1.78-2.67-2.56-4.06c-1.25-2.21-2.44-4.45-3.59-6.71-.73-1.45-1.31-3-2-4.44s-1-2.9-1.75-4.25A1.45,1.45,0,0,1,85,113a4.66,4.66,0,0,0-.65-2,1.21,1.21,0,0,1-.19-.53c-.19-1.72-.91-3.32-1.17-5-.21-1.48-.68-2.92-.85-4.42-.19-1.78-.39-3.56-.5-5.35a24.55,24.55,0,0,1-.25-3.23c.24-2,.48-3.94.73-5.93,0-.25,0-.5.08-.74a14.81,14.81,0,0,1,.48-2.88,7.85,7.85,0,0,0,.42-2.59A3.23,3.23,0,0,1,83.45,78.71Zm-27.34,8A19,19,0,0,0,56.35,84,7.91,7.91,0,0,1,57,80.82a3.26,3.26,0,0,0,.2-1.1,14.11,14.11,0,0,1,.66-2.93,33.29,33.29,0,0,0,1.3-4.72.52.52,0,0,1,0-.18,20,20,0,0,0,1.06-3.08,42.64,42.64,0,0,1,1.58-4,48.58,48.58,0,0,1,2.37-5c.44-.68.52-1.54,1-2.21.17-.22.27-.5.52-.66a.8.8,0,0,0,.36-.77c0-.72.64-1.13,1.12-1.55.25-.21.62,0,.84.26,1.6,1.6,3.54,2.78,5.23,4.26,1.41,1.25,2.83,2.48,4.21,3.76s2.59,2.46,3.83,3.75a13.29,13.29,0,0,1,1.35,1.92,1.61,1.61,0,0,1-.12,1.63,15.5,15.5,0,0,0-1.22,3.24c-.41,1.46-.47,3-1.27,4.37C79.93,79.89,79,81.85,79,84a10.52,10.52,0,0,1-.4,2.13,7.64,7.64,0,0,0-.16,2.33,20,20,0,0,1-.16,3,53.58,53.58,0,0,0,.15,7.91c.11,1.92.75,3.75.86,5.67a4,4,0,0,0,.37,1.36,4.31,4.31,0,0,1,.39,1.93,2.45,2.45,0,0,0,.32,1.36,5.34,5.34,0,0,1,.61,1.87,5.08,5.08,0,0,0,.52,1.7c.46.87.49,1.88.89,2.77.77,1.72,1.35,3.54,2.18,5.21a67.24,67.24,0,0,0,3.28,6.23c.57.9,1,1.87,1.57,2.79.27.45.61.87.9,1.32a.39.39,0,0,1,0,.52c-.11.14-.29.11-.44.08a1.41,1.41,0,0,1-.84-.38,1.46,1.46,0,0,0-1.21-.4,4.59,4.59,0,0,1-1.92-.4,5.61,5.61,0,0,0-2.84-.42,6.6,6.6,0,0,1-1.6,0,8,8,0,0,0-3.86.58c-.87.34-1.82.44-2.68.85a23.64,23.64,0,0,0-2.86,1.62c-.84.55-1.09.57-1.73-.24-.78-1-1.53-2-2.26-3-1.62-2.26-3-4.64-4.43-7a32.8,32.8,0,0,1-1.52-3A27.87,27.87,0,0,1,60.74,117a9.8,9.8,0,0,0-1.36-3.19,1.24,1.24,0,0,1-.23-.51c-.15-1.22-.76-2.33-.9-3.55a2.11,2.11,0,0,0-.28-.9,5.08,5.08,0,0,1-.68-2.6,4,4,0,0,0-.7-2.21c-.53-.73-.28-1.58-.34-2.33a9,9,0,0,0-.53-4,2.37,2.37,0,0,1-.14-.83c0-1.92-.06-3.84,0-5.75A23.13,23.13,0,0,1,56.11,86.75Zm.06,57.3c-1.3-.81-2.57-1.67-3.87-2.47a46.14,46.14,0,0,1-4.84-4A24.54,24.54,0,0,1,44.94,135c-1.88-2.14-3.51-4.48-5.23-6.76a7.73,7.73,0,0,1-1.05-1.77c-.36-.93-1.25-1.6-1.27-2.69a.29.29,0,0,0-.16-.21c-.83-.22-1-1-1.28-1.63-.67-1.59-1.42-3.14-2.14-4.7-.82-1.75-1.36-3.63-2.29-5.33a.36.36,0,0,1-.07-.17,9.87,9.87,0,0,0-1.11-3.18,7.47,7.47,0,0,1-.56-2.17,3.9,3.9,0,0,0-.59-1.67,2.29,2.29,0,0,1-.32-.67,47.16,47.16,0,0,1-1.28-5.5c-.07-.6.14-.85.8-.86,1.26,0,2.52,0,3.23,0,2.27.19,4,0,5.71.39a35.6,35.6,0,0,0,3.53.59,9.74,9.74,0,0,0,1.32.08,4,4,0,0,1,2.36.48,1.68,1.68,0,0,0,1,.28,10.92,10.92,0,0,1,3.58.72,12.06,12.06,0,0,0,1.47.34,2.77,2.77,0,0,1,2.44,2,39.41,39.41,0,0,1,1,4.78,23.11,23.11,0,0,0,1.45,4.47,5.11,5.11,0,0,1,.42,1.43,11.31,11.31,0,0,0,.62,2.35c.36,1.11.92,2.12,1.3,3.22a13.8,13.8,0,0,0,1.33,3.09c.32.51.36,1.13.69,1.64.72,1.14,1.28,2.37,2.08,3.46a1.46,1.46,0,0,1,.23.61,1.41,1.41,0,0,0,.48.89,1.16,1.16,0,0,1,.26.28c1.31,2.28,3,4.27,4.55,6.41a5.59,5.59,0,0,0,.57.62c.39.43.41.73,0,1.15-.69.76-1.41,1.5-2.1,2.27a13.88,13.88,0,0,0-.83,1.14l-3.58,5a2.11,2.11,0,0,0-.18.33c-.34.83-.32.76-1.1.44A29.65,29.65,0,0,1,56.17,144.05Zm43.5,2a10.93,10.93,0,0,0-1.79,3.15,1.5,1.5,0,0,1-.32.67,2.15,2.15,0,0,0-.62,1.81,11.06,11.06,0,0,1-.29,2.43,4,4,0,0,0,0,1.68,31,31,0,0,1,.39,3.18,1.91,1.91,0,0,1-.45,1.47,20.84,20.84,0,0,1-2.26,2.89,25.48,25.48,0,0,1-2.74,2.1,26.13,26.13,0,0,1-3.2,1.55,2.84,2.84,0,0,1-.81.26,6.92,6.92,0,0,0-1.88.57,3.45,3.45,0,0,1-1,.23c-1.55.21-3.12.28-4.67.55a20.71,20.71,0,0,1-4.24.18,35.11,35.11,0,0,1-6.39-.46c-1.16-.23-2.38-.05-3.57-.25-2-.34-4-.63-5.94-1-.86-.16-1.69-.48-2.57-.6-.61-.08-.69-.37-.4-.93.08-.14.22-.27.22-.41,0-1.4.73-2.59,1.15-3.85a27,27,0,0,1,1.48-4,13.55,13.55,0,0,0,1.13-2.69,6.1,6.1,0,0,1,.5-1.11c.08-.17.24-.32.26-.5.15-1.05,1-1.81,1.19-2.84.11-.49.55-.83.82-1.25a19.13,19.13,0,0,1,1.77-2.77,1.11,1.11,0,0,0,.32-.67,1.52,1.52,0,0,1,.41-.83c1-1.19,1.81-2.56,2.84-3.75A12.06,12.06,0,0,1,70.83,139c.74-.54,1.32-1.24,2-1.8a15.81,15.81,0,0,1,2.73-1.64c.42-.21.87-.37,1.27-.61a2.65,2.65,0,0,1,1.35-.36,7.44,7.44,0,0,0,2-.33,6.24,6.24,0,0,1,3.63,0,7.22,7.22,0,0,0,2.69.37c.22,0,.51,0,.64.07.92.85,2.24.7,3.25,1.41.65.46,1.53.68,2.27,1.1a9.61,9.61,0,0,1,3.09,2.69,55.21,55.21,0,0,0,3.43,4.36,5.18,5.18,0,0,1,.47.58A.9.9,0,0,1,99.67,146Zm22.38,12.19a2.43,2.43,0,0,1-.22.81,12.57,12.57,0,0,1-4.19,5.2,6.24,6.24,0,0,1-3,1.42,11.23,11.23,0,0,0-1.89.55,7.15,7.15,0,0,1-3.89-.22c-.3-.08-.59-.2-.9-.27-.69-.17-1.46-.19-1.91-.87-1.11-.33-1.79-1.24-2.67-1.88a4,4,0,0,1-1-1.08c-.33-.5-.65-1-1-1.49-.06-.11-.15-.21-.2-.32a12.25,12.25,0,0,1-.76-7.91,12.91,12.91,0,0,1,1.3-3,9.39,9.39,0,0,1,1.86-2.45,6,6,0,0,1,2.18-1.4c.09,0,.21-.05.26-.11.53-.8,1.38-.75,2.18-.88a2.67,2.67,0,0,0,.72-.2,6.58,6.58,0,0,1,5.22.14c.08,0,.18.13.25.11,1.12-.22,1.89.56,2.73,1a9.07,9.07,0,0,1,3,2.69c.6.84,1.13,1.71,1.7,2.57a1.23,1.23,0,0,1,.27.68,31.74,31.74,0,0,1,.19,3.58A21.85,21.85,0,0,1,122.05,158.21Zm39.86,1.46c.5,1.65,1.22,3.23,1.62,4.91a4.38,4.38,0,0,0,.37.86c.33.68.13,1-.62,1.05h-.23a1.43,1.43,0,0,0-1,.11,17.85,17.85,0,0,1-4.49,1c-.81.1-1.62.23-2.42.38a17.75,17.75,0,0,1-2.72.25,8.89,8.89,0,0,0-2.61.36,2.86,2.86,0,0,1-.93.1c-1.95,0-3.9,0-5.85.08a14.85,14.85,0,0,1-2.9-.28c-.65-.12-1.31-.18-2-.26a9.91,9.91,0,0,1-2.95-.58,3.15,3.15,0,0,0-.82-.18,10.94,10.94,0,0,1-4.28-1.59,2,2,0,0,0-.69-.29,1.38,1.38,0,0,1-.8-.47,1,1,0,0,0-.34-.32c-1.16-.52-1.81-1.61-2.7-2.43a5.57,5.57,0,0,1-.64-.92,1.11,1.11,0,0,1-.07-1c.35-1.13.68-2.28,1-3.43a8.52,8.52,0,0,0,.1-3.48,15.38,15.38,0,0,0-3.09-7.48A8.49,8.49,0,0,0,122,145a.45.45,0,0,1,0-.67,8.52,8.52,0,0,1,.62-.71,3.18,3.18,0,0,0,.87-1.32,1.52,1.52,0,0,1,.42-.62,17.68,17.68,0,0,0,2.39-3.12,3.77,3.77,0,0,1,1.44-1.17,33,33,0,0,1,5.05-2.25,9.37,9.37,0,0,1,2.55-.57,6.55,6.55,0,0,0,2-.3,5,5,0,0,1,3.33,0,2,2,0,0,0,.82.2,7.93,7.93,0,0,1,3.89,1.14,15.54,15.54,0,0,1,2.86,1.79,33.28,33.28,0,0,1,4.92,5.15,16.56,16.56,0,0,1,1.86,2.7c.41.79,1,1.5,1.44,2.3a13.87,13.87,0,0,1,1.54,3,1.39,1.39,0,0,0,.39.63,1,1,0,0,1,.29.36c.44,1.35,1.27,2.52,1.74,3.85S161.47,158.2,161.91,159.67ZM193.42,99c-.12.26-.35.51-.36.76-.05,2-1.19,3.76-1.33,5.75a2.05,2.05,0,0,1-.26.7,4.46,4.46,0,0,0-.56,1.89.81.81,0,0,1-.08.45c-.77,1-.78,2.23-1.38,3.27a13.9,13.9,0,0,0-1.07,2.71,4.11,4.11,0,0,1-.86,1.75,1,1,0,0,0-.25.39,25,25,0,0,1-1.41,3.39,7,7,0,0,1-.91,1.64,20.28,20.28,0,0,0-1,2.09c-.75,1.24-1.51,2.46-2.26,3.69a58.19,58.19,0,0,1-5.25,7c-1.43,1.68-3,3.19-4.58,4.73a2.93,2.93,0,0,1-.84.6,4.11,4.11,0,0,0-1.2,1,6.14,6.14,0,0,1-1.74,1.24c-1.28.63-2.33,1.6-3.57,2.27a12.12,12.12,0,0,1-3,1.39,2.31,2.31,0,0,0-.89.5c-.54.42-.91.37-1.18-.27s-1-1.19-1.08-2c-.53-.38-.73-1-1.13-1.48-1-1.21-1.88-2.5-2.81-3.75-.34-.45-.75-.85-1.12-1.27-.52-.58-.55-.81-.11-1.39,1.15-1.49,2.33-3,3.46-4.47.86-1.15,1.55-2.42,2.35-3.61s1.31-2.48,2-3.69a2.41,2.41,0,0,1,.4-.63,1.07,1.07,0,0,0,.33-.45c.33-1.37,1.32-2.44,1.66-3.78.29-1.13.87-2.15,1.16-3.28a.19.19,0,0,1,0-.08c1-1.19.67-2.87,1.54-4.09.23-1.75,1.25-3.29,1.3-5.09a4.83,4.83,0,0,1,.34-1.37,11.23,11.23,0,0,0,.58-3.14,1.32,1.32,0,0,1,1.07-1.35,41.25,41.25,0,0,1,5.46-1.4,6.38,6.38,0,0,0,1.72-.48,4.11,4.11,0,0,1,1.65-.35A22,22,0,0,0,184.1,98a17.93,17.93,0,0,1,4.14-.22c1.51,0,3-.06,4.53-.06.63,0,.87.2.89.61A1.34,1.34,0,0,1,193.42,99Zm-88.56,60.68c-.2,0-.28.12-.32.28a.15.15,0,0,0,.16.17.28.28,0,0,0,.32-.24C105,159.78,105,159.7,104.86,159.69Zm-33-96.49A.18.18,0,0,0,72,63c0-.15-.07-.3-.26-.29s-.18.13-.2.25A.29.29,0,0,0,71.89,63.2Zm33,96.49c-.2,0-.28.12-.32.28a.15.15,0,0,0,.16.17.28.28,0,0,0,.32-.24C105,159.78,105,159.7,104.86,159.69Zm0,0c-.2,0-.28.12-.32.28a.15.15,0,0,0,.16.17.28.28,0,0,0,.32-.24C105,159.78,105,159.7,104.86,159.69Z"/></svg>