<svg id="Layer_1" data-name="Layer 1" xmlns="http://www.w3.org/2000/svg" viewBox="0 0 214.38 214.82"><defs><style>.cls-1{fill:#ff7171;}</style></defs><path class="cls-1" d="M182,178.48c.28-.16.74-.24.37-.72-.12-.15-.33-.26-.15-.45a.4.4,0,0,1,.58.08c.45.54,1.06.45,1.63.47s.69-.18.6-.75c0-.2-.09-.38-.31-.42s-.38,0-.47.2-.15.36-.39.28a1.06,1.06,0,0,1-.69-.43.23.23,0,0,1,.19-.35c.35,0,.67-.06.86-.42.09-.16.27-.08.42,0a8.06,8.06,0,0,0,.86.38c.19.06.44,0,.4-.23-.1-.59.33-.59.68-.68s.44-.08.65-.13a.5.5,0,0,0,.45-.52c0-.35-.25-.29-.46-.29s-.37-.07-.34-.32.25-.33.48-.24c.47.17.55.05.71-.47a4.68,4.68,0,0,1,1.2-1.5,13.78,13.78,0,0,0,1.9-2.06,4.81,4.81,0,0,1,1.28-1.09c.67-.47,1.12-1.16,1.81-1.58.26-.15.49-.3.79,0-.35.49-.6,1.22-1.08,1.43-.74.33-.9,1-1.41,1.48-.24.22-.51.41-.38.77s.51.08.76.26a2.38,2.38,0,0,1-.79,1.53c-1.11.95-1.78,2.27-2.85,3.25a16.72,16.72,0,0,0-1.7,2.24c-.78,1-1.76,1.79-2.62,2.71-1.27,1.35-2.58,2.66-3.84,4-.65.7-1.42,1.24-2.12,1.86-1.67,1.48-3.33,3-5,4.42-1.33,1.15-2.84,2.06-4.26,3.1a12.87,12.87,0,0,0-1.53,1.23,12.75,12.75,0,0,1-2,1.36c-1.31.91-2.71,1.69-4,2.55-1.83,1.16-3.75,2.15-5.63,3.2a1.35,1.35,0,0,1-.42.2,17,17,0,0,0-3.68,1.62,18.93,18.93,0,0,0-3.18,1.6c-.36.27-.78.13-1.15.32-1.78.87-3.7,1.4-5.5,2.21a38.68,38.68,0,0,1-6.24,2.07c-2,.52-4,1-6,1.44-2.39.53-4.81.87-7.2,1.38-2.21.47-4.45.64-6.68,1-.6.08-1.24,0-1.86,0-1.69.08-3.39.06-5.07.25a31.51,31.51,0,0,1-6.37-.09c-2.06-.18-4.12-.35-6.18-.48a56.25,56.25,0,0,1-6.61-.8c-2-.38-4-.61-5.92-1-2.2-.48-4.35-1.19-6.54-1.72A59.22,59.22,0,0,1,71,208.45c-1.32-.49-2.61-1.07-3.91-1.6-1-.41-2-.76-3-1.16-1.16-.46-2.24-1.11-3.38-1.63s-2.45-1.29-3.72-1.83a30.13,30.13,0,0,1-4.77-2.6c-2.43-1.6-5-3-7.31-4.78-2.49-1.91-5-3.75-7.39-5.81-.78-.67-1.49-1.43-2.3-2.08-1.35-1.08-2.56-2.31-3.8-3.51-.74-.72-1.38-1.55-2.1-2.29-1.62-1.71-3.29-3.37-4.77-5.21-.67-.83-1.18-1.78-1.91-2.57A47.56,47.56,0,0,1,18,167c-1.37-2.06-2.75-4.12-3.91-6.31-1-1.91-2-3.85-2.95-5.77-1.33-2.56-2.34-5.26-3.53-7.88a61.36,61.36,0,0,1-2.19-5.79,17.27,17.27,0,0,1-.67-2.54,8.52,8.52,0,0,1-.13-2.9,7.61,7.61,0,0,0-1.07-5.07,17.21,17.21,0,0,1-2.24-6.22c-.39-2.61-.59-5.23-.81-7.85A61.42,61.42,0,0,1,0,108.36c.11-2.09,0-4.2.29-6.28.12-.88,0-1.76,0-2.64.17-2.21.44-4.41.83-6.6.34-2,.59-4,.87-6a35.9,35.9,0,0,1,1.41-6,15.1,15.1,0,0,0,.45-1.63A45.79,45.79,0,0,1,5.5,74,27.11,27.11,0,0,0,6.82,70a.8.8,0,0,1,.11-.36c.63-.71.58-1.69,1-2.47a1.19,1.19,0,0,0,.13-.25,5.06,5.06,0,0,1,1.25-2.72,7.44,7.44,0,0,0,1.27-2.51,21.13,21.13,0,0,1,1.82-3.92c1.26-2.49,2.91-4.76,4.29-7.19A87.57,87.57,0,0,1,22.8,42c1.75-2.34,3.74-4.46,5.62-6.69s4-4,6.06-6A13.72,13.72,0,0,0,35.73,28,13.73,13.73,0,0,1,38,26.13a112.47,112.47,0,0,1,11.49-8.54c1-.65,2-1.32,3-1.95.82-.53,1.76-.83,2.59-1.35a53,53,0,0,1,7.23-3.8c1.29-.57,2.6-1.1,3.92-1.61.79-.3,1.49-.8,2.3-1.06,2.39-.77,4.78-1.53,7.14-2.38a44.31,44.31,0,0,1,5.13-1.52c2.42-.53,4.87-1,7.28-1.5,2.12-.48,4.28-.61,6.41-1a7.74,7.74,0,0,1,2.88,0A7.41,7.41,0,0,0,101.77,1a3.34,3.34,0,0,1,1-.19c1.87-.17,3.75,0,5.61-.14a2.34,2.34,0,0,0,1.29-.47c.38-.28.52-.22.8.24a.38.38,0,0,0,.5.11,2.6,2.6,0,0,1,1.8.2,3.28,3.28,0,0,0,.93.14c3,.17,6,.61,9.06,1,2,.25,3.89.77,5.84,1a40.65,40.65,0,0,1,5.59,1.23c2.17.61,4.3,1.35,6.46,2A53.53,53.53,0,0,1,146.16,8c2.87,1.25,5.84,2.29,8.58,3.82,1.61.9,3.22,1.81,4.85,2.68,2.86,1.53,5.5,3.39,8.21,5.15.44.29.92.51,1.36.83,1.84,1.37,3.56,2.88,5.39,4.25,1.08.81,2.14,1.63,3.14,2.54s2.21,2,3.26,3.12c.46.48,1,.79,1.52,1.24,1.85,1.75,3.37,3.8,5.12,5.65A30,30,0,0,1,190,39.93c1.39,1.86,2.73,3.75,4.14,5.59,2.06,2.67,3.7,5.6,5.55,8.4,1.29,2,2.18,4.1,3.31,6.13a28.5,28.5,0,0,1,1.71,3.35,4.81,4.81,0,0,1,.35,1.45,6.89,6.89,0,0,0,1.48,4,11.76,11.76,0,0,1,2,3.93c.77,2.42,1.38,4.89,2.17,7.3a50.86,50.86,0,0,1,1.61,6.66c.37,2,.66,4.06.94,6.1.13.89.38,1.76.47,2.67.18,1.77.34,3.53.4,5.32.08,2.19,0,4.39.26,6.58a26,26,0,0,1-.05,4.23c-.13,1.9-.38,3.8-.52,5.7a71.87,71.87,0,0,1-1.31,10c-.27,1.21-.52,2.44-.91,3.64-.33,1-.38,2.14-.61,3.21s-.52,2.05-.81,3.07c-.22.78-.35.82-1.22.44.09-.28.3-.09.44-.11.36-.06.49-.17.25-.56-.38-.64-.35-.7.29-1,.15-.08.34-.19.24-.33-.31-.41.22-.85-.07-1.26a.32.32,0,0,1,0-.27,2.77,2.77,0,0,0,.39-2.34c-.08-.54.47-.57.84-.74-.14-.29-.27-.57-.42-.84a.87.87,0,0,1-.1-.64c.31-.9.27-1.86.59-2.76a7.57,7.57,0,0,0,.05-5.08.76.76,0,0,1,0-.72.62.62,0,0,0,0-.64.93.93,0,0,1,.23-1.11c.14-.17.29-.37.14-.59a.63.63,0,0,1,.18-.91c.25-.22.17-.46,0-.64a.68.68,0,0,1-.07-1.13c.06-.07.15-.19.13-.23-.3-.68.07-1.46-.32-2.11a.92.92,0,0,1-.16-.81,4.56,4.56,0,0,0,.08-2.14,2.61,2.61,0,0,1,.26-1.63c.13-.23.25-.51,0-.66s-.33-.57-.31-.9c0-.5.11-1,.15-1.5a1,1,0,0,0-.16-.8c-.14-.14-.27-.33-.14-.51.37-.48,0-.79-.21-1.16s-.66-.8-.26-1.36a.32.32,0,0,0-.08-.43c-.44-.25-.24-.53-.12-.87s.38-.82-.09-1.2c-.17-.14-.12-.34,0-.52s.14-.44-.1-.56c-.42-.21-.29-.49-.14-.78a.89.89,0,0,0,0-.88,20.81,20.81,0,0,1-.48-2.17c-.18-.51-.08-1.11-.46-1.57a.32.32,0,0,1,0-.43c.36-.49.17-.87-.07-1.36a2.11,2.11,0,0,1-.25-1.53c.11-.41-.21-.94-.35-1.41,0-.09-.15-.17-.14-.24.13-1.15-.72-2.19-.35-3.37a.83.83,0,0,0-.31-.84,1.71,1.71,0,0,1-.58-1.16c0-.12-.1-.28,0-.35.71-1-.19-1.54-.69-2.13a1,1,0,0,1-.32-1,.68.68,0,0,0-.28-.89c-.07-.05-.18-.14-.17-.21.05-1-1-1.59-1.13-2.54a2.75,2.75,0,0,0-.37-.75c-.07-.13-.21-.27-.22-.4A15,15,0,0,0,203,71.1a14.59,14.59,0,0,0-.8-2.56c-.1-.19-.13-.47-.28-.59a1.76,1.76,0,0,1-.49-1.89c.06-.38.07-.71-.43-.74-.31,0-.41-.19-.49-.47-.2-.64-.83-1.13-.65-1.9-.61-.58-.46-1.73-1.53-2a.82.82,0,0,1-.47-.77,1.1,1.1,0,0,0-.58-1.14,5.28,5.28,0,0,1-.91-1.29c-.82-1.17-1.54-2.4-2.3-3.61a1.61,1.61,0,0,1-.46-1.18c0-.28,0-.79-.62-.72a.32.32,0,0,1-.38-.33,3.91,3.91,0,0,0-1.44-2.72,2.91,2.91,0,0,1-.62-1c-.17-.46-.19-1-.82-1.12-.18,0-.24-.27-.24-.48a1,1,0,0,0-.84-1c-.25-.09-.51-.19-.58-.44-.22-.76-.93-1.05-1.43-1.53a9.29,9.29,0,0,0-2.44-1.75c-.11,0-.29-.12-.3-.2-.08-.86-.94-.9-1.42-1.34A16.64,16.64,0,0,0,180.88,39a4,4,0,0,1-.92-.92,15.91,15.91,0,0,0-2.19-2.23c-.13-.12-.29-.09-.45-.11a.55.55,0,0,1-.47-.26A3,3,0,0,0,175,34.06c-.65-.25-1.1-.8-1.79-1-.89-.23-1.63-.81-2.52-1.06a4.75,4.75,0,0,1-2.15-1.47,3.7,3.7,0,0,0-1.14-.77,6.62,6.62,0,0,1-2.27-1.4c-.26-.28-.75-.36-1.12-.61a13.55,13.55,0,0,0-3-1.75,8.23,8.23,0,0,1-2.18-1.58c-.26-.2-.36-.57-.8-.42a.19.19,0,0,1-.15-.1c-.17-.71-.82-.64-1.32-.84a8,8,0,0,1-1.51-.71c-.69-.47-1.53-.65-2.22-1.13a6.18,6.18,0,0,1-1-.67c-.11-.12-.25-.29-.39-.24-1,.36-1.47-.6-2.23-.81-.09,0-.16-.14-.24-.13-1.45.06-2.43-.93-3.55-1.59a2.19,2.19,0,0,0-.7-.26,23.55,23.55,0,0,1-2.72-.69c-1.33-.34-2.6-.87-3.92-1.26s-2.54-.59-3.79-1-2.29-.57-3.46-.79a23.79,23.79,0,0,0-3.76-.18,8.14,8.14,0,0,1-1.1-.18,1.88,1.88,0,0,0-1.28,0c-.06,0-.16.07-.18.05-.59-.55-1.46-.15-2.09-.64-.32-.26-.74-.56-1.15-.06-.09.1-.27.12-.32,0-.3-.76-1.19-.26-1.6-.77-.09-.12-.3-.07-.43,0a1,1,0,0,1-.9.09c-.06,0-.13-.07-.18,0a1.45,1.45,0,0,1-1.76-.4c-.22-.26-.83,0-1.21.24s-.56.23-.76,0a.78.78,0,0,0-.93-.23c-.54.22-1.12-.15-1.58.07a14.43,14.43,0,0,1-1.63.35c-.44.17-.55,0-.65-.39-.17-.53-.36-.62-.66-.26-.43.53-1.21.48-1.57,1.1-.1.16-.38.14-.61.05-.5-.18-1-.26-1.52-.46a1.67,1.67,0,0,0-2.12.44,3.06,3.06,0,0,1-1.71.87.82.82,0,0,1-1-.16c-.14-.16-.35-.12-.51-.2-.39-.18-.64-.15-.78.31a.72.72,0,0,1-.76.59.8.8,0,0,1-.7-.76c0-.22-.1-.41-.29-.42s-.36.15-.46.39c-.22.58-.24.58-.89.27-.27.79-.37.88-.91.75-.29-.08-.55-.19-.49-.56s-.25-.41-.53-.39c-.06,0-.14,0-.18.05a3.09,3.09,0,0,1-1.91.33c-.69,0-.72.07-.35.65.11.17.25.33,0,.48s-.27,0-.4-.11a2.36,2.36,0,0,0-1.84-.32c-.74.16-1.53.2-2.27.42-.24.07-.52.1-.36.48.11.23.1.45-.19.51s-.65.07-.69-.29c-.06-.58-.4-.45-.73-.39a2.58,2.58,0,0,1-.65.13,1.51,1.51,0,0,0-1.49.78c-.61.83-.71.84-1.57.37a.87.87,0,0,0-.88-.1,5.69,5.69,0,0,1-2.2.67c-.18,0-.35.1-.35.25s.2.26.39.29.55-.11.87.1c-.22.41-.46.66-1,.52a4.18,4.18,0,0,0-2.9.42.85.85,0,0,1-.71.07c-.42-.18-.46-.34-.1-.64.07-.06.16-.1.23-.16a1.32,1.32,0,0,0,.18-.22.37.37,0,0,0-.58,0,6.65,6.65,0,0,1-1.14.83.51.51,0,0,0-.24.46c-.08.82-.49,1-1.16.59-.15-.09-.23-.32-.47-.26s-.1.26-.12.4c0,.52-.14.57-.59.28-.2-.13-.36-.19-.45,0-.22.61-.87.79-1.21,1.28a.55.55,0,0,1-.51.2c-1-.16-1.64.47-2.41.81-.32.15-.54.32-.92.21-.87-.24-1.49.31-2.11.77-.18.13-.13.33.07.46s.32.06.34.31c-.33.42-1,.16-1.34.51,0,0-.16-.06-.24-.1-.88-.45-.91-.43-1.21.46,0,0-.08.09-.12.13a1.67,1.67,0,0,0-1.81.33c-.15.18-.12.35.13.42s.31,0,.38.21c-.42.45-.42.45-.82,0a.75.75,0,0,0-1,.18c-.24.32-.41.5-.81.29-.09-.05-.25,0-.31.16a2.14,2.14,0,0,1-1.3.86,2.94,2.94,0,0,0-1.21.95c-.41.48-.83,1-1.57.82a.38.38,0,0,0-.46.23c-.26.54-.84.73-1.21,1.13-1,1.11-2.5,1.59-3.67,2.52-.85.67-1.58,1.49-2.47,2.08S43,36.47,42.19,36.91c-.94.55-1.54,1.46-2.47,2-.3.17-.6.42-.9.63s-1,.51-1.06,1.13c0,.08-.08.21-.14.22a4,4,0,0,0-1.86,1.48c-.57.62-1.11,1.31-1.72,1.86s-.95,1.56-1.88,1.87c0,0-.13.08-.13.12,0,.8-.85,1-1,1.7a.81.81,0,0,1-.69.58,1.18,1.18,0,0,0-.92.7A5.32,5.32,0,0,1,27.88,51a1.79,1.79,0,0,0-.52.85,2.46,2.46,0,0,1-1.43,1.82.41.41,0,0,0-.23.27c0,.67-.59,1.11-.64,1.75a.34.34,0,0,1,0,.1c-.14.32-.61.46-.55.89s.37.54.43.92A14,14,0,0,1,25,60.8s-.09.08-.19.16c-.33-.36,0-.86-.25-1.2s-.74-.36-.9-.78c.09-.12.21-.06.33,0,.59,0,.67,0,.6-.6a6.09,6.09,0,0,0-.1-.73c-.07-.29-.45-.38-.56-.12-.35.8-1.24,1.24-1.39,2.17a2,2,0,0,1-.63.93c-.23.25-.32.54.15.56s.54.26.51.62c0,.63.19,1.32-.42,1.85-.16.14-.09.4,0,.61a2.09,2.09,0,0,1,.42.81c-.25.19-.35,0-.45-.14-.3-.51-.6-1-.89-1.55-.08-.14-.15-.28-.34-.28s-.33.16-.38.34-.05.45-.25.59-.29.39-.11.81.59,1.09.05,1.75c-.35.43-.46,1.08-.84,1.55-.19.24-.27.49-.71.42s-.66.37-.34.71a.72.72,0,0,1,.06,1.08c-.27.34-.33.82-.7,1.1a.4.4,0,0,0-.15.23,2.13,2.13,0,0,1-.65,1.69.22.22,0,0,0-.05.26c.22.41.58.9-.38.58-.19-.07-.3.22-.2.41a3.36,3.36,0,0,0,.44.49c.37.4.37.53-.11.73a1.85,1.85,0,0,0-.64.37c-.55.53-1,1.07-.48,1.86.16.27,0,.46-.08.74a7.28,7.28,0,0,0-.48,2,7.81,7.81,0,0,1-.63,2.8c-.29.54-.21.6.45.77s.71.42.26.8a1,1,0,0,0-.38,1.22.86.86,0,0,1-.33.93c-.27.25-.21.45,0,.72.4.47.38.48-.1,1a.82.82,0,0,0,.17,1.1c.36.2.49.59.28.76-.55.46-.22.89,0,1.2a1.28,1.28,0,0,1,.23,1.47.39.39,0,0,0,0,.27c.45.71,0,1.32-.22,1.94-.33.79-.15,1.68-.54,2.45a.28.28,0,0,0,0,.18,2.46,2.46,0,0,1-.43,2.51c-.09.14-.22.3-.15.43.43.75-.25,1.5,0,2.25a.57.57,0,0,1,0,.36c-.25.58-.54,1.16,0,1.75-.27.63,0,1.3-.15,1.94a2,2,0,0,0,0,1.64c.06.11,0,.3,0,.46s-.13.38-.08.55a11.37,11.37,0,0,0,.53,2.5,2.42,2.42,0,0,1,.07,1.9,9.72,9.72,0,0,1-.21,1.1.75.75,0,0,0,0,.47,2.39,2.39,0,0,1-.6,2.57c-.32.33-.28.52.08.84s.57.14.89.21l-.31.74a1.69,1.69,0,0,0-.12.24c.65.43.06,1.37.73,1.78l.08.06c.32.34-.14.64-.06,1s.65.31.69.71c0,.22-.16.39-.31.55s-.38.47.06.64a.27.27,0,0,1,.16.21c.1.62.46.58.88.33a.9.9,0,0,1,.58-.2c-.05.49-.46.56-.75.72-.79.41-.91.64-.72,1.55a.32.32,0,0,0,0,.09c.16.37-.67.52-.23.94s.15.6.11.95a3,3,0,0,0,.68,2.3c.13.16.32.26.33.52,0,.62.38.89,1.09.79-.44.54-.75,1-.27,1.58a.24.24,0,0,1-.13.38c-.41.11-.36.36-.26.65.17.49,0,1.13.73,1.38.15.06.1.27,0,.42s-.08.3,0,.34c.76.31.56,1.11.82,1.66.35.76.42,1.65.71,2.4.44,1.09.35,2.35,1.11,3.33.15.18,0,.42,0,.64a4.79,4.79,0,0,0,.58,2.07,15.61,15.61,0,0,1,1.11,1.8,9.21,9.21,0,0,0,1.37,2.19c.84,1,1.34,2.29,2.07,3.38-.11.72.58,1.21.51,1.95,0,.34.27.74.48,1.08a30.06,30.06,0,0,1,1.49,3c.19.41.52.7.74,1.08a7.15,7.15,0,0,0,1.75,2.4.67.67,0,0,1,.28.47,1.5,1.5,0,0,0,.73,1.15,2.8,2.8,0,0,1,.92,1.34,2.68,2.68,0,0,0,.81,1.23.28.28,0,0,1,.11.15,30.34,30.34,0,0,0,1.61,2.69c.1.2.16.41.39.51a.84.84,0,0,1,.44.47c.48,1.28,1.77,1.88,2.45,3,.52.85,1.41,1.39,1.84,2.31a.8.8,0,0,0,.51.52.33.33,0,0,1,.25.43,1.25,1.25,0,0,0,.54,1.14,1.65,1.65,0,0,1,.66.89.43.43,0,0,0,.4.34c.17,0,.24.15.32.3.32.65.57,1.36,1.32,1.68a.41.41,0,0,1,.14.12A6,6,0,0,0,45,185.71a16.49,16.49,0,0,1,1.56,1.47c.42.41.95.72,1.33,1.11s1.48.63,1.46,1.61a.27.27,0,0,0,.32.27c.71-.14,1,.45,1.41.8.22.19.31.5.71.51s.23.32.25.54c0,.39.18.69.66.54s.52,0,.55.38a.82.82,0,0,0,.64.75,4.74,4.74,0,0,1,1.26.61.93.93,0,0,0,.77.19c.42-.11.66.08.86.49s.44.81,1,.58a.4.4,0,0,1,.34.12,2.27,2.27,0,0,0,1.56.73,4.19,4.19,0,0,1,2,1.22,1.73,1.73,0,0,0,.76.48c.63.19,1,.81,1.64,1,.24.09.43.33.74.33a.45.45,0,0,1,.45.29c.13.43.51.47.84.64s1.1.19,1.25.86c0,.06.14.12.23.14A6.56,6.56,0,0,1,70,202.66a2.07,2.07,0,0,0,1.35.55,2.84,2.84,0,0,0,1.92.82A14.76,14.76,0,0,1,76,205.12c.09,0,.2.13.25.1.8-.38,1.3.3,1.91.54a2.07,2.07,0,0,0,.54.15,6.62,6.62,0,0,1,3.43,1.4A7.77,7.77,0,0,0,88,208.8a4.65,4.65,0,0,1,1.49,0,7.23,7.23,0,0,0,2.82,0c1.07-.21,2.12.23,3.19.14.31.42.78.23,1.18.28l.09,0c.43.15.36-.62.77-.45s.42.45.84.5c1,.11,2-.07,3,0,.22,0,.47-.06.64.08a2.57,2.57,0,0,0,1.7.36c.37,0,.68-.08,1,.27a.8.8,0,0,0,1.05,0c.36-.4.6-.18,1-.09s1,.07,1.36.15c1,.17,2-.12,3,0,.49.07.81-.2,1.21-.25.66-.08,1.37.2,2-.31.09-.07.24,0,.36.05a4.06,4.06,0,0,0,2.75.09.31.31,0,0,1,.19,0,1.08,1.08,0,0,0,1.49-.31.18.18,0,0,1,.17,0c.64.35,1.2,0,1.78-.19a.89.89,0,0,1,.55.07,3.31,3.31,0,0,0,2.54-.22,3.77,3.77,0,0,1,2.46-.06,1.91,1.91,0,0,0,1.7-.45c.34-.25.53-.5.93-.13a.85.85,0,0,0,.9.09,5.56,5.56,0,0,1,2.59-.19c.22,0,.48.1.64,0,1-.78,2.3-.36,3.36-.91.54-.28,1.22.06,1.83-.23s1.47-.49,1.83-1.3c.12-.29.35-.27.62-.14a10.41,10.41,0,0,0,1.39.57c.35.11.8.22.69-.45,0-.16.07-.2.21-.21a2.42,2.42,0,0,0,.47-.07c.2-.05.5.05.52-.26s-.16-.36-.4-.43-.28-.35-.09-.58a.92.92,0,0,1,1.33-.21,3.06,3.06,0,0,0,1.07.29.49.49,0,0,0,.53-.12,1.33,1.33,0,0,1,.56-.49c.2-.07.44,0,.62-.2s-.14-.29-.28-.38-.19-.17-.11-.3.19-.1.33-.09a4.75,4.75,0,0,1,2.06.41.41.41,0,0,0,.6-.27c0-.44.3-.57.64-.68a.68.68,0,0,0,.38-.27c.55-1.09,1.52-1,2.43-.81.39.07.59,0,.8-.24a2.17,2.17,0,0,1,1.91-1c.49,0,.69-.41.9-.73a1.58,1.58,0,0,1,1.4-.85h.47c.91,0,1-.1.71-1-.14-.46.05-.56.44-.56a3.56,3.56,0,0,0,1.21-.19c.23-.08.35-.23.19-.5-.08-.12-.45-.16-.16-.4a.49.49,0,0,1,.61-.08,3.83,3.83,0,0,1,.44.36c.22.19.43.37.75.17s.49-.38.31-.77.1-.56.44-.64a.78.78,0,0,1,.37,0c.37.12.73.27.88-.3A1.49,1.49,0,0,0,165,193c-.15-.06-.31-.06-.45-.13a.45.45,0,0,1-.25-.47c0-.23.22-.27.4-.31.6-.15.74-.08.93.53a1.09,1.09,0,0,0,1,.89c.41-.06.55-.27.42-.65a5.54,5.54,0,0,0-.33-.63,2.06,2.06,0,0,1,1.21.22.59.59,0,0,0,.84-.26c.12-.4-.12-.56-.45-.68a4.84,4.84,0,0,0-1.13-.09,1,1,0,0,0,0-1.52,1.55,1.55,0,0,1,.87-.22c.69,0,.76,0,.79-.68a1.42,1.42,0,0,1,.49-1c.33-.35.35-.31.58.16s.41,1.25,1.2,1.36c.49.07.73-.12.83-.65s-.07-.61-.59-.63-.86-.14-.91-.71.15-.89.85-.66c.38.13.77.27,1.14.42s.46.08.59-.13a.37.37,0,0,0-.15-.49c-.23-.16-.55-.27-.39-.64s.49-.37.87-.3.94-.24,1.46-.19a9.39,9.39,0,0,1,1.4,0c.18,0,.43,0,.49-.18s-.19-.36-.39-.41c-.61-.14-.86-.65-1.19-1.1a.35.35,0,0,1,0-.42.37.37,0,0,1,.48-.2,3.45,3.45,0,0,1,.92.46c.27.21.44.49.86.21s.36-.59.09-.88c.37-.24.69-.12,1-.16s.43-.25.26-.59c0-.05-.08-.09-.11-.15-.1-.23-.38-.48,0-.7s.77-.26,1,.14c.07.13.05.34.26.3s.25-.18.3-.39c.16-.62.41-.71,1-.45.11,0,.22.13.33.17.45.15.72.05.73-.42s.31-.74.74-.89a7,7,0,0,0,.66-.36c.14-.07.22-.18.17-.29a.55.55,0,0,0-.28-.24c-.36-.13-.67.11-1,.17C181.9,179.39,181.81,179.06,182,178.48Z"/><path class="cls-1" d="M62.69,126c-.1,0-.18.09-.15.2a.34.34,0,0,0,.34.26.16.16,0,0,0,.17-.24A.36.36,0,0,0,62.69,126Zm0,0c-.1,0-.18.09-.15.2a.34.34,0,0,0,.34.26.16.16,0,0,0,.17-.24A.36.36,0,0,0,62.69,126Zm0,0c-.1,0-.18.09-.15.2a.34.34,0,0,0,.34.26.16.16,0,0,0,.17-.24A.36.36,0,0,0,62.69,126Zm0,0c-.1,0-.18.09-.15.2a.34.34,0,0,0,.34.26.16.16,0,0,0,.17-.24A.36.36,0,0,0,62.69,126Zm0,0c-.1,0-.18.09-.15.2a.34.34,0,0,0,.34.26.16.16,0,0,0,.17-.24A.36.36,0,0,0,62.69,126Zm0,0c-.1,0-.18.09-.15.2a.34.34,0,0,0,.34.26.16.16,0,0,0,.17-.24A.36.36,0,0,0,62.69,126Zm0,0c-.1,0-.18.09-.15.2a.34.34,0,0,0,.34.26.16.16,0,0,0,.17-.24A.36.36,0,0,0,62.69,126Zm0,0c-.1,0-.18.09-.15.2a.34.34,0,0,0,.34.26.16.16,0,0,0,.17-.24A.36.36,0,0,0,62.69,126Zm120.45,33.63a1.18,1.18,0,0,1-.4-.4c-.6-1.39-1.9-2.32-2.47-3.73-.07-.19-.28-.33-.41-.5a27.33,27.33,0,0,1-2.11-2.86c-.67-1.19-1.8-2.1-2.18-3.48,0,0,0-.06-.06-.07-.74-.35-1-1.1-1.41-1.71-1.26-1.87-2.54-3.73-3.92-5.51-.66-.84-1.06-1.84-1.75-2.66-.46-.55-.89-1.12-1.34-1.68a11.85,11.85,0,0,1-1.63-2.6,1.44,1.44,0,0,0-1.63-.79,3.74,3.74,0,0,1-.94,0,21.17,21.17,0,0,0-4,0c-2.58,0-5.16.08-7.73-.11-.45,0-.66-.28-.62-.66.08-.66,0-1.41.76-1.81.15-.08.23-.29.36-.43.59-.63.92-1.49,1.74-1.91a.62.62,0,0,0,.25-.28,5.84,5.84,0,0,1,1.41-1.86c.73-.85,1.27-1.84,2-2.69a31.44,31.44,0,0,0,1.79-2.74,44,44,0,0,0,3.05-5.38c.82-1.61,1.51-3.31,2.2-5a12.28,12.28,0,0,0,1.14-3.66,2.87,2.87,0,0,1,.37-1.16,4.11,4.11,0,0,0,.52-2.16,1.78,1.78,0,0,1,.23-1,4.31,4.31,0,0,0,.52-1.78,24.22,24.22,0,0,1,.29-2.7,13.45,13.45,0,0,0,.53-3.31c.12-2.26.22-4.53.12-6.79a26.79,26.79,0,0,0-.14-3.48c-.48-2.79-.59-5.66-1.43-8.39a11.74,11.74,0,0,0-.5-2.28,4.57,4.57,0,0,1-.48-1.52,8,8,0,0,0-.64-2,15,15,0,0,1-.88-2.17,34.81,34.81,0,0,0-1.49-3.62A26.71,26.71,0,0,0,160.87,62a38.35,38.35,0,0,0-2.69-4.49c-.94-1.43-2-2.82-3-4.16a21.57,21.57,0,0,0-1.52-1.91c-1.49-1.46-2.8-3.11-4.43-4.43-.9-.73-1.59-1.68-2.53-2.36-.77-.55-1.55-1.07-2.27-1.68a31.4,31.4,0,0,0-5.68-3.79,6.66,6.66,0,0,1-.89-.52c-1.12-.81-2.47-1.2-3.61-2a.85.85,0,0,0-.45-.13,2.34,2.34,0,0,1-1.05-.38c-1.44-.9-3.16-1.18-4.67-1.93a.51.51,0,0,0-.27-.06,3.22,3.22,0,0,1-1.78-.52,1.78,1.78,0,0,0-.9-.24,6,6,0,0,1-1.39-.24A24.09,24.09,0,0,0,120,32.3a30.24,30.24,0,0,1-3.44-.45,21.13,21.13,0,0,0-4.49-.33c-.6,0-1.2,0-1.8,0H107c-.53,0-1,.06-1.58.11-2,.21-4,.77-6,.82a3,3,0,0,0-1.34.37,4.1,4.1,0,0,1-1.72.44,3.57,3.57,0,0,0-1.88.49,1.69,1.69,0,0,1-1,.35c-1.29-.07-2.3.75-3.45,1.08a20.51,20.51,0,0,0-2.75,1.18c-1.21.56-2.42,1.13-3.62,1.75-.5.26-.9.7-1.4.92a32.57,32.57,0,0,0-5.41,3.32c-.31.21-.66.37-1,.6-1,.8-1.93,1.6-2.87,2.44a57.86,57.86,0,0,0-4.55,4.32c-1.21,1.36-2.43,2.71-3.5,4.17-.85,1.16-1.74,2.29-2.51,3.51a37.34,37.34,0,0,1-2.14,3.31,8,8,0,0,0-1.18,2,40.86,40.86,0,0,1-1.8,4,3.24,3.24,0,0,0-.37.86c-.22,1.18-1,2.14-1.15,3.35C55,72.13,55,73.64,54.55,75a30.11,30.11,0,0,0-1,4.56c-.08.62-.12,1.25-.23,1.86a37.14,37.14,0,0,0-.66,7.94c0,.78.12,1.58.08,2.35a31.68,31.68,0,0,0,.57,6.07c.1.67.17,1.36.25,2,.18,1.56.92,3,1,4.58a1,1,0,0,0,.16.44,2.39,2.39,0,0,1,.43,1.41,9.77,9.77,0,0,0,.66,2.71c.39,1.25,1,2.42,1.42,3.66.28.79.63,1.57,1,2.34a12.8,12.8,0,0,1,1,2,2.85,2.85,0,0,0,.54,1.07c.5.68.85,1.46,1.35,2.15a.64.64,0,0,1-.32,1.07c-.9.36-1.33,1.2-2,1.81a12.39,12.39,0,0,0-1.46,2,9.69,9.69,0,0,0-2.15,5.47,2.68,2.68,0,0,1-.11.55,3.67,3.67,0,0,0,0,1.68,4.56,4.56,0,0,1-1.11,3.72c-.62.82-1.27,1.64-1.81,2.51s-1,1.48-1.43,2.29A1.81,1.81,0,0,1,50,142a1.6,1.6,0,0,0-.6.71,14.29,14.29,0,0,1-2.24,3.22,7.92,7.92,0,0,0-1.09,1.28c-.61,1-1.29,1.9-1.87,2.9-.69,1.18-1.58,2.25-2.38,3.37a8,8,0,0,0-1.6,2.5c-1.12,1-1.66,2.39-2.65,3.47a5,5,0,0,0-.39.41,1.49,1.49,0,0,0,.18,1.23c.24.3.47,0,.68,0a2.93,2.93,0,0,1,1.66,0,1.73,1.73,0,0,0,.84.07,6.46,6.46,0,0,1,2.32-.07,31.13,31.13,0,0,0,4.21,0H92.05c12,0,23.9,0,35.86,0,5.2,0,10.41.13,15.62-.12a5.39,5.39,0,0,0,2.33-.62c1-.56,2-1.21,3-1.84a5.45,5.45,0,0,1,6.43,0,27.09,27.09,0,0,1,3.11,2.07c.07.06.17.13.24.12a20.94,20.94,0,0,1,2.6.4c1.41.05,2.81,0,4.23,0,2.36-.06,4.72,0,7.08,0,.66,0,1.31.09,2,.07a50.81,50.81,0,0,1,8.09.12c.55.08.8-.15.83-.73A1,1,0,0,0,183.14,159.58ZM60,111.54a8.39,8.39,0,0,1-1.19-3.24,8,8,0,0,0-.56-1.6c-.63-2.32-1.3-4.64-1.77-7a5,5,0,0,1-.06-.56c-.16-3-.53-6.06-.58-9.12a62.66,62.66,0,0,1,.75-9.28,34.31,34.31,0,0,1,.81-4.06,27.47,27.47,0,0,1,1.16-4,7.59,7.59,0,0,0,.32-1.18,3.67,3.67,0,0,1,.5-1.31,1.28,1.28,0,0,0,.25-.51A11.92,11.92,0,0,1,61.1,66.3c.38-.72.64-1.49,1-2.22a51.44,51.44,0,0,1,3.55-5.87,37.73,37.73,0,0,1,3.24-4.27c1.26-1.39,2.51-2.81,3.87-4.11a66.11,66.11,0,0,1,6-5.1c.92-.69,2-1.18,2.94-1.8,1.19-.77,2.47-1.36,3.6-2.21a7.36,7.36,0,0,1,1.44-.7q2.26-1,4.56-2c.37-.15.84-.09,1.18-.28,1-.59,2.24-.58,3.3-1a9.27,9.27,0,0,1,3-.72,18.67,18.67,0,0,0,1.81-.51,60,60,0,0,1,12.12-.77c2.13.12,4.24.5,6.38.6a4.74,4.74,0,0,1,1.36.37,6.7,6.7,0,0,0,1.76.3,5.49,5.49,0,0,1,2.08.55,4.24,4.24,0,0,0,1.82.44,1.51,1.51,0,0,1,.64.09c1.42.75,3,1.13,4.42,1.83,1,.48,2,1,3,1.4a39.46,39.46,0,0,1,4.06,2.16c.79.46,1.51,1,2.36,1.44a13.2,13.2,0,0,1,2.52,1.8,65.52,65.52,0,0,1,7.82,7.45,63,63,0,0,1,4.12,5.25,40.64,40.64,0,0,1,3.33,5.65c.69,1.41,1.5,2.76,2.05,4.23.46,1.23,1,2.43,1.38,3.7s.61,2.3.95,3.43a41.78,41.78,0,0,1,1.71,9.6c.07,1.13.24,2.25.32,3.38a21.66,21.66,0,0,1-.1,3.86c-.22,2.09-.39,4.19-.59,6.29a5.84,5.84,0,0,1-.15,1,14.94,14.94,0,0,0-.68,3.51.63.63,0,0,1-.06.27,13.67,13.67,0,0,0-.92,3.44.75.75,0,0,1-.18.43,3.11,3.11,0,0,0-.66,1.82,9.93,9.93,0,0,1-.94,2.44c-.74,1.62-1.64,3.17-2.39,4.8a21.63,21.63,0,0,1-1.6,2.75c-.62,1-1.14,2-1.79,2.87-.85,1.2-1.79,2.35-2.71,3.5-.34.41-.69.82-1,1.25a.38.38,0,0,1-.4.2c-.17,0-.2-.22-.25-.36s0-.06,0-.09c.36-1.84-.71-3.46-.81-5.25a28.91,28.91,0,0,0-1.2-5.13c-.29-1.22-.82-2.36-1.13-3.58a21.22,21.22,0,0,0-1.22-3.25c-.2-.44-.21-.92-.39-1.35-.45-1.07-.91-2.14-1.31-3.23s-.88-1.93-1.33-2.89a1.42,1.42,0,0,1,.53-1.88,2.34,2.34,0,0,0,.83-1,4.88,4.88,0,0,1,.85-1.35.46.46,0,0,0,.16-.23c.55-2,1.44-3.85.59-6a7.89,7.89,0,0,1-.42-1.74,2,2,0,0,1,.53-1.91,3.82,3.82,0,0,0,.73-1.2c.51-1.14,1.31-2.13,1.78-3.29a10.22,10.22,0,0,1,.9-1.53,11,11,0,0,0,1.94-5.81,5.58,5.58,0,0,0-.66-3.08c-.43-.69-.5-1.6-1.06-2.27a25.08,25.08,0,0,0-2-2.23,2.5,2.5,0,0,0-.81-.46,10.23,10.23,0,0,1-1.89-.83c-.36-.25-.8-.13-1.19-.24-.64-.17-.76-.25-.69-.88a10.52,10.52,0,0,0-.16-2.63,9.08,9.08,0,0,0-1.65-3.46,7,7,0,0,0-3.56-2.94,13.82,13.82,0,0,0-4-1,1.73,1.73,0,0,1-1.36-.85,25.58,25.58,0,0,0-3.06-3.28c-.72-.66-1.62-1-2.38-1.57a10.18,10.18,0,0,0-2.1-1,16.25,16.25,0,0,0-6.56-1,19.59,19.59,0,0,0-5,1.06c-.78.72-1.9.74-2.73,1.42a3.46,3.46,0,0,1-2,.52,3,3,0,0,0-1.4.45,18.76,18.76,0,0,0-3.57,2.75,4.91,4.91,0,0,0-1,1.55c-.42,1-1.19,1.76-1.33,2.88a5.35,5.35,0,0,1-.64,1.55,16.91,16.91,0,0,1-1.33,2.9,1.5,1.5,0,0,0-.24.51,31.4,31.4,0,0,1-1.58,4.11c-.6,1.51-1.25,3-1.85,4.51s-1.24,3.27-2,4.85a29.52,29.52,0,0,0-1.15,2.78,6.48,6.48,0,0,1-.54,1.2,1.22,1.22,0,0,0-.22.4,10.46,10.46,0,0,1-.91,2.66,19.74,19.74,0,0,1-1.14,2.36c-.38.69-.63,1.44-1,2.11a2.9,2.9,0,0,0-.32,1,2.26,2.26,0,0,1-.31.88,3.74,3.74,0,0,0-.6,1.77.28.28,0,0,1,0,.09A29.63,29.63,0,0,0,86.14,96c-.18.6-.39,1.2-.52,1.81-.52,2.48-1.06,5-1.53,7.47a18,18,0,0,0-.11,2.44c-.06,1.45-.46,2.86-.4,4.32,0,.37,0,.75,0,1.26a24.92,24.92,0,0,0,.21,4.84c.12.82,0,.91-.87.91-3.78,0-7.55,0-11.32,0-2.3,0-4.57.22-6.85.41a1,1,0,0,1-1.12-.67c-.38-.78-.81-1.55-1.17-2.35C61.73,114.8,60.77,113.2,60,111.54Zm87.4,25.17c-.71,1.22-.44,2.79-1.56,3.87-1.63,1.57-3.42,2.81-5.74,2.85-1.13,0-2.26,0-3.39,0H120.93v0H106.39c-1,0-2-.05-3,0a7,7,0,0,1-2.14-.25,19,19,0,0,0-2.11-.49,1.18,1.18,0,0,1-.75-.36c-.12-.13-.27-.31-.43-.34-1.54-.35-2.35-1.62-3.35-2.62a30.26,30.26,0,0,1-2.49-3.63,7.31,7.31,0,0,1-.83-1.68c-.49-1.26-1.19-2.42-1.63-3.7s-.81-2.57-1.23-3.85c-.54-1.66-.62-3.39-1-5.07a26.37,26.37,0,0,1-.47-6c0-2,0-4,.08-6a19.62,19.62,0,0,1,.63-4.94,3.43,3.43,0,0,0,.14-.84A29,29,0,0,1,88.92,98c.14-.58.23-1.17.38-1.75a23.28,23.28,0,0,1,1.52-4.44.64.64,0,0,0,.1-.26A8.74,8.74,0,0,1,92,88.51a9.29,9.29,0,0,1,2.26-3.06,27.44,27.44,0,0,1,2.44-1.89,3.23,3.23,0,0,1,1.83-.67,14.08,14.08,0,0,0,1.91-.49,9.93,9.93,0,0,1,4.84.31,4.55,4.55,0,0,0,.73.17,16.08,16.08,0,0,1,2.34.69c1.26.46,2.56.84,3.84,1.26A20.33,20.33,0,0,1,115.6,86a2.49,2.49,0,0,0,.79.28,4.57,4.57,0,0,1,1.93.69.18.18,0,0,0,.09,0,14.7,14.7,0,0,1,3.37,1c1.27.36,2.51.81,3.74,1.29a5,5,0,0,0,1.73.39c.34,0,.67-.06.8-.38a16.63,16.63,0,0,1,1-1.81A16.41,16.41,0,0,1,130.4,85a8.73,8.73,0,0,0,.66-1.25c.83-1.48,1.67-3,2.49-4.43.7-1.26,1.36-2.53,2.06-3.8.58-1.06,1.17-2.13,1.8-3.17a3.25,3.25,0,0,1,.93-1,8.68,8.68,0,0,1,3.6-1.54,3.16,3.16,0,0,1,2.34.54,1.13,1.13,0,0,0,.41.23c.75.09,1.13.66,1.64,1.12,1.37,1.22,1.52,2.82,1.68,4.44a4.1,4.1,0,0,1-.38,1.93,13,13,0,0,1-2.42,4.2.5.5,0,0,0-.18.32c0,1.2-1.05,1.88-1.37,2.93a.71.71,0,0,1-1,.36,1.56,1.56,0,0,0-1.71.47,6.47,6.47,0,0,1-1.61.94c-1.5,1-3.08,1.81-4.63,2.7-.87.5-1.69,1.09-2.6,1.5-1.32.6-2.47,1.47-3.74,2.16a25.42,25.42,0,0,0-4.55,2.8c-.55.48-1.32.66-1.92,1.14a1.51,1.51,0,0,0-.49,2.14c.11.19.26.36.36.55a.31.31,0,0,1,0,.35.25.25,0,0,1-.34,0c-.67-.64-1.67-.51-2.39-1.07a2.1,2.1,0,0,0-.9-.22,1.87,1.87,0,0,1-1.27-.53c-.31-.37-.82-.27-1.24-.32a2.38,2.38,0,0,1-1.29-.49,1,1,0,0,0-.24-.16c-1.07-.57-1.59-.35-2,.8a43,43,0,0,0-1.44,4.47c-.42,2.12-1.18,4.19-1.15,6.38,0,1.15-.45,2.22-.47,3.36a25.5,25.5,0,0,0,1,7.72,21.32,21.32,0,0,0,1.19,3.27c.18.37.41.7.62,1a1.56,1.56,0,0,1,0,2,1.69,1.69,0,0,0-.19.32c-.34.68-.3,1.19.12,1.55a1.58,1.58,0,0,0,1.84,0,2.9,2.9,0,0,0,.68-1,1,1,0,0,1,1.07-.58c3.23,0,6.47,0,9.71,0,2.16,0,4.33.13,6.5,0a1.22,1.22,0,0,1,.93.36c.75.67,1.56,1.26,2.29,1.95a2.28,2.28,0,0,0,1.92.56.85.85,0,0,0,.81-1.12,2.11,2.11,0,0,0-1-1.5,5,5,0,0,1-2.53-4.54,3.23,3.23,0,0,0-.11-.94c-.91-2.64-1.19-5.46-2.29-8-.54-1.27-.89-2.6-1.46-3.86-.63-1.42-1.29-2.84-1.88-4.28s-1.43-2.72-2.13-4.09a6,6,0,0,0-1-1.58c-.3-.3-.15-.66.27-.93a9.48,9.48,0,0,1,1-.48c.9-.46,1.69-1.08,2.55-1.59,1.16-.69,2.38-1.26,3.52-2,1.39-.89,2.86-1.67,4.26-2.55.66-.41,1.36-.77,2.06-1.12a12.38,12.38,0,0,0,2.23-1.35c.56-.45.92-.35,1.21.33a7.9,7.9,0,0,1,.62,4.15,5.11,5.11,0,0,1-1.72,3.15c-.39.37-.82.68-1.23,1a2.19,2.19,0,0,0-.41,3,5,5,0,0,1,.61,1.36,29.82,29.82,0,0,0,1.18,2.87c.47,1.06.83,2.16,1.26,3.24s.82,2.3,1.24,3.45a16.31,16.31,0,0,0,1.12,3.09c-.08,1.24.57,2.29.86,3.43a16.15,16.15,0,0,0,.74,2.81,1.72,1.72,0,0,1,.15.74c-.06,1.17.26,2.31.24,3.47a2.3,2.3,0,0,0,.12.74c.68,1.92.51,3.91.54,5.88,0,.85-.06,1.7-.06,2.55A2.83,2.83,0,0,1,147.39,136.71ZM103.55,68.55a3.49,3.49,0,0,1,.24.71,11.12,11.12,0,0,0,2,4.5A19.9,19.9,0,0,0,109,77.29c.51.45.59.61.25,1.21a7.67,7.67,0,0,0-.52,1.3.48.48,0,0,1-.65.36l-.27-.08a18.86,18.86,0,0,0-5-.92,9.59,9.59,0,0,0-4.43.57,1,1,0,0,1-.27.09,4.73,4.73,0,0,0-2.43.85,4.64,4.64,0,0,1,.55-1.84,3.18,3.18,0,0,0,.38-.76,14.76,14.76,0,0,1,1.18-3.15c.46-1.26,1-2.5,1.5-3.75s1.14-2.72,1.7-4.07,1-2.76,1.55-4.13c.06-.14.12-.31.32-.28s.19.22.19.37c0,1,0,2.07,0,3.11A5.3,5.3,0,0,0,103.55,68.55Zm28,0a11.37,11.37,0,0,1-1.78,3.59,16.71,16.71,0,0,1-2.88,2.94,8.32,8.32,0,0,1-3.1,1.66,2,2,0,0,0-.61.23,3.53,3.53,0,0,1-1.79.5,22.66,22.66,0,0,1-5.14,0,2.35,2.35,0,0,1-1.07-.33,2.28,2.28,0,0,0-1.4-.46.4.4,0,0,1-.27-.06c-1.05-.91-2.45-1.31-3.38-2.45a23.84,23.84,0,0,1-2-2.46,3.79,3.79,0,0,1-.67-1.33.72.72,0,0,0-.14-.35,4.85,4.85,0,0,1-.85-2.55,15.72,15.72,0,0,1-.36-2.32,12.47,12.47,0,0,1,1-5.67,1.81,1.81,0,0,0,.22-.41A7.79,7.79,0,0,1,109,56.25a2.81,2.81,0,0,1,1.09-1,1.82,1.82,0,0,0,.57-.47,8.82,8.82,0,0,1,5.11-2.9c.55-.13,1.12-.21,1.66-.37a7.36,7.36,0,0,1,3.64-.06,9.17,9.17,0,0,1,3.61,1.23,2,2,0,0,0,.25.14,11.35,11.35,0,0,1,4.34,3.31,13,13,0,0,1,1.61,2.64c.3.55.48,1.15.75,1.72a8.48,8.48,0,0,1,.41,2.88A13.51,13.51,0,0,1,131.58,68.57Zm.74,5.84c.13,0,.17.16.17.09a.94.94,0,0,1-.15.73c-1.24,1.67-2,3.61-3.12,5.35-.83,1.31-1.36,2.75-2.15,4.07-.11.18-.22.37-.35.56-.59.86-.69.86-1.69.51-1.34-.46-2.68-.9-4-1.3a5.2,5.2,0,0,1-1.57-.62s-.05,0-.08,0c-1.38-.16-2.55-1-3.92-1.2a2.78,2.78,0,0,1-1.15-.37,4.09,4.09,0,0,0-1.79-.52c-.78-.07-.94-.3-.8-.94.22-.94.69-1.4,1.28-1.06a14.47,14.47,0,0,0,3.8,1,10.66,10.66,0,0,0,3,.39,2.9,2.9,0,0,0,1-.15,7.34,7.34,0,0,1,2.12-.43,5.24,5.24,0,0,0,1.89-.53,7.27,7.27,0,0,1,1.23-.47,3.46,3.46,0,0,0,1.15-.62,5.72,5.72,0,0,1,1.26-.8,7.91,7.91,0,0,0,2-1.81c.5-.52.93-1.1,1.4-1.65A.42.42,0,0,1,132.32,74.41Zm2.77-11.86c-.07-.75-.28-1.48-.38-2.22s.09-.95.87-.86a2.25,2.25,0,0,1,1.59.69,10.2,10.2,0,0,0,1,.81,6.51,6.51,0,0,1,1.93,4.25c-.07,1-.24,1.88-1.33,2.23a7.7,7.7,0,0,0-3.74,3c-.15.2-.29.41-.45.61s-.31.37-.55.2-.17-.38-.09-.6a1,1,0,0,1,.12-.26,3.74,3.74,0,0,0,.75-2.28c.06-.56.16-1.11.27-1.67A13.21,13.21,0,0,0,135.09,62.55ZM112.66,109c.06-.44.18-.86.28-1.29.43-1.83.87-3.65,1.28-5.49.19-.82.57-1,1.24-.48a4.39,4.39,0,0,0,1.26.55c1.19.46,2.45.73,3.63,1.21a5.62,5.62,0,0,0,1.31.5c.92.13,1.6.85,2.5,1,.26.06.33.36.45.58q1.53,2.9,2.81,5.93a18.72,18.72,0,0,1,1.19,3.37,5.43,5.43,0,0,0,.39,1.06,3.51,3.51,0,0,1,.35,1.35,2.44,2.44,0,0,0,.3,1.09,7.45,7.45,0,0,1,.63,2.64,3.17,3.17,0,0,0,.53,1.87.72.72,0,0,1,0,.8.48.48,0,0,1-.59.16,17.53,17.53,0,0,0-3.76-.11c-2.1,0-4.21,0-6.32,0a41.31,41.31,0,0,0-4.31,0,1.13,1.13,0,0,1-1.11-.56,15.81,15.81,0,0,1-1.37-2.88c-.19-.52-.32-1.08-.51-1.61a5,5,0,0,1-.35-1.84v-3.39A29.65,29.65,0,0,1,112.66,109Zm-54.61,22c-.11-.62-.14-1.21.5-1.57a.3.3,0,0,0,.15-.32,1.53,1.53,0,0,1,.63-1.39,1.44,1.44,0,0,0,.37-.65,2.21,2.21,0,0,1,.6-.94A9.7,9.7,0,0,1,62.91,124a1.4,1.4,0,0,0,.57-.48,1.35,1.35,0,0,1,.75-.55c1.48-.28,2.88-1.07,4.45-.76a22,22,0,0,0,4.22.08c2.42,0,4.84-.06,7.27,0,1,0,1.94,0,2.91-.06s1.2.09,1.38,1.11a12.18,12.18,0,0,1,.19,1.21c0,.51-.14.72-.63.72-3.48,0-7,0-10.46-.06a28.54,28.54,0,0,1-3.2-.13,3.5,3.5,0,0,0-1.39.19,5.18,5.18,0,0,1-1.11.21,1.21,1.21,0,0,0-1.24,1.26c-.09.88.17,1.39.92,1.63a8.55,8.55,0,0,0,2.41.39,8,8,0,0,0,.85,0c3.43-.22,6.85,0,10.28,0,1.29,0,2.57.05,3.86,0a.85.85,0,0,1,.9.53,7.59,7.59,0,0,1,.35.77,22.29,22.29,0,0,0,2,4.94,6.49,6.49,0,0,1,.88,3.92c-.07,1.34.06,2.7,0,4a2.3,2.3,0,0,1-2.52,2.42,8.62,8.62,0,0,1-2.63-.16,1.5,1.5,0,0,1-.95-.91,6,6,0,0,1-.45-3c.08-1.69,0-3.39,0-5.09a6.38,6.38,0,0,0-.25-1.68,1.35,1.35,0,0,0-1.23-1.11,1.51,1.51,0,0,0-1.54,1,4.5,4.5,0,0,0-.33,1.92c.06,2,0,4,.07,5.95,0,.5-.2.76-.69.8a5.08,5.08,0,0,1-1,0c-1.67-.17-3.33.16-4.43,0H67.24a1.82,1.82,0,0,1-.92-.16,2.4,2.4,0,0,0-1.09-.23,1.55,1.55,0,0,1-1.4-.63c-.14-.23-.42-.25-.66-.31a3.56,3.56,0,0,1-1.82-1.11c-.33-.39-.91-.53-1.1-1-.42-1-1.21-1.78-1.43-2.91-.16-.77-.58-1.51-.74-2.31a5.39,5.39,0,0,1-.06-2A5,5,0,0,0,58.05,130.9Zm119.58,26.59a.77.77,0,0,1-.75.3c-.94,0-1.89,0-2.83,0s-2,0-3,0c-1.76,0-3.53.07-5.28,0-1.36-.07-2.7,0-4.05,0a1.69,1.69,0,0,1-1.42-.72c-1.21-1.35-1.92-3-3-4.45-.43-.57-.73-1.24-1.14-1.83a1.6,1.6,0,0,0-2-.34.51.51,0,0,0-.26.47,3.1,3.1,0,0,0,.49,1.69c.49.55.69,1.28,1.25,1.77a.61.61,0,0,1,.16.32.42.42,0,0,1,0,.27c-.08.14-.22.1-.33.06-.33-.11-.5-.5-.88-.51a22,22,0,0,0-4.14,0,8.39,8.39,0,0,0-3,1.13c-1.05.67-2.14,1.27-3.21,1.91a1.67,1.67,0,0,1-1,.17c-1.58,0-3.15,0-4.72.05q-6.31.09-12.65,0c-4.46,0-8.93,0-13.39,0q-31.77,0-63.54,0c-1.72,0-3.45-.1-5.17,0a1.61,1.61,0,0,1-.38,0c-.46-.07-.6-.32-.33-.72a18.69,18.69,0,0,1,1.21-1.57,17.92,17.92,0,0,0,1.32-1.82,27.51,27.51,0,0,1,2.13-3.08c.75-.81,1.07-1.82,1.77-2.63s1.28-1.71,1.9-2.57c.9-1.24,1.78-2.51,2.7-3.74a26.26,26.26,0,0,0,1.55-2.24c.3-.52.54-.52.88,0s.43.9.68,1.34a9.13,9.13,0,0,0,2.33,2.35c.41.34.66.82,1.15,1.1s.82.75,1.46.75c.35,0,.45.34.32.64a2.51,2.51,0,0,1-.42.62,2.29,2.29,0,0,0-.39.74,1.12,1.12,0,0,0,.45,1.48,1.31,1.31,0,0,0,1.77-.33c.28-.38.48-.81.75-1.2.46-.66.54-.68,1.33-.46a4,4,0,0,0,1,.13l12.74-.05a1.37,1.37,0,0,1,1.15.47,5.78,5.78,0,0,0,4,1.89,9.89,9.89,0,0,0,3.74-.41c.91-.25,1.42-1,2.24-1.27.79-1.16,1.62-2.3,1.51-3.82,0-.39-.24-.92.14-1.13s.7.37,1,.63c.71.57,1.4,1.16,2.1,1.74a.72.72,0,0,0,.24.14c1.31.36,2.43,1.16,3.7,1.6a4.34,4.34,0,0,0,1.39.21l6.61,0c8.87,0,17.75,0,26.62,0,2.26,0,4.53-.11,6.79,0a3.48,3.48,0,0,0,2.34-.55,1.46,1.46,0,0,1,.61-.23,6.32,6.32,0,0,0,1.53-.66c1.52-.61,2.36-1.92,3.37-3.05a4.12,4.12,0,0,0,.88-1.65,2.08,2.08,0,0,1,.26-.71,3.74,3.74,0,0,0,.59-2.33c0-.66.1-.72.79-.7,3.65.09,7.3.06,11,0a1.24,1.24,0,0,1,1.24.59c1.64,2.45,3.48,4.75,5.22,7.13,1.1,1.52,2.1,3.12,3.14,4.68s2.23,3.1,3.33,4.67a22.67,22.67,0,0,0,2.25,3C177.58,157,177.81,157.19,177.63,157.49ZM62.88,126.41a.16.16,0,0,0,.17-.24.36.36,0,0,0-.36-.22c-.1,0-.18.09-.15.2A.34.34,0,0,0,62.88,126.41Zm-5.42,15.92c-.12,0-.24,0-.25.19s.06.22.21.21.19-.11.2-.23S57.55,142.35,57.46,142.33ZM62.69,126c-.1,0-.18.09-.15.2a.34.34,0,0,0,.34.26.16.16,0,0,0,.17-.24A.36.36,0,0,0,62.69,126Zm0,0c-.1,0-.18.09-.15.2a.34.34,0,0,0,.34.26.16.16,0,0,0,.17-.24A.36.36,0,0,0,62.69,126Zm0,0c-.1,0-.18.09-.15.2a.34.34,0,0,0,.34.26.16.16,0,0,0,.17-.24A.36.36,0,0,0,62.69,126Zm0,0c-.1,0-.18.09-.15.2a.34.34,0,0,0,.34.26.16.16,0,0,0,.17-.24A.36.36,0,0,0,62.69,126Zm0,0c-.1,0-.18.09-.15.2a.34.34,0,0,0,.34.26.16.16,0,0,0,.17-.24A.36.36,0,0,0,62.69,126Zm0,0c-.1,0-.18.09-.15.2a.34.34,0,0,0,.34.26.16.16,0,0,0,.17-.24A.36.36,0,0,0,62.69,126Zm0,0c-.1,0-.18.09-.15.2a.34.34,0,0,0,.34.26.16.16,0,0,0,.17-.24A.36.36,0,0,0,62.69,126Zm0,0c-.1,0-.18.09-.15.2a.34.34,0,0,0,.34.26.16.16,0,0,0,.17-.24A.36.36,0,0,0,62.69,126Z"/></svg>