<?xml version="1.0" encoding="UTF-8"?>
<svg xmlns="http://www.w3.org/2000/svg" width="43.54977416992193" height="42.8144645690918" viewBox="509.1977533989422 7731.920225627511 43.54977416992193 42.8144645690918" preserveAspectRatio="none">
  <g>
    <defs>
      <path id="s-Path_17-d1224" d="M530.9639983803179 7735.777690959211 C536.7792758283747 7735.777690959211 537.4619007059796 7735.803180818387 539.7603614578013 7735.905140250028 C541.8860051569633 7735.998603065319 543.0352353680635 7736.3469644419865 543.8042688544036 7736.644346120558 C544.8238865644277 7737.035190604293 545.5497161584269 7737.494008059337 546.3101089487042 7738.241710500637 C547.0705018213869 7738.989413022968 547.5457473565128 7739.7031291001595 547.9345845301197 7740.705730123093 C548.2283726873471 7741.461929216193 548.5912874431441 7742.591979692004 548.6863365419288 7744.68214793175 C548.7900264809856 7746.9422487213105 548.8159489605995 7747.613481620533 548.8159489605995 7753.331706727805 C548.8159489605995 7759.049931835077 548.7900264758352 7759.721164248119 548.6863365419288 7761.981265523861 C548.5912874328434 7764.0714339256665 548.237013507018 7765.2014844014775 547.9345845301197 7765.957683332517 C547.5371064544366 7766.960284436482 547.0705017389815 7767.674000513673 546.3101089487042 7768.421702954974 C545.5497160760216 7769.169405477304 544.8238864820223 7769.636719543631 543.8042688544036 7770.019067335052 C543.0352352032528 7770.30795240234 541.8860049921526 7770.66481040042 539.7603614578013 7770.758273205583 C537.4619012004117 7770.860232642288 536.7792758283747 7770.8857224963995 530.9639983803179 7770.8857224963995 C525.148720932261 7770.8857224963995 524.4660960546562 7770.860232637223 522.1676353028344 7770.758273205583 C520.0419916036724 7770.664810390292 518.8927613925722 7770.316449013624 518.1237279062321 7770.019067335052 C517.104110196208 7769.628222851317 516.3782806022087 7769.169405396274 515.6178878119315 7768.421702954974 C514.8574949392489 7767.674000432643 514.3822494041228 7766.960284355451 513.9934122305161 7765.957683332517 C513.6996240732885 7765.201484239417 513.3367093174916 7764.071433763606 513.241660218707 7761.981265523861 C513.1379702796501 7759.721164734299 513.1120478000363 7759.049931835077 513.1120478000363 7753.331706727805 C513.1120478000363 7747.613481620533 513.1379702848004 7746.942249207492 513.241660218707 7744.68214793175 C513.3367093277923 7742.591979529944 513.6909832536177 7741.461929054133 513.9934122305161 7740.705730123093 C514.3908903061991 7739.703129019129 514.8574950216542 7738.989412941937 515.6178878119315 7738.241710500637 C516.3782806846142 7737.494007978306 517.1041102786135 7737.026693911978 518.1237279062321 7736.644346120558 C518.892761557383 7736.355461053271 520.0419917684831 7735.99860305519 522.1676353028344 7735.905140250028 C524.4660960546562 7735.7946839386905 525.1573622875667 7735.777690959211 530.9639983803179 7735.777690959211 M530.9639983803179 7731.920225627511 C525.0536719570844 7731.920225627511 524.3105608885542 7731.945715486688 521.9861780485439 7732.047674918328 C519.6704365638394 7732.1496343550325 518.0891654516023 7732.514988984656 516.7066329857813 7733.041779370492 C515.2722555195298 7733.585563019413 514.0625396119364 7734.324768930459 512.8528238691537 7735.514295644748 C511.6431079615603 7736.703822359037 510.8999967282194 7737.901845725126 510.33834291397955 7739.303787762049 C509.80261159995496 7740.663246864094 509.4310559832845 7742.218128147233 509.327366064829 7744.503718892194 C509.22367588370645 7746.780812418145 509.1977533989422 7747.511522204086 509.1977533989422 7753.323209346735 C509.1977533989422 7759.134897137624 509.22367588370645 7759.865606275324 509.32736581761293 7762.1511970202855 C509.43105575666976 7764.428290951386 509.8026113527389 7765.983172234526 510.3383426667635 7767.351128150431 C510.89135566133245 7768.761567001214 511.64310771434424 7769.951093715503 512.8528236219377 7771.140620267732 C514.062539529531 7772.330146982021 515.280896297998 7773.060856281782 516.7066327385652 7773.613136541988 C518.0891652043863 7774.139926927824 519.6704366462448 7774.505281577704 521.994819486255 7774.607240994152 C524.3192021614544 7774.709200430857 525.0536726987326 7774.734690284969 530.9726398180289 7774.734690284969 C536.8916069373252 7774.734690284969 537.6260773097927 7774.709200425792 539.9504601498028 7774.607240994152 C542.2662019641288 7774.505281557447 543.8474734059873 7774.139926927824 545.2386468974926 7773.613136541988 C546.673024363744 7773.069352893067 547.8827402713374 7772.330146982021 549.0924560141201 7771.140620267732 C550.3021719217136 7769.951093553443 551.0452831550544 7768.753070187354 551.6069369692942 7767.351128150431 C552.1426682833188 7765.991669048386 552.5142238999894 7764.436787765247 552.6179138184448 7762.1511970202855 C552.7216037575017 7759.8656064373845 552.7475262371156 7759.143393627363 552.7475262371156 7753.323209346735 C552.7475262371156 7747.503025066106 552.7216037523514 7746.780812418145 552.6179138184448 7744.495221673184 C552.5142238793879 7742.218127742083 552.1426682833188 7740.663246458944 551.6069369692942 7739.295290543039 C551.0539239747253 7737.884851692255 550.3021719217136 7736.695324977966 549.0924560141201 7735.505798425737 C547.8827401065267 7734.316271711448 546.6643833380598 7733.5855624116875 545.2386468974926 7733.033282151482 C543.8561144316715 7732.5064917656455 542.274842989813 7732.141137115765 539.9504601498028 7732.039177699317 C537.6174358720816 7731.945715486688 536.8743241443085 7731.920225627511 530.9639983803179 7731.920225627511 L530.9639983803179 7731.920225627511 Z "></path>
      <path id="s-Path_19-d1224" d="M530.9726398180288 7742.332832987044 C524.8030885574539 7742.332832987044 519.7914090280954 7747.252375742216 519.7914090280954 7753.327457956238 C519.7914090280954 7759.40254017026 524.7944485206339 7764.322082925432 530.9726398180288 7764.322082925432 C537.1508311154239 7764.322082925432 542.1538706079623 7759.40254017026 542.1538706079623 7753.327457956238 C542.1538706079623 7747.252375742216 537.1508317746666 7742.332832987044 530.9726398180288 7742.332832987044 Z M530.9726398180288 7760.456121752233 C526.9632955352993 7760.456121752233 523.7143443724683 7757.261392992076 523.7143443724683 7753.318961466498 C523.7143443724683 7749.376529940921 526.9632955352993 7746.181801180764 530.9726398180288 7746.181801180764 C534.9819841007585 7746.181801180764 538.2309352635893 7749.376529940921 538.2309352635893 7753.318961466498 C538.2309352635893 7757.261392343836 534.9819834415156 7760.456121752233 530.9726398180288 7760.456121752233 Z "></path>
      <path id="s-Circle_5-d1224" d="M539.146668918478 7741.29364422798 C539.1402668347679 7742.701298728244 540.3129829526415 7743.864803546042 541.7445288110996 7743.871098784082 C543.1849011869166 7743.877432836827 544.3721706659951 7742.709977938071 544.3657291088009 7741.29364422798 C544.3721311925108 7739.885989727714 543.1994150746373 7738.722484909917 541.767869216179 7738.716189671876 C540.3274968403623 7738.709855619131 539.1402273612835 7739.877310517889 539.146668918478 7741.29364422798 "></path>
    </defs>
    <g style="mix-blend-mode:normal">
      <use xmlns:xlink="http://www.w3.org/1999/xlink" xlink:href="#s-Path_17-d1224" fill="#FF7171" fill-opacity="1.0"></use>
    </g>
    <g style="mix-blend-mode:normal">
      <use xmlns:xlink="http://www.w3.org/1999/xlink" xlink:href="#s-Path_19-d1224" fill="#FF7171" fill-opacity="1.0"></use>
    </g>
    <g style="mix-blend-mode:normal">
      <use xmlns:xlink="http://www.w3.org/1999/xlink" xlink:href="#s-Circle_5-d1224" fill="#FF7171" fill-opacity="1.0"></use>
    </g>
  </g>
</svg>
