<?xml version="1.0" encoding="UTF-8"?>
<svg xmlns="http://www.w3.org/2000/svg" width="44.30314636230469" height="43.494022369384766" viewBox="578.929028605733 7731.580447627202 44.30314636230469 43.494022369384766" preserveAspectRatio="none">
  <g>
    <defs>
      <path id="s-Path_15-d1224" d="M613.6500705997908 7775.074468285267 L588.5111345882024 7775.074468285267 C583.2127938482066 7775.074468285267 578.929028605733 7770.858211315626 578.929028605733 7765.643367050619 L578.929028605733 7741.01154886185 C578.929028605733 7735.7967045968435 583.2127935794358 7731.580447627202 588.5111345882024 7731.580447627202 L613.6500705997908 7731.580447627202 C618.9484113397865 7731.580447627202 623.2321765822601 7735.7967045968435 623.2321765822601 7741.01154886185 L623.2321765822601 7765.754319489766 C623.1194476437761 7770.858212109232 618.835683476386 7775.074468285267 613.6500705997908 7775.074468285267 Z "></path>
      <path id="s-Rect_4-d1224" d="M588.135362739803 7747.437637206428 L593.6591651195583 7747.437637206428 L593.6591651195583 7765.079343798571 L588.135362739803 7765.079343798571 Z "></path>
      <path id="s-Path_16-d1224" d="M591.404551947213 7744.8117258959255 C593.2082425119668 7744.8117258959255 594.6737411546228 7743.369322230593 594.6737411546228 7741.5940559571145 C594.6737411546228 7739.818789683636 593.2082426463522 7738.3763860183035 591.404551947213 7738.3763860183035 C589.6008613824592 7738.3763860183035 588.1353627398032 7739.818789683636 588.1353627398032 7741.5940559571145 C588.1353627398032 7743.369322230593 589.600860979303 7744.8117258959255 591.404551947213 7744.8117258959255 Z "></path>
      <path id="s-Path_18-d1224" d="M604.9416214161586 7756.313967780216 C604.9416214161586 7753.872976819518 606.0689280023315 7752.319619127827 608.3235411746773 7752.319619127827 C610.3526929760344 7752.319619127827 611.3672690110983 7753.762022793159 611.3672690110983 7756.313967780216 C611.3672690110983 7758.865912767274 611.3672690110983 7765.52316096215 611.3672690110983 7765.52316096215 L616.8910713908539 7765.52316096215 C616.8910713908539 7765.52316096215 616.8910713908539 7759.087821084525 616.8910713908539 7754.427747744915 C616.8910713908539 7749.767674405304 614.1855354765306 7747.437637206429 610.3526929760344 7747.437637206429 C606.5198504755382 7747.437637206429 604.9416211473878 7750.322444537096 604.9416211473878 7750.322444537096 L604.9416211473878 7747.99240786729 L599.6432804073918 7747.99240786729 L599.6432804073918 7765.634114459437 L604.9416211473878 7765.634114459437 C604.9416214161586 7765.52316202029 604.9416214161586 7758.976866529097 604.9416214161586 7756.313967780216 Z "></path>
    </defs>
    <g style="mix-blend-mode:normal">
      <use xmlns:xlink="http://www.w3.org/1999/xlink" xlink:href="#s-Path_15-d1224" fill="#FF7171" fill-opacity="1.0"></use>
    </g>
    <g style="mix-blend-mode:normal">
      <use xmlns:xlink="http://www.w3.org/1999/xlink" xlink:href="#s-Rect_4-d1224" fill="#49263D" fill-opacity="1.0"></use>
    </g>
    <g style="mix-blend-mode:normal">
      <use xmlns:xlink="http://www.w3.org/1999/xlink" xlink:href="#s-Path_16-d1224" fill="#49263D" fill-opacity="1.0"></use>
    </g>
    <g style="mix-blend-mode:normal">
      <use xmlns:xlink="http://www.w3.org/1999/xlink" xlink:href="#s-Path_18-d1224" fill="#49263D" fill-opacity="1.0"></use>
    </g>
  </g>
</svg>
