<?xml version="1.0" encoding="UTF-8"?>
<svg xmlns="http://www.w3.org/2000/svg" width="56.63282012939453" height="36.2450065612793" viewBox="719.3551043808445 7734.688909830458 56.63282012939453 36.2450065612793" preserveAspectRatio="none">
  <g>
    <defs>
      <path id="s-Path_41-d1224" d="M775.987924306641 7738.871025616432 C773.8641934829458 7739.7074488401 771.7404626592504 7739.986256553626 769.2627770498954 7740.2650642671515 C771.7404628702241 7739.149833329958 773.510238697286 7737.198179169097 774.2181486905529 7735.246525257509 C772.0944178668575 7736.361756194703 769.6167322575025 7737.198179335279 766.7850914405402 7737.476987131896 C764.661360616845 7735.8041406845605 761.4757645922756 7734.688909830458 758.2901681457589 7734.688909830458 C752.2729317261748 7734.688909664276 746.9636048779101 7738.871025616432 746.9636048779101 7743.889564626074 C746.9636048779101 7744.7259878497425 746.9636048779101 7745.283603276794 747.3175600064021 7745.841218703845 C737.7607703240199 7745.562411405775 728.9118930874736 7741.937910382122 723.2486110316017 7736.361756111612 C722.1867456197541 7737.75579476233 721.832790412147 7739.428641209666 721.832790412147 7741.101487324637 C721.832790412147 7744.168372422691 723.9565212358423 7746.956449391764 727.1421172604116 7748.629296171465 C725.01838664769 7748.629296171465 723.2486110316017 7748.071681242961 721.4788354155136 7747.514064984998 C721.4788354155136 7747.514064984998 721.4788354155136 7747.514064984998 721.4788354155136 7747.514064984998 C721.4788354155136 7751.974988733771 725.3723418552971 7755.599489425059 730.6816682816143 7756.435912482545 C729.9737582883475 7756.714720611526 728.9118930874736 7756.993528075778 727.8500278865996 7756.993528075778 C727.1421174713853 7756.993528075778 726.4342070561711 7756.714720611526 725.7262966409568 7756.714720611526 C727.1421171549248 7760.33922097045 731.3895786968286 7763.127298271887 736.6989051231459 7763.127298271887 C732.8053986833623 7765.636567776708 727.8500270427048 7767.030606427427 722.1867454087804 7767.030606427427 C721.1248799969327 7767.030606427427 720.4169697926922 7767.030606427427 719.3551043808445 7767.030606427427 C724.3104762324757 7769.539875932248 730.6816687035617 7770.933914582967 737.0528607527003 7770.933914582967 C758.2901681457589 7770.933914582967 769.9706878870569 7756.993528075778 769.9706878870569 7744.725989013019 C769.9706878870569 7744.447181278721 769.9706878870569 7743.889565789351 769.9706878870569 7743.610758075825 C772.4483730744646 7742.495525975356 774.5721051640021 7740.822679860385 775.987924306641 7738.871025616432 Z "></path>
    </defs>
    <g style="mix-blend-mode:normal">
      <use xmlns:xlink="http://www.w3.org/1999/xlink" xlink:href="#s-Path_41-d1224" fill="#FF7171" fill-opacity="1.0"></use>
    </g>
  </g>
</svg>
