<svg id="Layer_1" data-name="Layer 1" xmlns="http://www.w3.org/2000/svg" viewBox="0 0 84.44 84.43"><defs><style>.cls-1{fill:#ff7171;}</style></defs><path class="cls-1" d="M.2,84.43c.24-.87.47-1.7.69-2.53L6.05,63.07A.67.67,0,0,0,6,62.5,41.84,41.84,0,0,1,21,5.87,41.32,41.32,0,0,1,37.18.32,41.81,41.81,0,0,1,80,23.54a41.16,41.16,0,0,1,4.16,20A41.87,41.87,0,0,1,51.76,82.65a41.23,41.23,0,0,1-29.07-3.87.9.9,0,0,0-.66-.07L.5,84.37Zm10.05-9.94.33-.08q6.15-1.6,12.31-3.23a1,1,0,0,1,1,.13,5.77,5.77,0,0,0,.68.4A34.24,34.24,0,0,0,51.2,75.5,34.78,34.78,0,1,0,9.35,52.72a36.59,36.59,0,0,0,4.26,8.7.62.62,0,0,1,.08.53c-.93,3.35-1.84,6.71-2.76,10.06C10.71,72.82,10.49,73.63,10.25,74.49Z"/><path class="cls-1" d="M28.75,22.56H30a1.41,1.41,0,0,1,1.22.61A6.55,6.55,0,0,1,32,24.43c1,2.43,2,4.88,3,7.28a2.91,2.91,0,0,1-.13,3,18.89,18.89,0,0,1-2.19,2.75c-.95,1-1,1.38-.29,2.58A28.14,28.14,0,0,0,42.56,50.2c1.36.77,2.8,1.4,4.22,2a1.42,1.42,0,0,0,1.92-.47Q50.4,49.71,52,47.62A1.37,1.37,0,0,1,53.76,47a17.24,17.24,0,0,1,2.05.83c2.2,1,4.39,2.16,6.61,3.19a1.85,1.85,0,0,1,1.22,2.07,14,14,0,0,1-.82,3.78,4.64,4.64,0,0,1-1.26,1.77,11.57,11.57,0,0,1-5.93,3.11,14.34,14.34,0,0,1-7.14-.65,46.31,46.31,0,0,1-8.62-3.71,42.8,42.8,0,0,1-9.76-8.13,53.4,53.4,0,0,1-6.47-8.63,17.15,17.15,0,0,1-2.33-6.15A11.64,11.64,0,0,1,24,24.7c.3-.34.6-.67.91-1a3.71,3.71,0,0,1,2.85-1.2h1Z"/></svg>