<svg id="Layer_1" data-name="Layer 1" xmlns="http://www.w3.org/2000/svg" viewBox="0 0 874.04 217.33"><defs><style>.cls-1{fill:#41272e;}.cls-2{fill:#f7ddc6;}.cls-3{fill:#ff7900;}.cls-4{fill:#fde5d2;}.cls-5{fill:#fff;}</style></defs><path class="cls-1" d="M437.09,108.45q113.16,0,226.31,0c12.47,0,22.86,7.74,25.74,19.53,4.11,16.77-6.12,30.48-20.16,33.26a26.24,26.24,0,0,1-5,.49H210.06c-14.45,0-25.79-11.56-26.07-26a26.32,26.32,0,0,1,19.56-26.43,30.48,30.48,0,0,1,7.56-.83Z"/><path class="cls-2" d="M345.07,191.29H279.41a9.68,9.68,0,0,1-1.62-.06c-3.25-.59-6.5-.1-10.12-.29,1.09,1,1.16,2.38,2.51,2.62.92.16,2.19-.53,2.7.38.41.74.1,1.9.11,2.87v.49c0,2.43-.25,2.77-2.65,3.15a9.52,9.52,0,0,1-2.26.1c-1.13-.08-1.51-.69-1-1.77,1.06-2.41.72-3.93-1.25-5.76a6.92,6.92,0,0,0-7.63-1.08c-.19.1-.51.26-.49.36a5.44,5.44,0,0,0,1.22,2.2c.34.49.79.45,1.29.21a8.46,8.46,0,0,1,3.35-1.15c1.82-.06,2.68,1.18,1.93,2.85a2.64,2.64,0,0,1-2.38,1.69c-.59,0-1.19,0-1.78,0-.87,0-1.07.3-.55,1.06,1.12,1.65,1.85,2,4,1.18,1.12-.42,1.48.1,1.85.85.92,1.86-.43,3.91-2.74,4.07a4.83,4.83,0,0,1-4.59-2.52c-.61-.95-1.08-2-1.62-3-.24-.45-.54-.93-1.11-.65s-.12.8,0,1.12a22.81,22.81,0,0,0,3.22,5.22,8.07,8.07,0,0,0,4,2.59,4.15,4.15,0,0,0,4.2-1c1.18-1.16,1.09-2.64.73-4.1-.12-.5-.33-1-.58-1.7,1.47.57,2.63,1.29,4.05.94.67-.16.72.38.68.95-.08,1.35,0,2.72-.15,4.06-.23,2,1.1,2.91,2.43,3.94a1.81,1.81,0,0,0,.24-1.37c0-4.92-.08-9.85-.1-14.77,0-.46-.26-1.24.24-1.31a8.82,8.82,0,0,1,3.51,0c.65.18.27,1.28.17,1.91-.51,3.08.34,5.32,3.53,6.29l.15.07c1.16.5,1.11,1.13.07,1.65-1.2.61-2.46,1.09-3.7,1.63-.89.39-1.09.89-.16,1.48,1.3.83,2.57,1.33,4,.1a12.47,12.47,0,0,1,2.45-1.57c1-.5,1.87-1.74,2.91-1.31.41.16.16,2,.16,3.06,0,1.25-.13,2.52,1.07,3.38.34.24.62.77,1.07.58s.26-.77.26-1.17c0-4.54,0-9.09,0-13.64,0-2.62,0-2.57,2.6-2.61,1,0,1.38.21,1.37,1.31-.08,3.95.11,7.91-.09,11.86a4.16,4.16,0,0,0,2.53,4.21,3.54,3.54,0,0,0,.19-1.94c0-4.71-.07-9.42-.08-14.13,0-.42-.32-1.13.35-1.23a6.58,6.58,0,0,1,2.9,0c.65.23.28,1.27.26,1.93,0,1.41,0,2.64,1.62,3.3,1.19.49.36,1.16-.14,1.71-2,2.16-2.13,3.9-.55,6.37a16.48,16.48,0,0,0,4.29,4.16c.3.22.66.49,1,0a.74.74,0,0,0-.25-1c-.71-.59-1.47-1.12-2.14-1.74a3.65,3.65,0,0,1,.82-6.19,10.52,10.52,0,0,1,5.22-.88c.81,0,.63.59.64,1,0,1.51,0,3,0,4.54a3.74,3.74,0,0,0,1.54,3.38c.34.25.62.77,1.06.6s.24-.77.23-1.16q-.13-6.58-.32-13.15c-.07-3-.07-3,2.94-3,3.65,0,3.65,0,3.28,3.57,0,.05,0,.11,0,.16-.25,1.09-.64,1.8-2,1.21-1.62-.69-2.59,0-2.1,1.59,1.4,4.56,4.64,7.83,8.16,10.84a.64.64,0,0,0,.89,0c.31-.28.09-.6,0-.89a5.21,5.21,0,0,0-2-2.1c-3.21-2.47-3.19-2.61-1.39-6.22.62-1.24,1.14-1.22,2-.39a2.82,2.82,0,0,0,.61.54,6,6,0,0,0,5.14.42c1.05-.44.26-1.73.42-2.62,0-.06-.1-.15-.22-.31-1.8,1-3.77.64-5.7.68-.93,0-1.38-.36-1.33-1.37a31.56,31.56,0,0,0,0-3.89c-.07-1,.25-1.29,1.26-1.26,3,.06,6.07,0,9.1,0,.74,0,1.73-.37,1.93.87s0,2.4-1.23,3.05a5.31,5.31,0,0,1-2.52.48c-1,0-1.14.44-.65,1.2a22.63,22.63,0,0,0,3.55,4.82,5.21,5.21,0,0,0,6.14,1.11c1.65-.83,1.51,0,1.33,1-.45,2.4,1,3.67,2.95,5.13,0-5.71,0-11.06,0-16.41,0-.91.11-1.48,1.2-1.28.73.13.82-.27.92-.92C346.92,191.18,346.05,191.29,345.07,191.29Zm-58.39,10.49a2.75,2.75,0,0,1-3.37-.83c-1.71-2-1.92-4.37-1.46-6.86.12-.66.58-.51,1-.51,1.51,0,3,.06,4.53,0,1-.06,1.36.28,1.25,1.27-.07.75,0,1.51,0,2.26a9.6,9.6,0,0,0,0,1.78C288.91,200.49,287.9,201.24,286.68,201.78Zm24.52-2.92c-.8.81-2.56.2-3.89.23-2.47,0-2.48,0-2.83-2.47-.14-1-.23-1.92-.36-3.05,2.24,0,4.44,0,6.63,0,.58,0,.77.24.73.77,0,.16,0,.33,0,.49C311.38,196.21,312.06,198,311.2,198.86Zm26.39,4a4.05,4.05,0,0,1-3.88-1.1c-.55-.5-.78-1.05.22-1.44,3.17-1.26,3.16-1.28,2.51-4.55-.06-.32-.13-.63-.21-.95-.2-.87-.12-1.5,1-1.3a6.08,6.08,0,0,0,1.13,0c3.42,0,3.42,0,3.39,3.4C342,200.7,341.38,201.84,337.59,202.9Z"/><path class="cls-2" d="M611,215.61a63.2,63.2,0,0,0-8.09-5.68,1.58,1.58,0,0,1-1-1.6q0-6.74-.08-13.47c0-.91.1-1.48,1.2-1.3.9.16,1.32-.08,1.33-1.17s-.66-1.1-1.42-1.09c-5.37,0-10.73,0-16.1,0-7.74-.06-15.48.16-23.22-.13-2.05-.07-4.11,0-6.17,0,.74,1.7,1.76,2.87,3.81,2.42a.75.75,0,0,1,.87.26c.35.56,0,3.95-.56,4.34a5.91,5.91,0,0,1-4.69,1.26c-.75-.13-1-.4-.49-1,1.43-1.8,1-3.5-.18-5.21a4.92,4.92,0,0,0-4.89-2.21c-2.08.22-3,1.58-2.58,3.64.27,1.38,1.35,2,2.31,2.81.65.52,1,.83,0,1.48a4.31,4.31,0,0,0-1.11,6.59,7.06,7.06,0,0,0,4.47,3,1.66,1.66,0,0,1,1.56,1.51,21.54,21.54,0,0,0,.93,2.92,1.15,1.15,0,0,0,1.61.68c.77-.31.56-1,.34-1.52a6.12,6.12,0,0,0-.87-1.56c-.91-1.14-1.27-2.11.21-3.16a1.89,1.89,0,0,0,.51-2.37,2.5,2.5,0,0,0-2.27-1.34c-1-.09-1.38.74-1.62,1.53-.32,1-.9,1.62-2,1.32a2,2,0,0,1-1.46-2.24c.1-1.74,1.17-2.82,2.49-3.79.73-.54,1.28-.73,2.07-.07a5.36,5.36,0,0,0,5,1.07c.84-.22,1.19-.09,1.1.88-.1,1.18,0,2.39-.11,3.56-.32,2.48,1.17,3.82,3,5.33,0-1.13,0-2,0-2.83,0-4.55,0-9.09-.14-13.64,0-1,.26-1.3,1.26-1.25s1.43,0,1.36,1.19c-.11,1.61,0,3.24,0,4.87a4.35,4.35,0,0,0,1.76,3.66c.68.53,1.4,1,2.1,1.51,1.38,1,2.87,1.67,4.52.83s1.62-2.55,1.64-4.12c0-2.28,0-4.55,0-6.82,0-.84.21-1.22,1.08-1.1a2.45,2.45,0,0,0,.81,0c1.4-.21,1.94.21,1.89,1.77-.14,3.9,0,7.8-.06,11.69a4.28,4.28,0,0,0,2.6,4.08,2.41,2.41,0,0,0,.19-1.51c0-4.92,0-9.85-.09-14.77,0-1,.25-1.34,1.27-1.27,1.5.11,3.46-.48,4.41.26s.21,2.84.32,4.33c0,.37,0,.76,0,1.13.08.82-.22,1.23-1.1,1.14a1.26,1.26,0,0,0-1.47.73,1.71,1.71,0,0,0,.46,1.8c.7.82,1.43,1.62,2.17,2.4.53.55,1.07,1.11,2,.77s.93-1.09.85-1.88c0-.5-.13-1.15.48-1.18,1.84-.09,3.83-.45,5.47.13,1,.34.19,2.35.35,3.6a6.23,6.23,0,0,0,0,1c.37,1.12.13,1.65-1.17,1.43-1-.17-1.14.36-.77,1.13.21.44.5.83.74,1.26.71,1.24,1.52,1.84,3,.87a3.09,3.09,0,0,1,3.91.33c1.36,1.08,2.63,2.25,3.94,3.39a3.65,3.65,0,0,0,1.43,1c.51.13,1.13.33,1.48-.24S611.38,216,611,215.61Zm-58-18.3a2.15,2.15,0,0,1-1.62-2.15,2.3,2.3,0,0,1,2.15-2.55,1.46,1.46,0,0,1,1.62,1.6C555.17,195.48,553.87,197.36,553,197.31Zm21.54,3.86a2.4,2.4,0,0,1-2.64,2.27c-1.42-.07-1.7-1-1.63-2.26.06-1,0-2.05,0-3.08,0-.49,0-1,0-1.46,0-3.22,0-3.2,3.3-3.09.72,0,1.06.15,1,1C574.54,196.74,574.59,199,574.53,201.17Zm21-.77c-3.09,0-3.09,0-3.09-3.12,0-3.71,0-3.71,3.46-3.71,3.08,0,3.08,0,3.08,3.44S599,200.4,595.56,200.4Z"/><path class="cls-2" d="M506.1,191.3H454.41c-.75,0-1.33-.06-1.31,1s.27,1.43,1.27,1.24c1.21-.23,1.26.46,1.26,1.39,0,4,.1,8-.07,12-.08,2.09,1,3.07,2.71,4,0-.83,0-1.47,0-2.12,0-4.65-.07-9.31-.08-14,0-.44-.29-1.17.3-1.28a6.27,6.27,0,0,1,2.89,0c.76.23.27,1.23.34,1.88.12,1.12-.39,2.44,1.13,3.06,1.25.51,1.26,1.13.29,2.1-1.94,1.94-2.07,3.76-.64,6.09a16.15,16.15,0,0,0,4.37,4.31c.28.21.63.56,1,.12s.08-.81-.28-1.11c-.67-.55-1.38-1.05-2-1.64a3.66,3.66,0,0,1,.86-6.27,10.25,10.25,0,0,1,4.58-.86c.88,0,1.26.2,1.22,1.14-.05,1.46,0,2.93,0,4.39a3.8,3.8,0,0,0,1.61,3.51c.34.24.61.76,1.08.49s.16-.7.15-1.06c-.08-3.78-.23-7.57-.27-11.35,0-1.6-.8-3.79.22-4.62s3.1-.24,4.71-.27h.65c.29,0,.57.06.56.42a14.24,14.24,0,0,1-.15,3.86c-.28.9-.88,1.12-1.78.68-.54-.26-1.2-.76-1.79-.15a2.11,2.11,0,0,0-.31,2.14A7.63,7.63,0,0,0,478,203a42.63,42.63,0,0,0,5.9,7.1,5.41,5.41,0,0,0,.75.61c.36.22.76.61,1.17.26s.05-.9-.15-1.3a5.28,5.28,0,0,0-1.6-1.59c-3.44-2.66-3.44-2.84-1.45-6.59.54-1,1-.91,1.71-.31.25.21.47.45.73.65,1,.78,4.47,1.2,5.29.47s.23-1.8.3-2.72c0,0-.05-.08-.12-.2-1.76.83-3.67.62-5.55.68-1.2,0-1.64-.45-1.56-1.64a29.17,29.17,0,0,0,0-3.74c-.06-.94.28-1.17,1.18-1.16,3.15,0,6.29.1,9.43,0,1.58-.06,1.86.72,1.74,2-.16,1.65-1.08,2.33-3.59,2.45-1.32,0-1.38.53-.77,1.45a24.63,24.63,0,0,0,3.39,4.54,5.26,5.26,0,0,0,6.13,1.19c1.69-.82,1.57,0,1.39,1.09-.42,2.39,1,3.6,2.73,4.84a2.79,2.79,0,0,0,.21-1.69q0-7.31,0-14.62c0-.68-.07-1.37,1-1.19,1.18.22,1.09-.53,1.14-1.34C507.4,191.18,506.76,191.3,506.1,191.3Zm-38.2,7.8c-2.42,0-2.43,0-2.77-2.36-.14-1-.24-2-.37-3.17,2.21,0,4.35,0,6.5,0,.77,0,.83.35.86,1C472.37,199.05,472.38,199.05,467.9,199.1Zm34.53-2.19c0,4-1,5.33-4.15,6a4.51,4.51,0,0,1-3.78-.94,1.09,1.09,0,0,1-.56-1.09c.1-.48.54-.46.89-.57,2.63-.83,2.82-1.15,2.34-4s-.47-2.77,2.3-2.77C502.46,193.57,502.46,193.57,502.43,196.91Z"/><path class="cls-2" d="M400.76,191.29c-6.16,0-12.33,0-18.49-.21-3.55-.13-7.1.28-10.66.24-4.71-.07-9.43,0-14.14,0-.49,0-1.26-.22-1.07.69.11.53-.58,1.57.54,1.52,1.4-.07,1.13.73,1.09,1.53s-.08,1.83-.11,2.75a3.24,3.24,0,0,0,2.21,3.41c.5.2.95.51,1.45.72,1.23.54,1.21,1.16.07,1.73s-2.35,1.07-3.55,1.56c-.64.26-1.13.59-.58,1.3a3.23,3.23,0,0,0,4,.52c1.65-1,3.31-2,5-3.08.66-.41,1-.32.94.53,0,1.13,0,2.27,0,3.41a3.13,3.13,0,0,0,2.19,3.18,3.65,3.65,0,0,0,.21-1.84c0-4.33,0-8.67,0-13,0-2.72,0-2.64,2.68-2.7,1.18,0,1.29.44,1.28,1.4-.05,3.85.11,7.7-.07,11.53a4.2,4.2,0,0,0,2.6,4.48,4.62,4.62,0,0,0,.12-.58c0-4.44,0-8.88-.11-13.32-.05-3.65-.07-3.62,3.52-3.69,1.05,0,1.38.24,1.36,1.34-.06,4.55,0,9.1-.05,13.64a2.65,2.65,0,0,0,1.33,2.4c.82.57,1.12.35,1.11-.61,0-4.77,0-9.53,0-14.3,0-2.73-.14-2.63,2.61-2.31,1.07.13.8.69.88,1.28.19,1.34-.71,3,1.18,3.84,1.18.51,1.18,1.08.28,2-2,2.08-2.14,3.89-.56,6.36a16.34,16.34,0,0,0,4.16,4.05c.32.24.74.67,1.09.1s0-.8-.39-1.1c-.68-.53-1.39-1-2-1.63a3.64,3.64,0,0,1,.86-6.18,9.85,9.85,0,0,1,4.73-.89c.81,0,1.16.18,1.13,1.06-.05,1.51,0,3,0,4.54a3.73,3.73,0,0,0,1.55,3.38c.34.24.61.77,1.06.57s.23-.78.22-1.17c-.11-5-.23-10-.39-14.93,0-.84.05-1.41,1.08-1.23s.94-.6,1-1.29C402,191.28,401.48,191.29,400.76,191.29Zm-35.59,10.55a2.85,2.85,0,0,1-3.42-1.16,8.07,8.07,0,0,1-1.24-6.48c.11-.59.42-.64.9-.63,1.61,0,3.24.05,4.85,0,.93,0,1.09.38,1,1.15s0,1.62,0,2.43a9.73,9.73,0,0,0,0,1.62C367.61,200.5,366.57,201.33,365.17,201.84Zm30.18-2.72a6.73,6.73,0,0,0-2.57,0c-1.76.44-2.42-.16-2.39-1.93,0-1.16-.72-2.72-.2-3.39s2.22-.16,3.39-.24h.17c3.57,0,3.47,0,3.61,3.57C397.43,198.79,397,199.35,395.35,199.12Z"/><path class="cls-2" d="M546.61,193.58c.85,0,1.36,0,1.36-1.15s-.55-1.14-1.38-1.14q-14.13,0-28.27,0c-.84,0-1.36,0-1.36,1.15s.52,1.19,1.37,1.14c.7,0,1.4,0,2.11,0,.5,0,.82.07.8.68a28.69,28.69,0,0,1,0,3.08c-.11.88-.44,1.75-1.7,1.29-.67-.24-1.39-1-2.06-.16a2.28,2.28,0,0,0-.12,2.47c1.7,4,4.54,7,7.71,9.88.29.26.77.55,1.16.12s0-.83-.2-1.18a6.06,6.06,0,0,0-1.73-1.69c-3.33-2.52-3.41-3.07-1.26-6.6.44-.73,1-.81,1.41-.31,1.65,1.83,3.76,1.69,5.85,1.41.89-.12.73.36.73.81,0,1.24,0,2.49,0,3.73,0,1.89.87,3.15,2.73,4.11,0-.74.09-1.21.08-1.69,0-4.87-.08-9.74-.17-14.6,0-1,.21-1.46,1.32-1.37,1.35.1,2.71,0,4.06,0,2.27,0,2.27,0,2.34,2.3a7.12,7.12,0,0,1,0,.8c-.2,2.24-.61,2.5-2.7,1.8-.58-.2-1.21-.62-1.81,0a2,2,0,0,0-.42,2,4.85,4.85,0,0,0,.77,1.77c2.41,3.69,5.78,6.41,9.12,9.16.31.25.76.65,1.16.31a1.11,1.11,0,0,0,0-1.5,4.93,4.93,0,0,0-1.07-1,35.72,35.72,0,0,1-3.59-2.77,1.73,1.73,0,0,1-.39-2.45c1.57-2.34,1.73-4.93,1.57-7.63S543.89,193.58,546.61,193.58Zm-18.46,6.49c-4.5.27-4.5.27-4.5-4.2a8.51,8.51,0,0,0,0-1.13c-.11-.92.24-1.27,1.17-1.18s1.73,0,2.6,0c3.58,0,3.58,0,3.58,3.58C531,199.58,530.66,199.92,528.15,200.07Z"/><path class="cls-2" d="M452,191.29c-2.11,0-4.22,0-6.34,0s-4.55,0-6.82,0c-.62,0-1,.19-.82.82s-.42,1.45.49,1.41c1.49-.08,1.27.8,1.13,1.63-.54,3.23.11,5.77,3.66,6.85,1.23.38,1.05,1.12.05,1.63-1.21.6-2.47,1.09-3.71,1.62-.66.29-1,.66-.41,1.32a3.06,3.06,0,0,0,4,.41c1-.64,2-1.31,3-1.9.83-.47,1.81-1.61,2.48-1.23.83.47.19,1.86.3,2.85.12,1.15-.32,2.42.73,3.35.43.38.81,1.13,1.41.89s.25-1,.25-1.47q0-7.4,0-14.78c0-.6-.14-1.25.83-1.12,1.23.15.85-.77.93-1.39C453.2,191.26,452.62,191.29,452,191.29Zm-5.17,10.54a2.81,2.81,0,0,1-3.43-1.13,8.08,8.08,0,0,1-1.26-6.47c.13-.71.54-.66,1-.66,1.45,0,2.92.08,4.37,0,1.18-.09,1.52.35,1.39,1.45a18.38,18.38,0,0,0,0,2.1,10.57,10.57,0,0,0,0,1.78C449.23,200.61,448.1,201.33,446.81,201.83Z"/><path class="cls-2" d="M622.13,191.62a2.81,2.81,0,0,0-.19,1.64c0,4.54.1,9.09-.06,13.62-.08,2.07,1.31,2.77,2.65,4.23,0-5.4-.14-10.32.07-15.22C624.69,193.73,623.65,192.68,622.13,191.62Z"/><path class="cls-2" d="M239.86,191.76c0,4.78.13,9.54-.06,14.29a5,5,0,0,0,2.66,4.83V195.42C242.46,193.51,241.8,192.57,239.86,191.76Z"/><path class="cls-2" d="M615.21,191.51c0,5.12.11,10.09-.05,15.05-.08,2.13,1.13,3.1,2.65,4.35,0-5-.14-9.76.06-14.5A4.78,4.78,0,0,0,615.21,191.51Z"/><path class="cls-2" d="M233.14,191.51c0,5.19.1,10.23,0,15.25-.07,2.1,1.22,2.93,2.64,4.16,0-5.09-.13-9.91.06-14.71A4.64,4.64,0,0,0,233.14,191.51Z"/><path class="cls-2" d="M382.68,190.19c.71-.15.44-1,.49-1.54.33-3.27,2.38-4.64,5.54-3.67a7.68,7.68,0,0,1,3.3,2,27,27,0,0,0,3.54,3.45,1.27,1.27,0,0,0-.26-1.64,41.38,41.38,0,0,0-4.5-4.67,8.15,8.15,0,0,0-5.86-1.9,4.37,4.37,0,0,0-3.48,6.85C381.77,189.53,382.07,190.31,382.68,190.19Z"/><path class="cls-2" d="M422.25,191.49v1.84c0,4.33.13,8.67-.06,13-.1,2.08.82,3.29,2.47,4.6,0-5.28-.12-10.26,0-15.23C424.79,193.69,423.84,192.68,422.25,191.49Z"/><path class="cls-2" d="M533.6,189.65a5.52,5.52,0,0,0,1.83-2.42c.15-.44-2-2.7-2.43-2.68a5.34,5.34,0,0,0-2,2.65C531.1,187.74,533,189.7,533.6,189.65Z"/><path class="cls-2" d="M407.8,194.3c-1.18.29-1.55,1.39-2,2.35-.21.47,1.56,2.69,2.06,2.72s2.16-2,2.19-2.48S408.26,194.19,407.8,194.3Z"/><path class="cls-2" d="M407.71,202a4.05,4.05,0,0,0-1.9,2.46c-.14.42,1.73,2.74,2.1,2.74a6.77,6.77,0,0,0,2.16-2.72C410.06,203.94,408.08,201.79,407.71,202Z"/><path class="cls-2" d="M613.59,130.48l-8.43,16.19c-.8,1.54-1.6,3.07-2.37,4.62-.31.61-.61,1.05-1.43,1s-1-.52-1.26-1l-9.9-18.79-1.13-2.08c-.43,3-.81,5.55-1.18,8.12-.58,4.12-1.18,8.24-1.72,12.37-.13,1-.45,1.58-1.59,1.41a10.69,10.69,0,0,0-1.79,0c-1.07,0-1.42-.51-1.27-1.55,1.53-10.16,3-20.32,4.6-30.47.09-.58-.28-1.51.75-1.74s1.33.63,1.7,1.34l12.21,23.25.55,1c.62-.32.71-.94,1-1.44q5.82-11.22,11.6-22.47a6.79,6.79,0,0,0,.52-1c.25-.74.81-.74,1.44-.72s.61.62.68,1.06q1.77,11.55,3.52,23.09c.39,2.57.72,5.14,1.17,7.7.24,1.3,0,1.93-1.49,1.93-2.85,0-2.87.06-3.28-2.77q-1.31-8.91-2.58-17.82C613.84,131.47,613.76,131.22,613.59,130.48Z"/><path class="cls-2" d="M277.4,140c-3,0-6-.08-8.93,0-1.93.07-1.7-1.16-1.72-2.36s-.05-2.25,1.71-2.21c4.12.09,8.24,0,12.36,0,1.94,0,2.14.22,2,2.16-.65,8.7-6.78,14.68-15.82,15.29-6,.41-11.57-.71-16.18-4.85-4.81-4.32-6.83-9.73-5.44-16.09,1.46-6.71,5.8-11.08,12.29-13,8.18-2.46,15.61-.72,22.15,4.81,1,.81,1.06,1.45.05,2.35-2.21,2-2.17,2-4.52.23-6-4.58-13.28-5.14-19.29-1.5-7.79,4.73-8.3,14.93-1,20.41,5.28,4,13.25,4.32,18.3.81A8.76,8.76,0,0,0,277.4,140Z"/><path class="cls-2" d="M352.92,137.42l10.5,12.74c.39.47,1.06.88.66,1.67s-1,.37-1.59.47c-2.32.42-3.85-.52-5.28-2.41-3-4-6.28-7.72-9.46-11.56-.39-.48-.73-1.26-1.52-.9-.59.27-.26,1-.26,1.46,0,3.84-.06,7.68,0,11.52,0,1.39-.4,2.06-1.85,1.89a8.9,8.9,0,0,0-1.46,0c-1,.06-1.49-.44-1.48-1.45,0-1.4,0-2.81,0-4.22v-26c0-2,.08-2.15,2.09-2.12,4,.06,8-.17,12,.26,5.12.56,8.53,4,8.66,8.82S361,136.14,355.9,137C355,137.15,354.09,137.25,352.92,137.42Z"/><path class="cls-2" d="M565.24,152.28c-1.48.5-2.16-.49-2.79-1.86-1.2-2.59-2.59-5.09-3.81-7.68a1.83,1.83,0,0,0-2-1.19c-3.68.06-7.36.07-11,0a2.12,2.12,0,0,0-2.34,1.41c-1.2,2.65-2.62,5.21-3.86,7.85a2.23,2.23,0,0,1-2.43,1.53c-3.63-.11-3.63,0-2-3.3q7.26-14.53,14.54-29.09c.31-.62.39-1.43,1.47-1.44s1.19.76,1.51,1.4c4.87,9.87,9.7,19.77,14.64,29.61C568.43,152.09,568,152.48,565.24,152.28Z"/><path class="cls-2" d="M427.48,138.29c0,4.12,0,8,0,11.89,0,.74.22,1.79-.66,2A5.81,5.81,0,0,1,423,152c-.44-.22-.34-.76-.34-1.19q0-15.42,0-30.85c0-1,.44-1.4,1.46-1.44,3.34-.1,3.34-.13,3.34,3.17v7.79c.81.08,1.11-.54,1.52-.9,3.49-3.09,6.95-6.2,10.42-9.3.66-.59,4.95-1.16,5.59-.66s.45,1.15-.19,1.71c-3.34,2.92-6.65,5.88-10,8.83-1.33,1.18-2.62,2.44-4,3.53-1.07.82-1.12,1.32-.11,2.32,5.09,5,10.1,10.11,15.12,15.19.42.42,1.19.73.83,1.58s-1.11.42-1.7.52c-2.41.41-4.09-.59-5.75-2.35C435.51,146,431.56,142.31,427.48,138.29Z"/><path class="cls-2" d="M385.61,131.16c0,3.51,0,7,0,10.55.07,4.08,2.85,6.63,7.19,6.7A6.68,6.68,0,0,0,400,142c.4-7.09.09-14.18.19-21.27,0-.72-.33-1.75.55-2a6,6,0,0,1,3.65,0c.53.18.45.8.45,1.29,0,7,.06,14.07-.06,21.11-.09,4.76-1.87,8.76-6.48,10.74a13.12,13.12,0,0,1-13.39-1.51,8.9,8.9,0,0,1-3.81-6.87c-.58-7.83-.13-15.69-.27-23.53,0-1,.46-1.41,1.48-1.44,3.28-.13,3.28-.15,3.28,3.06v9.58Z"/><path class="cls-2" d="M466.57,131.12c0,3.46,0,6.93,0,10.39.06,4.24,2.76,6.81,7.16,6.9a6.73,6.73,0,0,0,7.24-6.69c.34-7,.07-14.07.16-21.1,0-.72-.3-1.77.65-2a5.68,5.68,0,0,1,3.64.15c.45.2.36.74.36,1.17,0,7,0,14.08-.06,21.11-.08,4.76-1.85,8.78-6.45,10.76a13.07,13.07,0,0,1-13.52-1.57,8.81,8.81,0,0,1-3.71-6.75c-.59-7.84-.13-15.69-.28-23.53,0-1,.41-1.44,1.45-1.48,3.32-.15,3.32-.18,3.32,3.18v9.42Z"/><path class="cls-2" d="M318.22,130.93c0-3.52,0-7,0-10.56,0-1.41.45-2,1.88-1.85a12.5,12.5,0,0,0,1.62,0,1,1,0,0,1,1.18,1.21c-.15,7.73.33,15.47-.27,23.2-.51,6.52-6.32,11-13.62,9.86-5.3-.82-8.76-3.7-9.66-8.07a24.48,24.48,0,0,1-.43-4.84c0-6.44,0-12.88-.06-19.32,0-1.55.45-2.13,2-2.07,2.75.1,2.75,0,2.75,2.79,0,6.88,0,13.75.06,20.62,0,3.76,2.67,6.21,6.73,6.5,3.66.26,6.94-2,7.49-5.32a37.4,37.4,0,0,0,.3-5.51C318.26,135.37,318.22,133.15,318.22,130.93Z"/><path class="cls-2" d="M504,135.35c0-4.93,0-9.85,0-14.78,0-1.53.37-2.14,2-2.07,2.73.11,2.74,0,2.74,2.79,0,8.28,0,16.56,0,24.84,0,1.38.4,1.71,1.72,1.68,3.25-.1,6.5.05,9.75-.07,1.87-.07,1.78,1,1.78,2.29s.1,2.34-1.78,2.3c-4.82-.1-9.64-.07-14.46,0-1.28,0-1.71-.43-1.7-1.7C504,145.52,504,140.44,504,135.35Z"/><path class="cls-1" d="M346,127.88c0-1.3,0-2.59,0-3.89,0-.68.17-1,.9-.95,2.76.11,5.52-.2,8.26.3a4.47,4.47,0,0,1,4,4.39,4.55,4.55,0,0,1-3.77,4.77c-2.84.62-5.72.25-8.58.34-.7,0-.79-.33-.78-.9C346,130.59,346,129.23,346,127.88Z"/><path class="cls-1" d="M546.29,137l4.75-9.51,4.75,9.51Z"/><path class="cls-3" d="M762.2,29.61c-3.51,7.53-6.84,14.67-10.16,21.82-4,8.62-8,17.23-12,25.88a2.2,2.2,0,0,1-2.38,1.6,2.45,2.45,0,0,1-2.59-1.53q-10.8-23.14-21.72-46.22L712.81,30c-.61.24-.45.74-.5,1.12q-2.41,18.66-4.8,37.33c-.38,3-.78,5.91-1.07,8.87-.12,1.21-.56,1.65-1.81,1.56-1.67-.11-3.35,0-5,0s-2.5-.81-2.28-2.5q1.36-10.45,2.79-20.9,2-15,4.06-30.07c.94-6.91,1.87-13.83,2.84-20.73.07-.53-.28-1.51.81-1.43s2.18-.53,2.87,1c2.08,4.69,4.32,9.31,6.5,14Q727,39,736.76,59.87c.22.47.47.93.72,1.42.55-.36.64-.93.86-1.41q12.72-27.51,25.41-55a2.82,2.82,0,0,1,3.6-1.64c.61.17.51.61.57,1q1.29,9.41,2.57,18.81,2.22,16.32,4.43,32.63,1.4,10.29,2.74,20.59c.24,1.82-.51,2.6-2.3,2.61s-3.58,0-5.37,0c-1,0-1.35-.21-1.49-1.3-2-15.72-4.07-31.43-6.12-47.14C762.36,30.28,762.32,30.14,762.2,29.61Z"/><path class="cls-3" d="M253,50.91H233.68c-1.75,0-2.43-.69-2.45-2.43s0-3.25,0-4.88.73-2.38,2.33-2.38h27.8c1.35,0,2.23.62,2.22,2-.13,10.91-3.09,20.72-11.29,28.41-6,5.61-13.26,8.23-21.34,8.75-10.73.7-20.77-1.37-29.2-8.43-11-9.23-15.64-21.15-14.32-35.46C188.86,20.84,199.94,7.2,215,3.17c14.18-3.79,27.11-1,38.62,8.17a76.18,76.18,0,0,1,5.64,5.14c.64.62.73,1,0,1.64-1.59,1.47-3.09,3-4.63,4.56-1.32,1.31-2.22,1.31-3.55,0a37.18,37.18,0,0,0-18.89-10.78c-15.42-3.33-31.65,7.39-34.66,22.94a30,30,0,0,0,25.86,35.67c9.69,1.23,18.17-1.14,24.71-8.79A21.75,21.75,0,0,0,253,50.91Z"/><path class="cls-3" d="M538.62,41V5.94c0-2.22.53-2.74,2.78-2.74,1.35,0,2.71,0,4.06,0,2,0,2.62.63,2.62,2.59,0,8.77,0,17.55,0,26.32,0,1.38.37,1.67,1.7,1.66q14.71-.09,29.43,0c1.52,0,1.74-.47,1.73-1.82-.06-8.67,0-17.33,0-26,0-2.24.51-2.76,2.75-2.76,1.41,0,2.82,0,4.22,0,1.73,0,2.5.73,2.5,2.41V76.44c0,1.68-.76,2.4-2.49,2.41-1.52,0-3,0-4.55,0-1.75,0-2.43-.68-2.43-2.43,0-10.35,0-20.69,0-31,0-1.5-.25-2-1.89-2-9.76.09-19.51.08-29.27,0-1.32,0-1.71.27-1.7,1.66.06,10.34,0,20.68,0,31,0,2.2-.55,2.75-2.77,2.75-1.31,0-2.61,0-3.91,0-2.25,0-2.78-.52-2.78-2.73Z"/><path class="cls-3" d="M626.83,41.06V6c0-2.14.64-2.77,2.79-2.77h36.74c2.21,0,2.74.53,2.74,2.77V10.2c0,2.11-.58,2.69-2.66,2.7-9.48,0-19,0-28.44,0-1.49,0-1.78.42-1.76,1.81q.12,8.45,0,16.89c0,1.43.29,1.91,1.83,1.89,9.38-.08,18.75,0,28.13,0,2,0,2.6.59,2.61,2.57q0,2.35,0,4.71c0,1.74-.69,2.41-2.45,2.41-9.43,0-18.86,0-28.29,0-1.55,0-1.84.48-1.83,1.9q.1,11.2,0,22.42c0,1.39.28,1.82,1.76,1.8,9.37-.07,18.75,0,28.12,0,2.09,0,2.69.59,2.69,2.66,0,1.63,0,3.25,0,4.87a2,2,0,0,1-2.22,2.16q-18.69,0-37.39,0c-1.63,0-2.37-.81-2.37-2.54Z"/><path class="cls-3" d="M873.76,75.91Q858,40.21,842.19,4.49a1.77,1.77,0,0,0-2-1.32c-1.07.08-1.93-.06-2.53,1.31-5.2,11.81-10.51,23.58-15.79,35.36s-10.7,23.85-16,35.78c-1,2.16-.25,3.23,2.14,3.24a43.94,43.94,0,0,1,4.87,0c1.66.19,2.32-.54,2.94-2,3-6.93,6.19-13.8,9.25-20.72a2,2,0,0,1,2.11-1.44q12.76.09,25.52,0A1.75,1.75,0,0,1,854.55,56c2.83,6.37,5.85,12.65,8.54,19.08,1.17,2.81,2.38,4.81,5.82,3.76h2.93C873.71,78.84,874.52,77.62,873.76,75.91ZM830.07,45l9.84-21.92c3.32,7.42,6.54,14.6,9.81,21.92Z"/><path class="cls-3" d="M359,75.81,346.12,46.76q-9.33-21.1-18.67-42.23a1.89,1.89,0,0,0-1.82-1.39,2.47,2.47,0,0,0-3,2.05A9.24,9.24,0,0,1,322,6.67Q306.47,41.2,291,75.72c-.88,2-.15,3.13,2,3.13,1.9,0,3.8-.07,5.69,0a1.81,1.81,0,0,0,2-1.32c3.18-7.21,6.45-14.39,9.65-21.6a1.67,1.67,0,0,1,1.8-1.17q12.91.06,25.84,0A1.65,1.65,0,0,1,339.78,56c2.84,6.36,5.88,12.64,8.54,19.08,1.2,2.9,2.52,4.8,6,3.79.92,0,1.84,0,2.76,0C359,78.84,359.77,77.64,359,75.81ZM315.3,45c3.29-7.33,6.53-14.53,9.88-22,3.32,7.43,6.52,14.6,9.82,22Z"/><path class="cls-3" d="M400,28.8c4.78-4.93,9.54-9.88,14.36-14.78,3.26-3.32,6.63-6.55,9.89-9.87a3,3,0,0,1,2.42-1c2.27.06,4.55,0,6.83,0,.91,0,1.69-.12,2.15,1.1s-.13,1.58-.74,2.18L412.46,28.59c-2.55,2.51-5,5.08-7.68,7.49-1.15,1-.94,1.64,0,2.65q16.42,18.33,32.79,36.72c.6.66,1.25,1.16.75,2.35s-1.31,1-2.2,1c-2.28,0-4.55,0-6.83,0a2.62,2.62,0,0,1-2.2-1q-13.33-15-26.73-29.94l-.88-.93c0,.83-.08,1.38-.08,1.94q0,13.56,0,27.13c0,2.18-.61,2.8-2.75,2.8-1.46,0-2.92,0-4.39,0-1.72,0-2.48-.74-2.48-2.42q0-35.4,0-70.82c0-1.67.76-2.4,2.49-2.41q2.36,0,4.71,0c1.68,0,2.42.76,2.42,2.49q0,10.47,0,21v1.75Z"/><path class="cls-3" d="M482.57,80.47c-5.56-.09-11.06-2.8-15.43-7.88a47.7,47.7,0,0,1-5.51-8.4c-.35-.65-.31-1,.37-1.4,1.81-1.08,3.56-2.26,5.36-3.37a2,2,0,0,1,3,.87,28.88,28.88,0,0,0,5.38,7.27c3.3,3.08,7.09,4,11.39,2.55a10.63,10.63,0,0,0,7.51-8.94A10.88,10.88,0,0,0,492.27,53a54.92,54.92,0,0,0-10.1-10.05A105.75,105.75,0,0,1,471.87,34c-5.64-6-7.44-13-4.67-20.83,3.91-11,17.62-15,27.49-8.29,3.69,2.53,6.31,6.05,8.86,9.64.38.52.28.81-.19,1.19-1.84,1.43-3.61,2.95-5.48,4.33a1.86,1.86,0,0,1-2.8-.58,36.49,36.49,0,0,0-4.3-5.07,9.56,9.56,0,0,0-8.68-2.6c-5.74,1.11-8.19,7.33-5.11,12.81a17.8,17.8,0,0,0,4.24,4.87c4.28,3.58,8.85,6.79,13,10.55,4.6,4.18,8.52,8.83,10,15.06C507.2,68.06,497.14,80.54,482.57,80.47Z"/><path class="cls-3" d="M26.63,32.08C32,22.78,37.28,13.72,42.47,4.61A2.4,2.4,0,0,1,45,3.17c2,.11,3.9,0,5.85,0s2.59,1.4,1.68,3q-10.07,17.5-20.14,35a7.19,7.19,0,0,0-1,3.81c.05,10.4,0,20.79,0,31.18,0,2-.67,2.68-2.71,2.68-1.35,0-2.7,0-4.06,0-1.94,0-2.62-.67-2.62-2.61q0-15.58,0-31.18a7,7,0,0,0-1-3.81Q10.73,23.87.54,6.43A2,2,0,0,1,.29,4.09c.58-1,1.34-.91,2.19-.89,2.37.08,5.16-.84,7,.33S12,7.3,13.19,9.3Q19.4,19.86,25.6,30.41C25.89,30.92,26.22,31.41,26.63,32.08Z"/><path class="cls-1" d="M163.34,39.59A39.47,39.47,0,0,0,148.14,9.7C140.3,3.32,131.19.5,121.25,0A41.42,41.42,0,0,0,111,1,42.24,42.24,0,0,0,88.33,13.07,38.89,38.89,0,0,0,80.12,25.2C77.36,32,76.05,39.07,77.19,46.39a40.94,40.94,0,0,0,7.49,18.54,42.22,42.22,0,0,0,17,13.59c5.71,2.53,11.82,4.17,18.52,3.63,4.41.59,8.85-.69,13.29-1.82a37.17,37.17,0,0,0,12.39-6.11A41.23,41.23,0,0,0,159.21,59,40.34,40.34,0,0,0,163.34,39.59ZM120.08,73.05c-18.66,0-33.8-14.48-33.8-32.33a30.61,30.61,0,0,1,.71-6.6,4.65,4.65,0,0,1,.33-1.5,30.27,30.27,0,0,1,1.21-3.51C93.4,17,105.69,8.39,120.08,8.39a34.16,34.16,0,0,1,28.37,14.75,25.54,25.54,0,0,1,5,12.46,30.94,30.94,0,0,1,.43,5.12C153.89,58.57,138.75,73.05,120.08,73.05Z"/><path class="cls-4" d="M153.89,40.72c0,17.85-15.14,32.33-33.81,32.33s-33.8-14.48-33.8-32.33a30.61,30.61,0,0,1,.71-6.6,4.65,4.65,0,0,1,.33-1.5,30.27,30.27,0,0,1,1.21-3.51C93.4,17,105.69,8.39,120.08,8.39a34.16,34.16,0,0,1,28.37,14.75,25.54,25.54,0,0,1,5,12.46A30.94,30.94,0,0,1,153.89,40.72Z"/><path d="M110,35.67Zm13.16-5h0Zm3.7,1.81h0Zm26.21,1.94c-.29.24-.58.48-.86.73l-2.92,2.62-1.84,1.67-2.08,1.89a7.77,7.77,0,0,1-2,1.37,7.64,7.64,0,0,0-1,.52c-.5.28-1,.61-1.47.9a9.11,9.11,0,0,1-1,.51,1.91,1.91,0,0,1-.71.18c-.58,0-.49,0-.9-.43a3.19,3.19,0,0,0-.44-.46c-.28-.24-.56-.47-.85-.68a8.36,8.36,0,0,0-1.28-.85,1.48,1.48,0,0,1-.3-.21s0-.06.06-.07c.48-.36.93-.74,1.43-1a3.06,3.06,0,0,1,2.27-.58c.22.05.37-.12.35-.35a1.13,1.13,0,0,0-.11-.41,12.05,12.05,0,0,0-.64-1,8.41,8.41,0,0,0-3.92-3,2.88,2.88,0,0,0-1.92-.1l-.38.08s0,.06-.09.13l.28-.1a3,3,0,0,1,2,.12,8.88,8.88,0,0,1,1.93,1.13,8.53,8.53,0,0,1,2.11,2.33,6.94,6.94,0,0,1,.38.71.47.47,0,0,1,0,.16l-.07,0H139a2.54,2.54,0,0,0-1.22.15,6.49,6.49,0,0,0-1.75,1c-.24.19-.48.36-.71.55a.34.34,0,0,1-.46,0c-.19-.13-.4-.24-.59-.36,0,0,0,0-.07-.07l.14-.11a.59.59,0,0,1-.47,0,9.77,9.77,0,0,0-2.33-.87c-.37-.09-.74-.18-1.11-.29a4.58,4.58,0,0,1-.94-.37l.46-.47a12.38,12.38,0,0,0,1.53-1.87,4.3,4.3,0,0,0,.64-1.53,6.64,6.64,0,0,0-.28-3.45c-.19-.52-.4-1-.59-1.55s-.27-.8-.42-1.2c-.08-.23-.18-.46-.28-.68s-.18-.26-.36-.24-.24.15-.29.29a1.57,1.57,0,0,0-.11.35,2.22,2.22,0,0,1-.31.76,6.23,6.23,0,0,1-1.24,1.37l-1.19,1-.13.09v-.14l-.15.19a5,5,0,0,1-.33.44,9.48,9.48,0,0,0-1.17,1.43,2,2,0,0,0-.13.25c.16-.17.28-.35.42-.53a12.78,12.78,0,0,1,2-2c.39-.31.78-.6,1.15-.93a3.75,3.75,0,0,0,1.38-2.12,1,1,0,0,1,.1-.22.64.64,0,0,1,.12.13c.1.25.2.51.29.77s.09.42.15.63a5.27,5.27,0,0,1,.21,1.31,12.66,12.66,0,0,1-.3,3,24.14,24.14,0,0,1-1.42,4.28l-.18.4-.7-.31a21.58,21.58,0,0,0-2.43-1,.83.83,0,0,1-.18-.13l-.24,0-1.62-.51c-.52-.15-1-.28-1.56-.42s-.8-.22-1.21-.3a1,1,0,0,0-1,.35,5.55,5.55,0,0,0-.35.46.15.15,0,0,1-.18.08,1.74,1.74,0,0,0-.13-.2,2.15,2.15,0,0,0-1.7-.69,3.77,3.77,0,0,0-1.23.27l-1.42.59c-.11,0-.22,0-.36.09a1.6,1.6,0,0,1,0-.22c.1-.42.18-.83.3-1.24a11.48,11.48,0,0,1,1.91-3.5c.62-.79,1.28-1.56,1.91-2.34a11.55,11.55,0,0,0,1.28-1.75,1.35,1.35,0,0,1,.2-.27.28.28,0,0,1,.44-.06l.19.14a9.17,9.17,0,0,1,1.27,1.37,11.14,11.14,0,0,1,2.14,5.47c.08.64.07,1.29.1,1.93,0,.2,0,.2.23.25l0-.27a12.35,12.35,0,0,0-1.47-6.39.62.62,0,0,1,0-.23c-.1,0-.14-.08-.19-.15-.26-.37-.5-.75-.78-1.11A7.63,7.63,0,0,0,121,28.14a.59.59,0,0,0-.88.07c-.11.13-.2.28-.3.42a7,7,0,0,1-.44.67c-.58.74-1.18,1.48-1.78,2.21a20.09,20.09,0,0,0-1.53,2,10.83,10.83,0,0,0-1.34,3c-.09.34-.15.68-.22,1s0,.33-.38.36l-.39,0a.34.34,0,0,1-.3-.13,5.27,5.27,0,0,0-1.22-1.09,5.87,5.87,0,0,0-1.37-.69c-.14-.05-.28-.09-.41-.15s-.25-.14-.37-.21-.06.08-.13.06c-.67-.16-1.34-.3-2-.5a10.55,10.55,0,0,1-3.19-1.53,13.46,13.46,0,0,1-1.4-1.09,2.47,2.47,0,0,1-.88-1.77s0,0,0,0a9,9,0,0,0-.32-1.93.68.68,0,0,1,0-.21.66.66,0,0,1,.41.28,1.54,1.54,0,0,0,1,.47,4.36,4.36,0,0,0,.51,0l1.73-.08,1.28-.08a1.11,1.11,0,0,0-.36,0H104a1.66,1.66,0,0,1-1-.2,6.25,6.25,0,0,1-.5-.4,1.77,1.77,0,0,0-.35-.26.24.24,0,0,0-.35.25,2.14,2.14,0,0,0,.06.35,10.24,10.24,0,0,1,.26,1.66,6.08,6.08,0,0,0,.49,2.1c.31.69.62,1.37,1,2a16.39,16.39,0,0,0,2.74,3.91,1,1,0,0,1,.1.15l-.14,0c-.41.09-.82.15-1.22.26a5.22,5.22,0,0,0-1.84.92,4.77,4.77,0,0,0-1.35,1.51,4.39,4.39,0,0,0-.51,1.49,1.72,1.72,0,0,0,.06.75.42.42,0,0,0,.07.13,4.77,4.77,0,0,1,0-.51,2.09,2.09,0,0,1,.08-.5,4.05,4.05,0,0,1,1-1.79A5.54,5.54,0,0,1,104.3,40a7.26,7.26,0,0,1,1.88-.5,8,8,0,0,1,1.2,0,3.48,3.48,0,0,1,1,.09,5.8,5.8,0,0,0,.93.14,2.81,2.81,0,0,0,.71,0,5.58,5.58,0,0,0,.89-.24c.46-.16.91-.35,1.38-.51a14.18,14.18,0,0,1,2.12-.59,6.22,6.22,0,0,0,1.86-.73,4.22,4.22,0,0,1,1.57-.52,3.47,3.47,0,0,1,.64,0s.08.07.12.11-.07.09-.11.1l-.39.09a8.11,8.11,0,0,0-1.69.6.84.84,0,0,0-.51,1,3.45,3.45,0,0,0,.11.54.88.88,0,0,0,.6.65,1.57,1.57,0,0,0,.61.05,5.64,5.64,0,0,0,1.45-.38l.63-.25c.11.2.2.39.31.56a3.54,3.54,0,0,0,.39.54c.34.35.69.68,1,1a1.55,1.55,0,0,0,.83.43,1.39,1.39,0,0,1,.77.55,4.06,4.06,0,0,1-1.29.9,3.1,3.1,0,0,1-2.2.2.13.13,0,0,0,.07.06,2.59,2.59,0,0,0,1.07.13,3.65,3.65,0,0,0,1.57-.52,8.93,8.93,0,0,0,.8-.57.21.21,0,0,1,.27,0,2.54,2.54,0,0,0,.38.16c.24.05.48.09.73.12a.29.29,0,0,1,.21.12,1.36,1.36,0,0,0,.64.54c.27.13.56.24.84.36.06,0,.15,0,.15.14l-.28.08a3,3,0,0,0-1.82,1.32.6.6,0,0,1-.68.31H123a5.25,5.25,0,0,0-3.07.49.83.83,0,0,1-.58.05,3.43,3.43,0,0,0-.64-.11,4.47,4.47,0,0,0-1.21.06c-.36.09-.72.14-1.08.23s-.63.17-1,.27a.35.35,0,0,1-.33,0,2.48,2.48,0,0,1-.65-.86l0,0,.33-.18A2.45,2.45,0,0,0,116,44.54c.06-.17.13-.34.19-.52a1,1,0,0,0,.08-.39c-.14.2-.13.48-.31.61a1.22,1.22,0,0,1,0,.25,2.44,2.44,0,0,1-1.46,1.35c-.1,0-.18,0-.23-.07s-.13-.18-.18-.27a4.4,4.4,0,0,0-.92-1c-.31-.23-.63-.44-.95-.66,0,0-.06-.07-.09-.11s.07-.08.11-.09l.67-.16c.51-.15,1-.3,1.51-.47a1,1,0,0,0,.35-.18,4.38,4.38,0,0,1,1.13-.55A8.64,8.64,0,0,0,117,41.8a8.23,8.23,0,0,0,1-.63,5.63,5.63,0,0,0,1.05-1,.75.75,0,0,0,.06-.13.53.53,0,0,0-.21.12,7,7,0,0,1-3,1.54,4.26,4.26,0,0,0-1.48.61,1.09,1.09,0,0,1-.31.14l-1,.24c-.45.12-.89.25-1.34.35a5.56,5.56,0,0,0-1,.33,2,2,0,0,0-.41.26,8,8,0,0,0-.6.57,2.35,2.35,0,0,1-1.32.64,3.55,3.55,0,0,0-.78.19,3.59,3.59,0,0,1-1.72.21c-.2,0-.4-.07-.6-.1a.38.38,0,0,0,.19.13l.42.12a3.43,3.43,0,0,0,1.53,0c.35-.08.71-.12,1.06-.18a4.4,4.4,0,0,0,.65-.13,2.93,2.93,0,0,0,1.12-.71,2,2,0,0,1,.85-.58q.33-.1.66-.18a.25.25,0,0,1,.19,0l1,.84a3.34,3.34,0,0,1,.35.4s.09.11.08.15a2,2,0,0,1-.18.55,3.79,3.79,0,0,1-.89.94l-.61.49a.14.14,0,0,0,.14,0c.18-.09.36-.18.53-.28a2.53,2.53,0,0,0,.82-.74,1.16,1.16,0,0,0,.25-.65.82.82,0,0,1,0-.14.9.9,0,0,1,.14.14c.11.18.2.37.3.55a7.69,7.69,0,0,0,.78,1.25.37.37,0,0,1,.08.18,1.73,1.73,0,0,1-.33,1.28,3.38,3.38,0,0,0-.34.62.3.3,0,0,0,0,.13c.13-.16.24-.31.37-.45a1.38,1.38,0,0,0,.41-1.44s0-.06,0-.1a1.6,1.6,0,0,0,.41.07,3.43,3.43,0,0,0,.64-.11l1.09-.28a1.13,1.13,0,0,1,.32,0,3.66,3.66,0,0,0,.15,1,1.78,1.78,0,0,0,.58.75,8.17,8.17,0,0,1-.63-1.78l.4,0c0,.28.08.56.39.68,0-.26-.16-.45-.14-.7a.65.65,0,0,1,.19,0c.3,0,.61,0,.91.1a1.43,1.43,0,0,0,1-.14,3.3,3.3,0,0,1,1-.37,6.26,6.26,0,0,1,1.67-.14,4,4,0,0,0,.6,0c.11,0,.15,0,.21.11a4.83,4.83,0,0,0,.41.49,1.9,1.9,0,0,1,.35.49,2,2,0,0,0,.11.2.72.72,0,0,0-.17-.72s-.09-.08,0-.18a3.42,3.42,0,0,1,.6.48.19.19,0,0,0,0-.24,1.15,1.15,0,0,0-.42-.43,1.05,1.05,0,0,1-.27-.2c-.1-.1-.17-.21-.34-.22A3,3,0,0,1,125,44.91a4.82,4.82,0,0,1,1-.49.64.64,0,0,1,.47,0q.68.2,1.35.36c.26.06.31.1.31.37a1.9,1.9,0,0,1-.33,1.06,3.3,3.3,0,0,1-1,1c-.46.31-.93.6-1.4.9a5.3,5.3,0,0,0-1.17,1,2.53,2.53,0,0,1-.64.58,3.41,3.41,0,0,0-.6.54.36.36,0,0,1-.3.15A5.43,5.43,0,0,0,119,51.63a1.57,1.57,0,0,1-.54.29c-.62.21-1.25.42-1.86.67a19.61,19.61,0,0,0-2.44,1.19.29.29,0,0,1-.3,0c-.34-.15-.68-.3-1-.43a12.58,12.58,0,0,0-1.71-.54,1.4,1.4,0,0,1-.53-.19c-.42-.29-.81-.61-1.21-.93a4,4,0,0,0-1.75-.92,1.94,1.94,0,0,0-2,.63c-.18.22-.17.27,0,.48a11.81,11.81,0,0,1,1.49,2.22,3.21,3.21,0,0,0,.92,1.22,4.53,4.53,0,0,0,1.37.86l.44.12a1.72,1.72,0,0,1,.88.47l.2.17a5,5,0,0,0,1.36.76c.47.19,1,.34,1.43.5a2.11,2.11,0,0,0,1.72-.09,4.65,4.65,0,0,1,1.63-.44c.4-.06.8-.08,1.19-.14a7.63,7.63,0,0,0,1.56-.41l.28-.11a.1.1,0,0,0-.1,0c-.43.12-.85.27-1.28.35-.61.11-1.22.17-1.83.22a3.81,3.81,0,0,0-1.48.38,1.73,1.73,0,0,1-1.1.17c-.17,0-.2-.06-.19-.23s0-.3,0-.45a2.23,2.23,0,0,0,0-.68,2.13,2.13,0,0,0-.34.71l-.25-.39c-.08-.12-.16-.23-.28-.38,0,.11,0,.17,0,.22a3.16,3.16,0,0,0,.22.5,1.62,1.62,0,0,1,.23.57l-.19,0c-.32-.11-.65-.23-1-.36a5.1,5.1,0,0,1-1.74-1.05,1.49,1.49,0,0,0-.56-.39l-.66-.19c-.14,0-.3-.05-.38-.19l.32-.45c.09-.16.27-.27.27-.52l-.56.4c0-.33.32-.52.27-.86l-.13.13c-.12.15-.23.31-.34.47a.11.11,0,0,1-.17,0l.18-.45a.84.84,0,0,0-.52.79l-.12,0a3.31,3.31,0,0,1-.93-1.07c-.27-.53-.57-1-.88-1.54-.18-.31-.42-.59-.63-.88-.09-.13-.09-.15,0-.26a.81.81,0,0,1,.14-.12,1.8,1.8,0,0,1,1.26-.24,2.75,2.75,0,0,1,1.1.46c.52.39,1,.8,1.54,1.2l.25.21-.26.12a2,2,0,0,0-.22.16c.15.08.13.16.06.26a.43.43,0,0,0-.09.44c.17-.11.22-.35.44-.42,0,.15,0,.26,0,.38h0l.09-.15a4.6,4.6,0,0,1,.32-.45.31.31,0,0,1,.37-.09c.31.1.62.17.92.29.6.23,1.18.47,1.77.71a.3.3,0,0,1,.24.32,1.8,1.8,0,0,0,.06.32.44.44,0,0,0,.24.34,3.06,3.06,0,0,0-.09-.74c0-.21-.06-.21.14-.32.51-.26,1-.54,1.54-.77a17.11,17.11,0,0,1,2.05-.81l1.12-.37c.13.18.24.36.38.52a1.71,1.71,0,0,0,.45.44.65.65,0,0,0,0-.21,2.22,2.22,0,0,0-.64-.84s0-.06,0-.07a.6.6,0,0,1,.08-.08A4.5,4.5,0,0,1,121.73,51a8.44,8.44,0,0,1,1,0c.26,0,.31,0,.39.29s.07.25.11.38l.06.08h0a1.53,1.53,0,0,0,0-.64.51.51,0,0,1,.17-.62,3.27,3.27,0,0,1,.37-.28,3.1,3.1,0,0,0,.78-.71,4.22,4.22,0,0,1,.77-.69c.31-.24.66-.41,1-.62a6.9,6.9,0,0,0,1.27-1,5.63,5.63,0,0,0,.57-.72,1.82,1.82,0,0,0,.33-.87,4.13,4.13,0,0,0,.07-.49.83.83,0,0,0-.67-.88l-.7-.17a12.08,12.08,0,0,1-2.17-.74.85.85,0,0,1-.49-.42.44.44,0,0,0-.41-.26l-.41,0a1.47,1.47,0,0,1-.92-.43,1.78,1.78,0,0,0-1-.58.78.78,0,0,1-.33-.16c-.29-.24-.57-.47-.83-.73a3,3,0,0,1-.68-.9,1.65,1.65,0,0,1,0-.21.78.78,0,0,1,.21,0l.48.16a11.58,11.58,0,0,0,1.53.43.85.85,0,0,0,1.06-.48,2.45,2.45,0,0,0,.3-1,.53.53,0,0,0-.25-.53,1.16,1.16,0,0,0-.22-.13c-.07,0-.13-.07-.09-.2l.33.06c.18,0,.36.1.53.15l1.41.43a17.37,17.37,0,0,1,1.73.7l.38.16c.4.19.8.39,1.21.57a15.63,15.63,0,0,0,3.21,1,6.93,6.93,0,0,1,1.84.7c.69.36,1.35.77,2,1.17s1.14.78,1.7,1.18a5.12,5.12,0,0,1,.59.55c.14.15.28.31.41.47a.56.56,0,0,0,.32.17,2.37,2.37,0,0,0,1.18-.13,6.68,6.68,0,0,0,1.57-.81,17.09,17.09,0,0,1,2.3-1.35,6.61,6.61,0,0,0,1-.62A10,10,0,0,0,146,41.22l2.19-2,1.94-1.84,1.65-1.54.27-.25,1-.92A.14.14,0,0,0,153.1,34.42Zm-40,3.65-1.39.41c-.09,0-.17.11-.26.14-.36.12-.73.22-1.1.33l-.28.09a2.12,2.12,0,0,1-1.17-.07,10.92,10.92,0,0,0-1.15-.11,3.62,3.62,0,0,0-.57,0,.47.47,0,0,1-.43-.17c-.38-.45-.79-.88-1.15-1.35a19.5,19.5,0,0,1-2.2-3.67c-.19-.38-.35-.77-.53-1.15,0-.08,0-.16-.08-.23a.1.1,0,0,0,0,0,1.14,1.14,0,0,1,.11.11,6.4,6.4,0,0,0,1,1.06,11.2,11.2,0,0,0,2.85,1.81,14.73,14.73,0,0,0,2,.63c.56.13,1.11.25,1.66.41a6.45,6.45,0,0,1,2.68,1.57l.1.1a.18.18,0,0,0,0,.06A1.11,1.11,0,0,1,113.09,38.07Zm6.48-.2a.14.14,0,0,1,0,.07,2.67,2.67,0,0,0-.26,1.36c0,.19,0,.21-.18.26L118,39.8q-.37.08-.75.12a1.7,1.7,0,0,1-.39,0,.63.63,0,0,1-.58-.51c0-.18-.07-.37-.1-.56a.5.5,0,0,1,.32-.57c.33-.17.66-.34,1-.49s.73-.3,1.08-.46a.44.44,0,0,1,.48,0l.23.18.22.18h0l0,0v0A.1.1,0,0,1,119.57,37.87Zm3.38.47c.26.17.3.25.21.54a4,4,0,0,1-.26.68.46.46,0,0,1-.47.32l-.7-.11-1.32-.23a2.61,2.61,0,0,1-.27-.06c-.23-.06-.24-.06-.26-.31a2.37,2.37,0,0,1,.21-1,3.88,3.88,0,0,1,.3-.52.59.59,0,0,1,.62-.26,2.44,2.44,0,0,1,1.29.49A5.7,5.7,0,0,0,123,38.34Zm6.28,1.21s0,0,0,0a1,1,0,0,1,.06-.16,18.15,18.15,0,0,0,1.48-3.72,10.66,10.66,0,0,0,.39-3.37c0-.16,0-.31,0-.46a.69.69,0,0,1,0-.16l.09.11a7.49,7.49,0,0,1,.64,3.27,4.73,4.73,0,0,1-.92,2.59,17.53,17.53,0,0,1-1.6,1.85Z"/><path d="M104.36,51.8a2.3,2.3,0,0,0-.62.41,1.85,1.85,0,0,0-.45.58.8.8,0,0,0,.13.13,2.35,2.35,0,0,1,.49.6c.08.13.18.26.27.38s.36.49.53.75a2.56,2.56,0,0,0,.62.61,1.3,1.3,0,0,1,.18.15,1.8,1.8,0,0,0,.76.54,3.71,3.71,0,0,1,1.1.75l.15.1a.9.9,0,0,1,.42-.71c.06.18,0,.3-.09.43s-.12.26-.18.4a.52.52,0,0,0,.38.24.8.8,0,0,1,.34-.89.29.29,0,0,1,0,.26c-.07.18-.13.36-.21.53s0,.2.09.24l.68.23c.14,0,.3.06.45.09a1.54,1.54,0,0,1,.68.36,2.64,2.64,0,0,0,.55.34,3.32,3.32,0,0,1,.59.31,1.28,1.28,0,0,0,.62.21,2.84,2.84,0,0,1,.87.21.65.65,0,0,0,.48.07.7.7,0,0,1,.16-.61l.11.24c.16,0,.34.07.5-.15l0,.36a2.82,2.82,0,0,0,.43-.05,6.9,6.9,0,0,0,.78-.21,2.72,2.72,0,0,1,1-.12,5.45,5.45,0,0,0,1.56-.23c.41-.12.82-.24,1.23-.33a5.73,5.73,0,0,1,1.37-.12c.92,0,1.85.07,2.77.08a14.73,14.73,0,0,0,1.49-.06,7.73,7.73,0,0,0,1.09-.16c.71-.16,1.4-.35,2.1-.52l1.1-.26.76-.17,1.28-.28,1.4-.3c.46-.09.93-.17,1.39-.27l.77-.17,1.35-.28,1-.21,1.4-.27.81-.17a6.4,6.4,0,0,1,2.22-.19,1.89,1.89,0,0,0,1.4-.48c.76-.57,1.51-1.17,2.31-1.67.44-.28.9-.51,1.33-.78a8.33,8.33,0,0,1,1.47-.65l.59-.19a3.87,3.87,0,0,0,1.12-.54,17.28,17.28,0,0,1,2.7-1.57c.28-.13.58-.24.89-.36v.18c-.66.35-1.31.67-1.95,1a10.44,10.44,0,0,0-.89.58l-.93.64a3.52,3.52,0,0,1-1,.46,8.3,8.3,0,0,0-1.63.66c-.58.31-1.12.68-1.66,1s-.75.54-1.12.82l-.74.58-.56.41a2,2,0,0,1-1.35.37,4.78,4.78,0,0,0-1.31,0l-1,.21c-.39.08-.79.15-1.18.24l-1.32.28-1.4.28-.74.17-.92.2-1,.2-1.44.29-1.06.24-1.23.29-1.52.38c-.56.13-1.11.28-1.67.39a11.94,11.94,0,0,1-2.67.15c-.85,0-1.7-.09-2.56-.1a6.83,6.83,0,0,0-2.15.32,6.11,6.11,0,0,1-2.25.32,1.56,1.56,0,0,0-.67.1c-.33.1-.67.16-1,.23l-.65.13a1.55,1.55,0,0,1-1.06-.07,2.25,2.25,0,0,0-.89-.22,1,1,0,0,1-.37-.11c-.35-.18-.71-.37-1-.57a1.66,1.66,0,0,1-.43-.3,1.33,1.33,0,0,0-.72-.33,3.84,3.84,0,0,1-1.76-.84,8.23,8.23,0,0,0-.8-.66,5.07,5.07,0,0,0-.64-.37,1.38,1.38,0,0,1-.28-.19,9.69,9.69,0,0,1-.73-.7c-.17-.19-.31-.4-.46-.6s-.2-.29-.3-.44a4.72,4.72,0,0,1-.35-.52,2,2,0,0,0-.56-.68c-.11-.08-.09-.16,0-.26a2.71,2.71,0,0,1,.67-.72A.69.69,0,0,1,104.36,51.8Z"/><path d="M110,35.66a2.87,2.87,0,0,1-.82-1,10.16,10.16,0,0,1-1.37-5.24,8.31,8.31,0,0,1,.26-1.73c.21-.81.43-1.61.67-2.4a13.57,13.57,0,0,0,.42-1.89,2.59,2.59,0,0,0-.19-1.35c0-.1-.07-.19-.1-.29a.54.54,0,0,1,.37-.67.76.76,0,0,1,.25-.06,3.78,3.78,0,0,1,1.7.19,6.54,6.54,0,0,1,2.15,1.36l.06.07v0l-.17-.13a6.43,6.43,0,0,0-2.21-1.2,4.17,4.17,0,0,0-1.49-.09l-.18.05c-.22.08-.29.2-.21.42a.83.83,0,0,0,.08.22,7.76,7.76,0,0,1,.89,2.17,20.13,20.13,0,0,1,.64,3.18,5.79,5.79,0,0,1,0,1.5.88.88,0,0,0,0,.14s.1-.06.11-.09a8.17,8.17,0,0,1,1.59-2.14c.34-.36.69-.71,1-1.06a1.08,1.08,0,0,1,.24-.18.32.32,0,0,1,.49.13.8.8,0,0,1,.11.37,1.65,1.65,0,0,0,.52,1c.84.85,1.69,1.7,2.53,2.56.16.16.29.35.44.53a1.23,1.23,0,0,1,.12.26,7.57,7.57,0,0,0-1.27-1.26c-.71-.66-1.41-1.33-2.11-2a1.62,1.62,0,0,1-.49-1,2.74,2.74,0,0,0-.09-.39.46.46,0,0,0-.35.2c-.29.29-.56.59-.84.89l-.73.81a6.64,6.64,0,0,0-1.43,2.65,8.22,8.22,0,0,0-.16,4.15c.09.41.22.81.32,1.23l-.1-.21a7.94,7.94,0,0,1-.57-3.91,9.53,9.53,0,0,1,.17-1.07,8.1,8.1,0,0,0,.13-3.43c-.17-1-.38-2.05-.59-3.08-.06-.32-.15-.63-.23-.94a.91.91,0,0,0-.08-.2c0,.08-.06.11-.06.14a5.3,5.3,0,0,1-.24,1.68c-.23.85-.49,1.68-.72,2.53a9.59,9.59,0,0,0-.39,3.37,9.36,9.36,0,0,0,.48,2.28c.17.46.33.92.52,1.38a4,4,0,0,0,.77,1.22.88.88,0,0,1,.12.19Z"/><path d="M103.9,51.72a8.71,8.71,0,0,0-2.15-.86c-.4-.13-.8-.24-1.21-.35l-.83-.2L98.14,50a3.79,3.79,0,0,1-1-.39l-1.44-.73a4,4,0,0,0-1.23-.35c-.51,0-1-.08-1.54-.12a3.94,3.94,0,0,1-1-.22,4.61,4.61,0,0,1-.86-.43,5.87,5.87,0,0,0-1.53-.57,9.87,9.87,0,0,1-1.75-.55l-.08,0a1.56,1.56,0,0,0-.76-.25c-.06,0-.13,0-.11-.11s.08-.06.12-.07a1.77,1.77,0,0,1,.85.16,5.45,5.45,0,0,0,1.37.37,7.23,7.23,0,0,1,1.59.38l.9.44a3.28,3.28,0,0,0,1.22.31l1,0a5.79,5.79,0,0,1,2.24.57,12,12,0,0,1,1.11.61,5.29,5.29,0,0,0,1.52.62c.49.12,1,.26,1.44.41s1.1.39,1.64.61,1,.46,1.57.7A1,1,0,0,1,103.9,51.72Z"/><path d="M86.93,33.25c.35.19.7.38,1,.58.5.28,1,.58,1.49.87l1.23.74c.78.46,1.56.94,2.36,1.39q.92.53,1.86,1c.79.4,1.58.76,2.36,1.15L99.36,40c.69.34,1.39.65,2.11.92l.39.16v.05l-.38-.09a13.07,13.07,0,0,1-2-.6L98,39.84c-.58-.24-1.16-.48-1.73-.74s-1.08-.49-1.6-.75c-.71-.36-1.41-.73-2.09-1.12s-1.23-.78-1.84-1.18-1.15-.79-1.72-1.2-1-.71-1.47-1.07L87,33.39a.52.52,0,0,1-.1-.11Z"/><path d="M132.74,35.2c.28-.69.57-1.34.8-2a21.34,21.34,0,0,0,1-3.93,4.24,4.24,0,0,0,0-1.18,5.41,5.41,0,0,1,.17-2.19.37.37,0,0,0,0-.11s0,0,0-.06a12.82,12.82,0,0,0-3.27,5.17,6.19,6.19,0,0,1,.58-2A7.85,7.85,0,0,1,133.07,27a6.37,6.37,0,0,1,1.58-1.39.36.36,0,0,0-.32-.19,5.16,5.16,0,0,0-.78,0,13,13,0,0,0-2.55.44c-.44.11-.88.26-1.32.4-.12,0-.23.07-.36.09l.11-.07a13.68,13.68,0,0,1,4-1.15,2.81,2.81,0,0,1,1,0,1.18,1.18,0,0,1,.37.14.5.5,0,0,1,.25.59l-.15.7a5.41,5.41,0,0,0,0,1.45,6.42,6.42,0,0,1-.25,2.46c-.19.66-.36,1.32-.57,2A15.14,15.14,0,0,1,132.9,35l-.07.12S132.78,35.14,132.74,35.2Z"/><path d="M126.89,32.48a2,2,0,0,1,.09-.22,14,14,0,0,0,1.24-2.52,6.29,6.29,0,0,0,.33-3.07,7.29,7.29,0,0,0-.56-1.75c-.25-.59-.52-1.16-.77-1.75-.1-.24-.18-.49-.27-.73a2.59,2.59,0,0,1-.16-1.2c0-.26,0-.35-.31-.33s-.59.07-.89.12a11.84,11.84,0,0,0-2.28.63A7.08,7.08,0,0,0,121.19,23l-.24.21-.07,0a.7.7,0,0,1,.12-.15,7,7,0,0,1,3.21-2,14.25,14.25,0,0,1,1.93-.46,2.59,2.59,0,0,1,.48,0,.5.5,0,0,1,.49.52,1.34,1.34,0,0,1,0,.2,1.62,1.62,0,0,0,.13,1c.25.65.52,1.3.8,1.94a9.56,9.56,0,0,1,.79,2.33,5.23,5.23,0,0,1,0,1.58,8.56,8.56,0,0,1-1.22,3.24c-.17.28-.34.56-.52.84l-.22.27Z"/><path d="M115.43,26.88a2.21,2.21,0,0,1,.52-1,5.29,5.29,0,0,1,.41-.41,12.57,12.57,0,0,1,1.44-1.08,5.34,5.34,0,0,0,1.08-1,3.7,3.7,0,0,1,.28-.28,1.41,1.41,0,0,1,.29-.18.29.29,0,0,1,.34.07l.06.07a10,10,0,0,0,1.53,1.78,18.06,18.06,0,0,1,1.18,1.44,4.87,4.87,0,0,1,.8,3.78.62.62,0,0,1-.11.27c0-.14,0-.27,0-.41a5,5,0,0,0-1.15-3.73,24.7,24.7,0,0,0-1.77-1.91,3.94,3.94,0,0,1-.69-.89c-.1-.19-.16-.2-.32-.05l-.47.47a6.31,6.31,0,0,1-1.15.91c-.53.33-1,.71-1.53,1.08a2.81,2.81,0,0,0-.74,1A.59.59,0,0,0,115.43,26.88Z"/><path d="M121,21.86l-.13-.17a8.81,8.81,0,0,0-2-2.11,6.55,6.55,0,0,0-.59-.45,1.33,1.33,0,0,1-.46-.42.65.65,0,0,0-.44-.3,1.15,1.15,0,0,0-.06.17,4.65,4.65,0,0,1-1.15,2.35c-.51.6-1,1.18-1.58,1.77a7.89,7.89,0,0,0-1.25,1.79,5.28,5.28,0,0,0-.4,1.28s0,0,0,.08a3.33,3.33,0,0,1,.26-1.31,6.09,6.09,0,0,1,1.07-1.8c.44-.54.9-1.06,1.36-1.59a6.94,6.94,0,0,0,1.14-1.7,7.69,7.69,0,0,0,.28-.85,1.37,1.37,0,0,1,.07-.29.32.32,0,0,1,.48-.19,1.25,1.25,0,0,1,.3.21c.47.42.93.85,1.41,1.26A8.3,8.3,0,0,1,121,21.68c0,.05,0,.11.08.16Z"/><path d="M123.19,30.68c0-.08,0-.16.1-.17a.24.24,0,0,0,.15-.09l1.27-1.31c.07-.06.13-.14.2-.2a.42.42,0,0,1,.66.05,2.65,2.65,0,0,1,.29.52A3.56,3.56,0,0,1,126,30a6,6,0,0,1-.14,3.14.18.18,0,0,1-.07.1.48.48,0,0,1,0-.12,7.22,7.22,0,0,0-.17-3.33,2.56,2.56,0,0,0-.24-.57c-.11-.18-.19-.19-.35-.05s-.5.48-.77.7-.64.48-1,.72l-.12,0Z"/><path d="M147,50l-.37.22L145,51.37l-1.34.88c-.24.15-.49.26-.73.39a.93.93,0,0,1-.78.07,3.42,3.42,0,0,0-1.45-.22s0,0,0-.05.23,0,.35-.06a2.77,2.77,0,0,1,1.07.1,1,1,0,0,0,.82-.08l1.32-.8c.45-.28.9-.58,1.36-.85s.83-.46,1.25-.69L147,50Z"/><path d="M103.94,50.74c-.55-.15-1.09-.3-1.64-.43s-1.21-.27-1.81-.41a1,1,0,0,1-.31-.15,3.73,3.73,0,0,1-.88-.8A2.78,2.78,0,0,0,98,48.11s0,0-.11,0a.64.64,0,0,1,.42,0,2.93,2.93,0,0,1,1.12.71c.21.22.44.42.67.62a1.47,1.47,0,0,0,.63.27,15.67,15.67,0,0,1,2.93.87l.27.14Z"/><path d="M126.06,56.32a2.41,2.41,0,0,0,1.86-.39c.35-.2.68-.42,1-.6a4.39,4.39,0,0,1,2.08-.39,3.14,3.14,0,0,1,.53,0,2,2,0,0,1-.58.1,4.86,4.86,0,0,0-2.17.62,8,8,0,0,1-1.3.67,2,2,0,0,1-1.27.1,1.76,1.76,0,0,1-.2-.09Z"/><path d="M100.21,41.19a1.1,1.1,0,0,1-.17.25,5,5,0,0,0-1.16,1.84c-.07-.13-.06-.29.07-.63a2.53,2.53,0,0,1,.28-.6,3.29,3.29,0,0,1,.42-.49c.16-.15.35-.27.52-.41Z"/><path d="M106.17,48.36a2.79,2.79,0,0,1,1.23.86,2.65,2.65,0,0,0,.33.34.27.27,0,0,1,.09.13c-.06,0-.13,0-.18,0a3.07,3.07,0,0,1-.42-.28c-.3-.26-.6-.52-.89-.79l-.21-.18Z"/><path d="M125.83,40.28a1.34,1.34,0,0,1,0,.2s0,.11,0,.13.06.27,0,.38a1.2,1.2,0,0,1-.41.58v-.44a1,1,0,0,1,0-.29c.07-.19.17-.38.26-.58Z"/><path d="M120.11,50.1c-.22-.34-.45-.67-.66-1a1.93,1.93,0,0,1-.15-.4l.06,0c.06.07.13.14.19.22a2.48,2.48,0,0,0,.25.3A1.11,1.11,0,0,1,120.11,50.1Z"/><path d="M100.25,42.62a1.63,1.63,0,0,1,1.08-1.32,4.51,4.51,0,0,1-.53.65Z"/><path d="M114.08,45a2.22,2.22,0,0,0,1.7-.58,1.13,1.13,0,0,1-.1.13,2.15,2.15,0,0,1-1.37.68C114.13,45.22,114.11,45.2,114.08,45Z"/><path d="M125.94,42.13c-.07-.58.3-1,.45-1.57a.23.23,0,0,1,0,.25,4.67,4.67,0,0,1-.18.64C126.17,41.68,126.05,41.9,125.94,42.13Z"/><path d="M109.6,50a1.34,1.34,0,0,1-1.14-.78A3.8,3.8,0,0,1,109.6,50Z"/><path d="M124.84,41.44a1.22,1.22,0,0,1,.67-1.4A4.32,4.32,0,0,0,124.84,41.44Z"/><path d="M114.22,39.23a4.17,4.17,0,0,1,.3,1.45.92.92,0,0,1-.28-.54c0-.19,0-.39-.07-.59A.38.38,0,0,1,114.22,39.23Z"/><path d="M115.38,40.38A4.65,4.65,0,0,1,114.9,39,1.8,1.8,0,0,1,115.38,40.38Z"/><path d="M108.46,57.12c.12-.37.42-.58.56-.91C109.21,56.5,108.92,57,108.46,57.12Z"/><path d="M114.8,58a.67.67,0,0,1-.14-1A2.68,2.68,0,0,1,114.8,58Z"/><path d="M119.75,47.76a1.43,1.43,0,0,1,.55.74.18.18,0,0,1-.24-.07A.91.91,0,0,1,119.75,47.76Z"/><path d="M114.79,40a.83.83,0,0,1-.13-.78A.76.76,0,0,1,114.79,40Z"/><path d="M120.9,33.06l.06-2.28A21.7,21.7,0,0,1,120.9,33.06Z"/><path d="M136.27,38.52l-1.54-.24A4.75,4.75,0,0,1,136.27,38.52Z"/><path d="M118.7,26.28l-.11.53h0l.11-.54Z"/><path d="M125.53,24.67l.07-.54h0l-.06.53Z"/><path d="M134,39.93l-.51.06v0l.52-.05Z"/><path d="M105.07,32.27l-.34-.24,0,0,.34.24Z"/><path d="M122.43,34.07a2.93,2.93,0,0,1,0,.29,2.43,2.43,0,0,1,0,.27l0-.56Z"/><path d="M122.43,34.07V33.5h0v.57Z"/><path d="M133.48,28.75l-.09.29,0,0,.1-.29Z"/><path d="M129.47,33.56l.09-.27h0l-.1.29Z"/><path d="M122.48,34.93v.34h0v-.34Z"/><path d="M120.46,56.84l.25-.1,0,0-.25.09Z"/><path d="M129.61,33.06l.09-.28h0l-.08.29Z"/><path d="M104.34,31.7l-.21-.18,0,0,.2.18Z"/><path d="M134.81,39.88h0Z"/><path d="M133.07,40l-.25.12,0,0,.27-.09Z"/><path d="M126.82,24.33v.22h0v-.21Z"/><path d="M120.87,33.31v.22h0v-.22Z"/><path d="M133.21,29.51l0-.15h0l0,.16Z"/><ellipse cx="113.75" cy="28.29" ry="0.15"/><path d="M119.88,31.1l0-.17h0l0,.17Z"/><path d="M122.38,33.05v.14h0s0-.08,0-.13v0Z"/><path d="M134,38.3h0Z"/><path d="M129.92,32.09l0,.17h0l0-.17Z"/><path d="M120.13,30.26l0,.17h0l0-.16Z"/><path d="M126.85,25.08v-.17h0v.17Z"/><path d="M120.8,34v-.15h0V34Z"/><path d="M134.45,38.31l0,0,.05,0,0,0Z"/><path d="M122.29,32.6l.07.19h0l0-.19Z"/><path d="M122.29,32.6v-.25h0v.25Z"/><path d="M119.76,31.58l0,.12h0l0-.12Z"/><path d="M132.17,26.25l-.09.05v0l.09-.05Z"/><path d="M125,22.94l.06-.11,0,0L125,23Z"/><path d="M117.22,21.89l0-.09h0v.09Z"/><path d="M114,33.58v-.12h0v.12Z"/><path d="M104.57,31.9l-.08-.08,0,0,.08.07Z"/><path d="M133.07,40h.21v0Z"/><path d="M115.14,29l0,.09,0,0Z"/><path d="M133.53,28.43l.05-.08v.07l0,0Z"/><path d="M113.75,27.88v-.07h0v.07Z"/><path d="M118.91,25.39l0,.08h0l0-.09Z"/><path d="M126.91,25.38v.07l0-.07Z"/><path d="M125.53,24.9V25h0v-.1Z"/><polygon class="cls-5" points="119.54 37.73 119.54 37.74 119.53 37.73 119.54 37.73"/><path d="M105.73,36.31l-.52-.52,0,0C105.42,36,105.61,36.17,105.73,36.31Z"/><path d="M106.06,36.52v0l-.08-.06s0,0,0,0Z"/></svg>