<?xml version="1.0" encoding="UTF-8"?>
<svg xmlns="http://www.w3.org/2000/svg" width="56.63282012939453" height="38.366851806640625" viewBox="802.1694266752586 7733.62798609269 56.63282012939453 38.366851806640625" preserveAspectRatio="none">
  <g>
    <defs>
      <path id="s-Path_13-d1224" d="M857.6278782582217 7739.628047726832 C856.9733876762143 7737.280197506715 855.0676651342891 7735.435458174984 852.6422002144423 7734.801911380453 C848.1955142526867 7733.62798609269 830.4857695892334 7733.62798609269 830.4857695892334 7733.62798609269 C830.4857695892334 7733.62798609269 812.7567740284101 7733.62798609269 808.3293378625467 7734.7646436867535 C805.9423723509044 7735.379556767713 803.9789005130926 7737.280197506715 803.3436597269774 7739.628047726832 C802.1694266752586 7743.913805935387 802.1694266752586 7752.820729374482 802.1694266752586 7752.820729374482 C802.1694266752586 7752.820729374482 802.1694266752586 7761.764920418424 803.3436597269774 7765.994776864298 C803.9981503089848 7768.342627084415 805.9038728509099 7770.187366416146 808.3293377707569 7770.820913210677 C812.8145229571373 7771.994838320735 830.4857680288063 7771.994838320735 830.4857680288063 7771.994838320735 C830.4857680288063 7771.994838320735 848.2147621209924 7771.994838320735 852.6421982868558 7770.858180726671 C855.0676633902823 7770.224633843288 856.9733858404177 7768.379894422705 857.6278763306352 7766.032044380293 C858.802109382354 7761.746286171738 858.802109382354 7752.857996890476 858.802109382354 7752.857996890476 C858.802109382354 7752.857996890476 858.8406084233993 7743.913805935387 857.6278782582217 7739.628047726832 Z M824.8263494235478 7761.038206033416 L824.8263494235478 7744.603254137188 L839.5716365343912 7752.820729374482 L824.8263494235478 7761.038206033416 Z "></path>
    </defs>
    <g style="mix-blend-mode:normal">
      <use xmlns:xlink="http://www.w3.org/1999/xlink" xlink:href="#s-Path_13-d1224" fill="#FF7171" fill-opacity="1.0"></use>
    </g>
  </g>
</svg>
